<svg xmlns="http://www.w3.org/2000/svg" viewBox="0 0 491.2 342"><style>.st0{fill:#BEDDE8}.st1{fill:#D2ECF3}.st2{fill:#FFFFFF}.st5{fill:#A9CEDC}.st6{fill:none;stroke:#D2ECF3;stroke-width:3;stroke-linecap:round;stroke-linejoin:round;stroke-miterlimit:10}.st7{fill:#4D6B76}.st8{opacity:0}.st9{fill:#18263E}.st10{fill:#252526}.st17{fill:none;stroke:#678F9E;stroke-width:3;stroke-linecap:round;stroke-linejoin:round;stroke-miterlimit:10}.st18{fill:none;stroke:#252526;stroke-width:3;stroke-linecap:round;stroke-linejoin:round;stroke-miterlimit:10}.st20{fill:none;stroke:#26344E;stroke-width:3;stroke-linecap:round;stroke-linejoin:round;stroke-miterlimit:10}.st21{fill:#131313}.st22{fill:none;stroke:#131313;stroke-width:3;stroke-linecap:round;stroke-linejoin:round;stroke-miterlimit:10}.st23{fill:#121C2F}.st24{fill:none;stroke:#34484F;stroke-width:3;stroke-linecap:round;stroke-linejoin:round;stroke-miterlimit:10}.st25{fill:none;stroke:#121C2F;stroke-width:3;stroke-linecap:round;stroke-linejoin:round;stroke-miterlimit:10}.st28{fill:#310003}</style><g id="Background"><path class="st0" d="M37.4 52.4l418.4-34.6-8.7 323.9-403-16z"/><path class="st1" d="M61 45.7C66.3 45.4 258.6 76 258.6 76l6.7 156.6L76 262.5 61 45.7z"/><path class="st2" d="M152 102.9L106 95l-3.3 66.1 48.9 6zM200.3 110.9l-44.3 7.2 6.3 65.9 47-9.6zM253.3 164.5l-39.7 6.6 5.3 58 42.1-8.7zM168.1 74.3l13.6-3 4 14-13.6 3.3zM239.5 86.1l11.7.9 1.3 14.4-11.8-.5zM222.5 86.1l11.8.5 1.2 14.5-11.8-.2zM185.2 214.6l16.6-2.3 2.2 19.3-16.7 2.8z"/><ellipse transform="rotate(-9.508 180.548 131.475)" cx="180.5" cy="131.4" rx="16.9" ry="7.1" fill="none" stroke="#BEDDE8" stroke-width="3" stroke-miterlimit="10"/><path d="M197.4 129.7c.3 1.2.6 3.2.6 3.6.6 3.8-6.3 8.2-15.5 9.8s-17.2-.3-17.8-4.2c-.1-.4-.5-2.2-.7-3.5" fill="none" stroke="#BEDDE8" stroke-width="3" stroke-linecap="round" stroke-miterlimit="10"/><path class="st0" d="M180.2 130.5l-9.3 7.5.6 4.9 10.2.4-1-4.7zM181 130.2l14.6.2 1.5-1.7-1.1-2.1zM120.6 122.2l-3.9-.7-.4 7.3 4 .6zM127.4 125.6l-3.9-.5-.8 16.5 4.1.8zM134.2 128.8l-3.9-.6-.2 6 3.9.8zM148 121.6l-3.7-.5-.2 9.4 3.7.7zM113.6 124.1l-3.6-.4-.6 12.6 3.5.5zM141.2 127.4l-3.9-.6-.2 5 4 .9z"/><path class="st1" d="M121 113.1l-3.9-.5-.4 8.9 3.9.7zM127.6 119.8l-3.9-.7-.2 6 3.9.5zM134.3 124.8l-3.9-.4-.1 3.8 3.9.6zM148.2 111.4l-3.6-.6-.3 10.3 3.7.5zM114.1 114.4l-3.6-.6-.5 9.9 3.6.4zM141.4 118.9l-3.9-.7-.2 8.6 3.9.6z"/><path class="st5" d="M119.5 147.9l.8-18.5-4-.6-.9 18.6zM126.5 148.8l.3-6.4-4.1-.8-.3 6.7zM133.6 149.6l.4-14.6-3.9-.8-.6 14.9zM147.5 151.3l.3-20.1-3.7-.7-.5 20.3zM112.4 147.1l.5-10.3-3.5-.5-.5 10.4zM140.6 150.5l.5-17.8-4-.9-.5 18.2z"/><path class="st6" d="M166.9 156.4l24.4-4.3M166.7 163l32.1-5.5M167.1 170.1l29.7-5.1M167.3 176.7l35.9-6.6M220.5 180.5l25.5-4.4M221.4 188.9l7.8-1.5M221 196.5l9.3-1.4M221.6 202.7l8.9-1.3M222.8 210.4l8.8-1.5M223.4 217.5l8-1.5M236.5 186.5l8.4-1.8M239.4 207.8l10.2-1.8M239.8 214.9l10.9-1.8M189.7 221.3l3.3-1.6s.9 1.1 1.6 1.1c.7 0 3.5-1.1 3.5-1.1M192.4 224.6c1.8 0 5.1.2 5.1.2s.7-1.6 1.3-1.6M173.1 79.4l2-2.2s1.6 1.3 2.2 1.3 2-.4 2-.4M176.4 83.4l3.1-1.3M225.2 91.6s2.2-.7 2.9-.4 1.3.7 2 .9M226.5 96.1l5.3-.5"/></g><g id="Flats"><g id="Guy_2_1_"><path class="st7" d="M86.5 145c-4.5-4-7.5-7.9-2-24.6 7 .5 11.3-4 11.3-4l7.1-13.3s6.2-.8 9.5-6 9-13.3 4.3-19.6c-4.6-6.3-31.7-28.4-46-22.5S42.9 92 42.9 92c-1.7 5 1.5 14.8 2.2 21.6.7 6.8 2.3 22.6-.3 27.4-1.6 2.9-3.5 3.8-4.4 4.3"/><path class="st7" d="M40.4 145.3c-.6.4-.7.5.2 1 2.2 1.2 42.7 6.5 46.2-1l-.3-.3M178.9 236.3c-.3-3-1.7-5.2-1.7-5.2 1.7-5.2 1.7-6.7-2.7-11.5-4.3-4.8-6.2-13.6-18.5-12.3 4 4.7 6.2 7.1 6.2 7.1l-.3 6.2c-3.3 15.5-12.6 33.3-13.8 33.9 12.6 2.5 18.3 2.2 22.9-5.2s3.7-9.1 3.7-9.1c4-.3 4.5-.9 4.2-3.9zM7 236.9c.2.5 3 22.4 8.6 24.4 5.7 2 15.3-3.3 15.3-3.3l-1.7-16.8L7 236.9z"/><g><path class="st8" d="M162.5 216.79999999999998"/><path class="st9" d="M86.8 145.3c-2.5 2.8-10.9 4.1-20.6 4.1-9.7 0-20.7-1.2-28.1-3.2-8.4 3.8-16.8 4.9-21.9 12.2-5.1 7.3-15.3 74-15.3 74s13.4 8.6 28.4 8.9c2.1 18.1 5.2 73.1 5.8 84l87.7 3.5 4.9-84.8 14.6 17.3s5.1-4.2 11.5-16.2c5.6-10.5 8.6-21.8 8.6-28.2 0-.9-.1-1.6-.2-2.3-10-9.8-9.4-13.1-16.5-30.9-7.1-17.7-13.5-29-28.8-31.9-15.2-3-30.1-6.5-30.1-6.5"/></g><path id="Hair" class="st10" d="M42.7 28c-10.4-.2-18.8 4.4-18.8 18s6.7 24.2 6.7 24.2l3.1 24.6s.2 9.3 10.2 13.5c4.4 1.3 5.8 0 5.8 0 5.8 5.3 10.6 6.7 10.6 6.7-2.2-4.9-2.2-6.4-2.2-6.4 12.2 3.3 23.5 7.1 26.2 6 2.7-1.1 3.3-3.3 3.3-3.3l5.8 3.3 4.7 3.3s-2.7-10.4 1.1-18.8 5.1-15.3 5.1-15.3 10.6-2 14-6.4c3.3-4.4 2.9-7.5 6.7-8.6 3.8-1.1 6 2.7 8.4-4 2.4-6.7 1.8-20.4 1.8-20.4 3.5-10-5.1-32.4-20.8-42.1-.7 5.8-6.2 12-14.2 10S75.3 3.6 67.8 4.9 45.8 15.8 42.7 28z"/></g><g id="Guy_1_1_"><path class="st1" d="M346.5 76.1c-18.8-5.5-26.8-1.1-26.8-1.1-7.8 13.7-12.9 21.9-12.9 25.7-6.7 6.4-8.6 10.4-2.9 10.4-.7 4.2.7 7.3.7 7.3l9.8 2.7-9.3 4.4 4 10.4 12-2s2.7 12.6-4 19.5c-.7 7.1-2.4 17.1-2.4 17.1l1.6 6 9.5-16.4 8-.4 7.3-13.3 2.9-17.1s13.3-9.8 14-17.5 7.3-30.2-11.5-35.7zM272.4 194.2l-5.2-10.3h-5L228 149.6l-7.3-23.6-3.3-1.2-24.9-6.3-1.7 1s-.3 1.8.3 2.2c.7.3 14 7 14 7l-4.8 2.5-.7 2-3.3 1.7v2.7l.5 1.8-1.3 1.7s-.2 2 .5 2.2c.7.2 2.8.7 2.8.7l1.7 4.2s2.7 2 3.5 2 2.3-.2 3 .2c.7.3 2.5 2 3.2 2 .7 0 7.3 1 7.3 1s22.6 33.1 29.6 39.4c7 6.3 13 14.5 14.6 14 1.7-.5 9.3-3.3 9.5-4 .2-.7-.5-6.5-.5-7-.2-.8 1.7-1.6 1.7-1.6zM359.8 221.5c.5 0 17.1 7.1 17 6.3s-1.2-5.3-1.2-5.8-3.2-6.5-3.2-6.5c-1.3.2-14 3-14 3s.9 3 1.4 3zM383.9 259.4l-19-11.6 5.7 20-.2 9.8-6.8 14.1-4.2 10.3-1 2.8s1.3 1.8 1.8 1.7c.5-.2 3-.7 3.2-1.2.2-.5 4.3-6.5 4.3-6.5s.5 5.2.3 6c-.2.8-1.3 6.3-1.8 6.5-.5.2-2.8 1.2-3.2 1.7-.3.5-1.5 5-1.5 5l1.7 2-3.3 2.8s-.3 2.5.3 2.5c.7 0 3.8-1 3.8-1l7.1-7.6 7.3-10.8 4.7-23.4 2.2-8.1-1.4-15z"/><path id="Shirt_1_" d="M318.6 146.3l-5.5 2.8-4.8 6.8s-2.2-.3-3.3 0c-1.2.3-11.3 8.8-12 9-.7.2-27.6 15.3-27.6 15.3l7 14 18.3-.3 1 66s-4.5 33.1-4 33.1 30.3 3 30.3 3 17.8-1.5 17.8-2 6.7-7.1 6.7-7.1l4 5.7s5.7-1.2 5.7-1.7-2.8-19.5-2.8-28.3 2-24.9 2-24.9l5-19.5s12-1.8 12.6-2.2c.7-.3 7.6-2.5 7.6-3v-4.2l-10.3-37.1-5.7-6.8-10.6-6.3s2.7-4.7.5-8.1c-2.2-3.5-8.3-4.7-8.3-4.7s-2.7 5.7-6.2 7.5c-3.5 1.8-11.3 6.2-11.3 6.2l-8.5 18.8s-1.2-12.1-.8-13.3 1.7-5.3 1.7-6.7c0-1.3.1-4.8.1-4.8l1.4-7.2z" fill="#465671"/><path id="Hair_1_" d="M346.8 61.4l.5 6.3L324.9 54l.3 5.3-13.6-4.2 4.2 8.1-13 2.2 3.7 2.3-10 7.8s-2.7 3-1.7 3.2c1 .2 14.6-.2 14.6-.2l-2.2 4.5 18.3-4.5s1.3-1.5 9.3 2.7c3.3 2.7 6.5 5 6.5 5l-3.3 5.5-1.2 12.1-2.5 6.7 2.3 1.2s5-5.2 5.5-5.3c.5-.2 4.2-.2 4.2-.2l2.3 3s.8 3-1.3 4.5c-2.2 1.5-3.5 18.3-3.5 18.3l13.6-8.1 8.8-6.5s2-6.5 2-7.1c0-.7-.2-4.7-.2-4.7l4 .3-5.5-12-1.5-16.1-2 2.8-16.2-19.2z" fill="#383839"/><g><path class="st10" d="M342.4 286.8l-6.7 7.1s-14.1 2.5-14.8 2.5-31.1-2.7-31.1-2.7l-8.1 41.3 35.4 1.4 39 1.5c-.6-11-1.3-22.8-1.5-23.2-.3-.7-4-23.6-4-23.6l-4.3 1.2-3.9-5.5"/></g></g><path d="M446 146.2l-40.3 7.1s-8.6 38.6-20.2 54.1c-11.5 15.5-9.1 17.3-9.1 17.3l.4 3.2s12.5 15 14.5 48.9c1.6 26.9.1 53.1-.6 62.8l58.7 2.3c-1.6-6.8-2.9-14.6-2.5-21 .9-14.9 0-23.5 9.8-54.8 9.8-31.3 6.9-62.1 2.2-81.1-4.7-19.1-12.9-38.8-12.9-38.8" fill="#630006"/><path id="Mug" d="M326.7 208c-.9-7.5-2.2-11.7-13.3-14.9l-42.9 2.4 1.4 18.9s2.7 18.8 6 23.5c3.3 4.7 5.8 4.9 5.8 4.9l20.2-.9 2.9-8.4s7.3-.7 11.3-5.8 9.5-12.2 8.6-19.7zM315 220.6c-1.1 2.7-6.9 3.8-6.9 3.8l2-23.5s1.6-.9 3.3-.7 4.7 3.8 5.3 10c.7 6.2-2.6 7.8-3.7 10.4z" fill="#DFDFDF"/><path class="st5" d="M381.1 103.1c2.3 6.7 7.5 22.1 11.3 22.6 3.8.5 17.5-8.8 17.5-8.8s5.3 8.8 4.8 19.8-1.5 14.8-.8 14.6c.7-.2 28.9-4.2 28.9-4.2S440 131.4 440 130c0-1.3.8-20.1.8-20.1s29.1-64.5-25.6-65.2c-16.4-2.6-37.9 4-34.3 46.9-4.3 4.7-9.3 14 .2 11.5zM426.5 167.4c-10 2-17.7 7.8-18.2 25.3-.4 17.5-2.7 47-2.7 47l-45.8-18.2-13.3-15.5-2.2-4-8.6-2.2-4.9.2-3.1 2.4-11.1-.2-4.4.4-2.9 2.2 1.6 3.5 13.1 4.9-.2 4.2.2 5.8 2.7 9.8 11.3 4.2s12.7.4 13.4.3c.6-.1 49.6 32.7 49.6 32.7l20 10.9 2.4-2.9 16.8-68.5s5.1-22.2 3.5-27.9c-1.7-5.7-3.7-15-17.2-14.4z"/><path id="Hair_2_" d="M387.9 38.9l-7.3 1.1-4.7 7.8-.4 12.9 4.7 9.5 4.2-9.1 5.3-7.5 3.5 10s7.3 12.2 14.2 15.7c6.9 3.5 13.3 5.1 13.3 5.1l6.4-4.7s3.3-1.8 4 .4c.7 2.2 3.3 4.4-.2 10.9-3.5 6.4-6.2 6.7-6.2 6.7l3.5 5.8 12.5 6.5 3.9 7s4.7 21.7 3.3 31.5c7.3 20.4 14.2 43.7 14.4 57 8-6.2 16-17.3 16-41.9s-6.4-41.2-18.2-53.6c-2.7-4.7-11.5-10-11.5-10 8-17.5 10.6-24.2 8.4-34.8-2.2-10.6-11.1-25.9-21.3-30.4-10.2-4.4-18-5.5-28.2-2.4s-16.4 7.3-16.4 7.3l-3.2-.8z" fill="#678F9E"/><path d="M442.3 110.2c3.5-3.4 7.1-7.2 7.8-8.9" fill="none" stroke="#F9F9F9" stroke-width="3" stroke-linecap="round" stroke-linejoin="round" stroke-miterlimit="10"/></g><g id="Lines"><path class="st17" d="M267.1 183.8l-3.4.4-35.5-34.5s-4.5-12.4-6.1-18.3c-1.6-5.9-3.2-6.5-5.1-6.7s-17.2-4.9-20.1-5.7c-2.9-.8-5.3-1.3-6.2-.2s1.2 3.7 9 7.3c7.8 3.7 11 5.7 11 5.7"/><path class="st17" d="M211.4 130.4c.2 1.2 1.6 6.7-1.2 6.4-7.9-.8-15.1 1.9-15.3 4.2-.1.8 1.3 3.1 4.9 3.3 2.2.1 4.8-.2 6.9.4 1.4.4 3.4 2.8 5.4 3.4 3.6 1.1 6.3 1.1 7.1.7M206.3 129.6c-4.2-.1-7.2 1.2-6.7 3.8s.8 3 .8 3M196.5 138.3c-1.1-2-.9-2.1-.3-3.1.3-.6 2.8-2.1 2.8-2.1M199.6 145.2c.3 1.4 2.3 4.5 3.2 4.5s1.8.3 3.9.1c2.2 2.2 8.9 3.7 11.1 3.3 27.2 38.9 37.5 48.6 44.1 53.8 4.1-1.8 8.3-4 8.3-4M342.7 135.4c-.9 5.6-1.8 11-1.8 12.8"/><path class="st18" d="M344.9 121.8c-.2 2.3-1.2 8-2.2 13.6"/><path class="st17" d="M315.9 81c-4 7.1-8.4 14-9.8 20.6-4 3.3-9.6 8.9-1.7 9.3-.8 2.1-.5 7-.5 7 3.8 1.7 11.3 3.2 11.3 3.2-3.5 1.4-10.1 4.4-10.1 4.4.1 2.3 3.9 8.5 4.4 10.6 4.7.2 22.1-6.9 26.2-12.3M320.2 145.7c1.4-5 1.8-10.9.2-12.1"/><ellipse transform="rotate(-73.022 314.162 99.794)" cx="314.2" cy="99.8" rx="3.2" ry="1.7" fill="#34484F"/><path class="st17" d="M319.4 92.8c-1.1-1.4-3.7-3.1-4.8-3.1M364.5 247.6c2.8 9.8 7.3 17.2 6.8 29.3-7.5 10.6-9.3 17.5-10 20.8-.7 3.3-3.5 6.8-3.4 7.4.1.7 3.5 2.2 5-.1s5.3-8 5.3-8 .4 3.1.2 7.1c-.2 4-2.9 12.6-3.8 14.2-.9 1.6-2.7 2.8-3.7 3.9s-1.3 4.9 2.1 2.5 6.1-4.9 6.5-6.3c.4-1.4 7.2-9.8 8.4-12 1.2-2.2 1.9-7 2.8-13.5.9-6.5 3.9-12 4-15.2.1-3.2-.4-17.6-.4-17.6"/><path class="st17" d="M366 311.4c-2.1.3-3.7 2.5-3.1 3.8-1.6 1.1-2 3-.3 3.9 1.7.9 2.1-.8 2.1-.8M372.9 215.7l3 6.3"/><g><path class="st20" d="M316.6 152.6c1.5-1.2 2.7-3.9 3.5-6.9M330.2 157.1c7-3 11.9-10 12.6-11.9 7.2 2.4 9.3 5.5 7.8 12.3-1.6 6.8-6.6 10.5-6.6 10.5M339.3 173.4c-1.8-4.4-6.3-15.5-13.7-13.5-8.1 16.2-9.3 19.5-9.3 19.5-1.4-9.8-.9-19.4-3.1-20.7-3.8 4.8-7.5 8.5-8.5 8.6M307.1 159.3c1.6-6.7 7.4-12.5 12.1-13.5M319 181c-2.9-.1-6.5-.4-6.5-.4M351 158.9c7.4 4.3 15.5 9.9 15.9 14.4s6.9 27.6 8.3 31.3c1.4 3.7 1.6 5.5 1.2 8.2-.3 2.7-19.4 5.9-19.4 5.9M307.1 155c-3 .2-12.2 8.9-15.5 10.2-3.3 1.3-24.5 14.2-25.5 14.5-1 .3 5 13.7 7.1 15.2M291.8 182.3c-.4 3.2-.2 10.4-.2 10.4M352.9 291.3c-4.2-17.1-3.7-37.5-3.5-41.9.1-4.4 1.9-11.7 1.9-11.7M291.8 243c-.6 15.1 1 17.4-1.3 28.4s-3.2 21.7-3.2 21.7M315.8 152.8c2.1 2.3 1.2 11.3-.6 16"/></g><g><path class="st18" d="M325.2 78.8c-6.9.4-15.5 3.1-17.7 4.4M309.4 78.5c-2.4.2-12-.4-14.4.4-2.4.9 6.4-10.2 16.8-10.6-5.8-.4-14-2.2-14-2.2 17.1-1.8 18.2-2.2 18.2-2.2-4.7-5.5-5.3-9.3-5.3-9.3 6.7 3.3 14.6 6.4 14.6 6.4l-1.3-8.2c11.7 9.8 23.1 14.9 23.1 14.9M345.8 60.1c3.3 4.2 17.5 21.7 17.5 21.7l2.4-6.9.7 18.8M367.7 96.7l4.7 10.2-4.9-2s2.9 7.8-1.8 12.4c-4.7 4.7-22.8 14.6-22.8 17.5M331.4 79.6c4.4 1.6 9.8 6.2 9.8 6.2l-3.5 7.1s.2 14.2-3.5 17.3l3.1 2c2.7-4 6.2-7.3 9.3-6.2s3.8 5.1.4 8c-3.3 2.9-6.9 4.7-9.1 4.4"/></g><g><path class="st21" d="M315 334.6l-.5 1.9h1.1c-.2-.7-.4-1.3-.6-1.9M289.7 293.2h-.1c-.8.1-1.4.8-1.4 1.6.2 2.3-3.6 21.6-7.4 40.3l3 .1c3.4-16.4 7.6-37.7 7.4-40.6-.1-.8-.7-1.4-1.5-1.4M309.2 304.3h-.2c-.8.1-1.4.9-1.2 1.7.8 4.9 4 16.7 7.3 28.5.2.6.4 1.3.5 1.9l3.1.1c-3.5-12.6-7.2-25.9-8-31.1-.1-.6-.8-1.1-1.5-1.1M350.9 290.3c-.1 0-.3 0-.4.1-.8.2-1.3 1-1.1 1.8 1.6 6 3.7 17.6 4.2 38.7.1 2.6.1 5 .2 7.1l3 .1c-.1-2.2-.2-4.7-.2-7.3-.4-17.2-1.8-30.4-4.3-39.4-.1-.7-.8-1.1-1.4-1.1"/></g><path class="st22" d="M287.3 293.1c26.6 2.9 35.7 4.4 47.8 1.1 4.7-2.9 7.1-8.5 7.1-8.5 1.4 2.4 4 7 4 7 2.2-.7 6.8-1.4 6.8-1.4"/><g id="Guy_2"><path class="st22" d="M59.1 114.9c-9.8-3.5-19.5-18.6-19.5-18.6"/><path class="st23" d="M127.4 241c-.9 0-1.5.7-1.5 1.5.2 9.4-3.3 63.2-4.8 86.2l3 .1c1.5-23.1 5-76.7 4.8-86.4 0-.8-.7-1.4-1.5-1.4M25 206.5c-.2 0-.3 0-.5.1-.8.3-1.2 1.1-.9 1.9 5.2 15.4 10.1 96.5 9.9 116.7l3 .1c.2-21-4.6-101.6-10-117.8-.3-.6-.9-1-1.5-1"/><path class="st24" d="M7.3 236.6c1.8 14.9 6.4 24.4 9.1 24.8s14.4-3.1 14.4-3.1M95.4 116.4c-1.3 2.6-3.9 4-3.9 4l-7.1-.2s-6.4 17.1-.7 22.4c.5.5 1.2 1 2 1.4M117.7 78.8c3.3 3.1-.2 12-3.8 17.1-3.5 5.1-8.6 8.9-11.1 6.7-1.3 1.9-3.1 6.5-5.1 10.4M43.8 109.4c3.8 8.4 2.4 27 .7 32.1-.3.9-1.4 1.9-2.9 2.9M162.7 220.9c4.9 3.8 12.9 16 11.3 22.4-1.6 6.4-8.2 13.7-14.6 13.3-5-.3-9.4-1.2-11.2-1.6M173.6 233.9c3.9-2.4 5.3-4.8 4.5-7.6-.8-2.9-9.4-14.3-11.5-16.3-2.1-2-10.2-2.9-10.2-2.9M168.9 226.7c3.8-.8 6.2-4.5 4-8.6M177.3 231.7c2.8 3.5 3.7 8.8-2.2 8.5"/><path class="st25" d="M86.2 146.2c-4 6.7-38.6 3.1-46.1.2"/><path class="st22" d="M52.7 31.1c20-21 40.9 9.3 56.9.7"/><path class="st25" d="M85.7 144c7.4 4.4 24.4 6.6 30.8 7.6 7.1 1.1 19.3 8 23.3 17.3s10.4 26.6 13.3 33.9c2.9 7.3 8.9 11.5 8.9 11.5.7 27-19.7 46.6-19.7 46.6-8.9-11.1-26.2-33-26.2-33M41.6 144.4c-4.2 2.8-11.9 6-18.1 8.3-5.7 2.2-9.9 7.1-11.2 13.1-.6 2.9-1.2 6.3-1.8 9.6-1.6 9.8-9.1 54.1-9.1 57.4 0 3.3 19.7 8 27.7 8.4"/><path class="st22" d="M43.4 27.1C46.7 16.5 60.9 4 72 5.2s20.4 6.7 28.4 7.3 15.5-5.7 13.5-11c10.4 6.4 26.7 28.4 21 42.6 0 10 1.4 23.3-6.3 23.9-7.8.7-7.3 5.3-10.3 8.3-3.9 3.9-13.9 7.1-13.9 7.1s-8.9 23.9-6.4 32.1c2.4 8.2-10-9.1-10.9-2.9-.9 6.2-28.8-4.2-28.8-4.2M47.8 109.8c-5.8-.7-13.1-8.2-14.4-14.4-1.3-6.2-1.4-21.6-4.2-27-13.1-25.3-2-41.2 14-40.8"/></g><g id="Woman"><path class="st20" d="M380.6 70.2c-7.8-4.7-6.2-28.4 1.9-30.7 6.9-2 8.3 0 8.3 0"/><path d="M325.6 201.6c.1-3.7-7.2-8.6-15-9.2-12.1.4-40.3 2.7-40.3 2.7.7 25.9 8.1 45.6 10.1 47.4 12.7-.1 23.2-.3 23.2-.3 1.1-2.2 2.5-4.4 3.3-9.2 5.5-.4 12.5-6.4 14.7-9.3 1-1.3 1.2-2.2 1.7-3.6m-13.2-16.5c.1-1.1.1-2.2.2-3.3 3.2-.1 5.4.6 6.8 1.7m1.8 9.8c-.4 1.6-1 3.2-1.4 4.4-1.7 4.4-4.8 7.6-9.2 8.7.6-4.3 1.2-9.8 1.6-16.9" fill="none" stroke="#18263E" stroke-width="3" stroke-linecap="round" stroke-linejoin="round" stroke-miterlimit="10"/><path class="st20" d="M440.8 110.4c-.3 5.8-1.4 28.1 1.2 35.2M381.7 102.1c3.2 13.6 8.9 23.8 11.1 23.9 8.4.2 27.2-18.8 28.5-22.3M389.8 52.5c-9.6 11-11.4 25.7-9.9 39.2"/><path class="st20" d="M379.9 91.7c-3.3 4.2-5.8 10.7-2.2 11.2 1.5.2 2.9-.2 4.1-.7"/><ellipse class="st9" cx="388.5" cy="82.3" rx="2.3" ry="4.4"/><path class="st20" d="M391.9 72.2c-2.4-1.1-4.8-.8-5.8-.4M396.3 107.7c-5.3 3.4-11.5 5-11.5 5M398.9 108.1c-.8-2-4.6-3.5-4.6-3.5M409.6 117.6c3.9 2.4 7.5 26.6 3.7 34.4M420.6 84.4c-7.8.1-20.8-9.6-26.5-19.7s-4.3-22.8-3.3-25.2c1-2.3 20.7-11 34.4-9.1 13.6 1.9 35.6 21.5 32.3 45.2S440.9 109 440.9 109s0 .5-.1 1.4M440 109.9c-12-4.2-14.4-9.6-14.5-11.1M450.9 101.1c10.3 6.7 32.9 35.7 38.7 63.8M448.2 148.7c-.2-16.7-2.2-33.9-7.1-38.9M469.4 121.7c7.8 19 17.8 64.8-7.2 85.1M449.9 105.6c-2.7 3.7-6.7 6.5-6.7 6.5"/><path class="st20" d="M426.7 79.6c2.9-2.4 7.1.4 5.8 6.9-1.3 6.4-4.9 11.7-9.5 11.5"/><g><path d="M376.9 227.3s-1.3-2.5 0-6.3c13.6-17.8 27.9-57.4 28.4-67.8 0 0 23.6-3.2 40.9-7.1" fill="none" stroke="#310003" stroke-width="3" stroke-linecap="round" stroke-linejoin="round" stroke-miterlimit="10"/><path class="st28" d="M446.4 144.3c-.2 0-.4 0-.6.1-.8.4-1.1 1.2-.7 2 2.2 4.7 21.3 47.4 15 92.8-3.5 24.9-6.8 36-9.5 44.8-2.2 7.2-3.9 12.8-4.7 22.9-.9 10.7 1.1 23.9 3.3 34.9l3.1.1c-2.3-11-4.3-24.3-3.5-34.7.8-9.8 2.5-15.3 4.6-22.3 2.7-9 6.1-20.2 9.6-45.3 6.4-46.2-13-89.7-15.3-94.5-.2-.5-.7-.8-1.3-.8M389.7 263h-.2c-.8.1-1.4.9-1.3 1.7 3.2 22.8 4 53.9 1.1 74.7l3 .1c2.5-18.7 2.8-47.3-1.1-75.2-.1-.7-.8-1.3-1.5-1.3"/></g><path class="st20" d="M411.2 243.3c-10.9-5.8-48.3-20.8-51.2-22.2-2.9-1.3-13.7-14.2-14.4-16.8-.2-.8-1-1.6-2-2.2-2.1-1.4-6.4-2.3-9.5-2.2-1 0-1.9.3-2.7.7l-3.5 1.7s-11.1-.3-13.1-.4c-6-.6-7.2 6.8-2.1 8 7.2 1.7 11.6 3.4 11.6 3.4-1.2 1.2-2.8 6.7-.1 8-.4 2.2-1.1 5.8 1.1 7.3-.2 3.3.7 5.3 3.2 6.2 3.1 1.1 7.7 2.2 13.5 2.7 7.1.5 9.1-.2 9.1-.2s65.8 46 70.4 43.5 18-65.4 21.3-84.2-3.5-29.7-15.1-29.3c-9.6.4-21.1 9.5-19.7 28.2 1.3 18.6-2.7 44.6-2.7 44.6"/></g></g></svg>