<svg xmlns="http://www.w3.org/2000/svg" viewBox="0 0 481.02 411.02"><defs><mask id="mask" x="275" y="83.8" width="131.02" height="97.1" maskUnits="userSpaceOnUse"><path class="cls-1" d="M278.99 83.8L275 152.64l123.71 28.26 7.31-85.46L278.99 83.8z"/></mask><mask id="mask-2" x="219.8" y="140" width="105.08" height="104.75" maskUnits="userSpaceOnUse"><path class="cls-1" d="M224.46 140l-4.66 64.18 98.43 40.57 6.65-80.81L224.46 140z"/></mask><mask id="mask-3" x="318.23" y="163.94" width="140" height="131.69" maskUnits="userSpaceOnUse"><path class="cls-1" d="M324.88 163.94l-6.65 80.81 131.02 50.88 8.98-100.43-133.35-31.26z"/></mask><style>.cls-1{fill:#fff}.cls-2{fill:#d2ecf3}.cls-3{opacity:0}.cls-4{fill:#efefef}.cls-5{fill:#bedde8}.cls-6{fill:#26344e}.cls-8{fill:#bebebf}.cls-9{fill:#383839}.cls-11{fill:#678f9e}.cls-15{fill:#34484f}.cls-16{fill:#95b8c5}.cls-19{fill:#dfdfdf}.cls-20{fill:#465671}.cls-21,.cls-22,.cls-23,.cls-24,.cls-28,.cls-29{fill:none;stroke-linecap:round;stroke-linejoin:round;stroke-width:3px}.cls-21{stroke:#121c2f}.cls-22{stroke:#678f9e}.cls-23{stroke:#95b8c5}.cls-24{stroke:#18263e}.cls-27{fill:#94000a}.cls-28{stroke:#9e9e9f}.cls-29{stroke:#383839}</style></defs><path class="cls-2" d="M233.77 225.13l158.85 71.72A204.58 204.58 0 00414 205.51C414 92 322 0 208.49 0S3 92 3 205.51a207.84 207.84 0 001.4 23.94c75.28-1.13 229.37-4.32 229.37-4.32z" id="Background"/><g id="Flats"><path class="cls-3" d="M304.7 387.16c-1.18.62-2.36 1.24-3.56 1.84l4.39-1-.83-.84"/><path class="cls-4" d="M221.8 275.34l-149.65 28.6 74.69 97.67a205.22 205.22 0 0061.65 9.39 207.73 207.73 0 0026.79-1.73l-80.32-99 67.17-15.63 87.79 89.66a205.83 205.83 0 0031.19-21.78c-51.92-38.12-119.31-87.18-119.31-87.18"/><path class="cls-2" d="M256.76 399.16l-5.76-6.77 13.81-3.16 6 6.71-14.05 3.22m17.39-4l-6-6.72 13.78-3.15 6.23 6.66-14 3.21m-25.33-5.37l-5.76-6.76 13.48-3.03 6 6.71-13.72 3.14m17.06-3.9l-6-6.71 13.45-3.08 6.23 6.66-13.69 3.13M283 382l-6.23-6.65 13.41-3.07 6.47 6.6L283 382m-42.07-1.53l-5.76-6.77 13.16-3 6 6.72-13.39 3.06m16.73-3.83l-6-6.71 13.12-3 6.23 6.66-13.36 3.05m16.74-3.83l-6.22-6.66 13.08-3 6.46 6.6-13.32 3.05m-41.42-1.68l-5.75-6.77 12.77-2.93 6 6.71-13.07 3m16.41-3.76l-6-6.71 12.79-2.93 6.23 6.66-13 3m16.42-3.75l-6.25-6.65 12.75-3 6.47 6.61-13 3M225 361.79l-5.76-6.79 12.5-2.86 6 6.71-12.74 2.94m16.08-3.68l-6-6.72 12.47-2.85 6.22 6.66-12.7 2.91m16.09-3.68l-6.23-6.66 12.42-2.84 6.47 6.6-12.66 2.9m-40.11-2l-5.75-6.76 12.17-2.79 6 6.71-12.41 2.84m15.75-3.6l-6-6.71 12.19-2.77 6.22 6.66-12.37 2.83m-39.1-2.21l-5.52-6.82 11.88-2.72 53.55 62.51-.34.09.19.22-6.72 1.54-7.1 1.92-.2-.25h-.07l-5.51-6.83h.06l-2.1-2.6h-.06l-5.51-6.82h.05l-2.1-2.59-5.52-6.82-2.1-2.6-5.63-6.8-2.1-2.59-5.51-6.82-2.1-2.6-5.52-6.82-2.1-2.59m54.86-1.4l-6.23-6.65 12.1-2.77 6.46 6.6-12.33 2.82m-39.45-2.13l-5.75-6.77 11.84-2.71 6 6.72-12.08 2.76m15.42-3.53l-6-6.71 11.81-2.7 6.23 6.66-12.05 2.75m-38.45-2.36l-5.51-6.82 11.55-2.65 5.75 6.77-11.79 2.7M240 336l-6.23-6.66 11.77-2.69 6.46 6.6-12 2.75m-38.79-2.28l-5.79-6.72 11.51-2.63 6 6.71-11.75 2.69m15.09-3.46l-6-6.71 11.48-2.6 6.23 6.66-11.72 2.68m-37.79-2.51L173 321l11.22-2.57 5.75 6.77-11.46 2.62m52.89-.94l-6.23-6.66 11.44-2.62 6.47 6.61-11.68 2.67m-38.13-2.44l-5.76-6.76 11.19-2.56 6 6.71-11.42 2.61M208 321l-6-6.72 11.15-2.55 6.23 6.66L208 321m-37.13-2.67l-5.52-6.82 10.9-2.49 5.75 6.77-11.13 2.54m51.9-.71l-6.24-6.62 11.11-2.54 6.47 6.6-11.35 2.6m-37.48-2.59l-5.75-6.77 10.86-2.48 6 6.71-11.1 2.54m14.44-3.3l-6-6.71 10.82-2.48 6.23 6.66-11.06 2.53m14.44-3.31l-6.23-6.65 10.79-2.47 6.46 6.6-11 2.52m8-13.83L155 310.26l80.32 99c2.71-.35 5.4-.76 8.09-1.22l-1.9-2.34 14.18-3.24 2.19 2.57c1.08-.27 2.16-.54 3.23-.83l-2.12-2.5 14.14-3.23 1.49 1.66c1-.34 2.05-.7 3.07-1.06l-1.22-1.37 11.53-2.6q6.72-2.82 13.19-6.1l-9.59 2.2-6.23-6.66 13.74-3.15 5.64 5.77c1.75-.93 3.5-1.89 5.22-2.87l-87.79-89.66"/><path class="cls-5" d="M200.06 337.09l-11.88 2.72 5.51 6.82h.01l2.1 2.59h-.01l5.52 6.83.02-.01 2.1 2.6h-.02l5.51 6.82h.03l2.1 2.59-.03.01 5.51 6.82.04-.01 2.1 2.6-.04.01 5.52 6.82.04-.01 2.11 2.59-.05.02 5.51 6.82.06-.02 2.1 2.6-.06.01 5.51 6.82.07-.01.2.25 7.1-1.92 6.72-1.54-.19-.22.34-.09-53.55-62.51M215.2 333.62l-11.84 2.71 5.75 6.77 12.08-2.76-5.99-6.72M248.28 370.69l-13.16 3.01 5.76 6.77 13.39-3.06-5.99-6.72M264.82 389.23l-13.81 3.16 5.75 6.77 14.05-3.22-5.99-6.71M223.47 342.89l-12.17 2.79 5.75 6.76 12.41-2.84-5.99-6.71M281.21 363.16l-13.08 2.99 6.22 6.66 13.32-3.05-6.46-6.6M240.01 361.43l-12.83 2.93 5.75 6.77 13.07-2.99-5.99-6.71M256.55 379.96l-13.49 3.09 5.76 6.76 13.72-3.14-5.99-6.71M273.09 398.5L259 401.73l2.12 2.5q6.85-1.8 13.51-4.07l-1.49-1.66M290.13 372.28l-13.4 3.07 6.22 6.65 13.65-3.12-6.47-6.6M299.06 381.39l-13.74 3.15 6.23 6.66 9.59-2.2c1.2-.6 2.38-1.22 3.56-1.84l-5.64-5.77M231.74 352.16l-12.5 2.86 5.75 6.77 12.74-2.92-5.99-6.71M288 395.1l-11.52 2.63 1.22 1.37q5.22-1.87 10.3-4M273.34 376.12l-13.45 3.08 5.99 6.71 13.69-3.13-6.23-6.66M256.14 357.74l-12.79 2.92 5.99 6.71 13.03-2.98-6.23-6.65M264.74 366.93l-13.12 3 5.99 6.71 13.36-3.06-6.23-6.65M281.94 385.31l-13.78 3.15 5.99 6.72 14.02-3.21-6.23-6.66M206.93 324.36l-11.51 2.63 5.75 6.77 11.75-2.69-5.99-6.71M221.75 320.96l-11.48 2.63 5.99 6.71 11.72-2.68-6.23-6.66M213.15 311.77L202 314.32l5.99 6.72 11.39-2.61-6.23-6.66M198.66 315.09l-11.19 2.56 5.76 6.76 11.42-2.61-5.99-6.71M238.95 339.35l-12.14 2.78 5.99 6.71 12.37-2.83-6.22-6.66M247.54 348.54l-12.46 2.85 5.99 6.72 12.7-2.91-6.23-6.66M230.35 330.16l-11.81 2.7 5.99 6.71 12.05-2.76-6.23-6.65M255.65 402.49l-14.18 3.24 1.9 2.34q7.32-1.24 14.47-3l-2.19-2.57M236.57 317.57l-11.44 2.62 6.23 6.66 11.68-2.67-6.47-6.61M218.72 299.34l-10.79 2.47 6.23 6.65 11.02-2.52-6.46-6.6M245.5 326.69l-11.77 2.69 6.23 6.66 12-2.75-6.46-6.6M227.64 308.46L216.53 311l6.23 6.66 11.35-2.6-6.47-6.6M272.28 354.04l-12.75 2.92 6.22 6.66 13-2.97-6.47-6.61M254.43 335.81l-12.1 2.77 6.23 6.65 12.33-2.82-6.46-6.6M263.35 344.93l-12.42 2.84 6.23 6.66 12.66-2.9-6.47-6.6M176.24 309.06l-10.9 2.49 5.52 6.82 11.13-2.54-5.75-6.77M192.12 327.74l-11.55 2.65 5.51 6.82 11.79-2.7-5.75-6.77M184.18 318.4l-11.22 2.57 5.51 6.82 11.46-2.62-5.75-6.77M190.39 305.82l-10.86 2.48 5.75 6.77 11.1-2.54-5.99-6.71M204.55 302.58l-10.82 2.48 5.99 6.71 11.06-2.53-6.23-6.66"/><path class="cls-6" d="M60.85 14.85c12.41-10.42 51.87-6 73.38.23s43 30.59 42.78 52.09 6 104.64 17.07 126.59c-23.94-2.22-57.64-8.2-57.64-8.2L95 178.69S48.87 145 48.65 142.77 36 35.47 36 35.47z"/><g id="Skin"><path class="cls-2" d="M114.5 176c-6.43-.67-15-2.17-22.32 8.18 0 0-3.84 7.33-5.4 10.22a57.23 57.23 0 00-2.66 5.76 158.05 158.05 0 00-6.65 21.95c-1.77 8.64-15.74 8.64-19.28 8.64s-37.47-.66-38.58-2.21-5.32-9.31-5.32-9.31l1.33-6.66s10.64-20.83 13.3-31c0 0 11.09-20.84 12.2-37.69S18.06 80 32.91 64.73 51.31 27.27 85 29.93s51.32 14.3 51.32 14.3c11.39 4.41 34 25.87 26.7 71.28 6.17 15.21 7.88 24.23 3.23 25.15a84.77 84.77 0 01-10 1c-1.13 3.31-2.48 7.06-4 11-12.53-1.17-27.92-5-27.92-5 5.8 7.57 17.72 14.17 23.14 16.92-4.74 11.12-9.94 21.17-13.83 23.65-7.31 4.65-52.54-35.58-57.53-62.85"/><path class="cls-3" d="M64.11 305.35"/><path class="cls-2" d="M64.23 305.35H64a63.88 63.88 0 00-8.81.59 50.49 50.49 0 00-21.33 8 206.45 206.45 0 0070.66 68.91c3.47-28.15 7.21-59.91 7.21-59.91-13.82-12.44-32-17.53-47.5-17.55M107.07 265.7c1 0 27.93.17 31.92-.5s14.3-11 20.12-11.3 45.39 1.33 45.39 1.33l-3.32 6.77 4.49 2.83.83 3.66-3.66 5.65-3.16.5s.67 3.49 0 5.65-3.66 5.16-6 5.32c-.67 3-3 6.49-6 6.32-1.66 5.16-2.83 7.32-6.15 6.82s-15.13-2.33-15.63-3.83c-4.82.84-23.11-.66-28.6-1.16-22.11 3-24.11 3.66-24.11 3.66s-.83-11.31-1.66-18.29a41.31 41.31 0 00-4.46-13.43z"/></g><path class="cls-6" d="M129.57 38.57C95 17 72.15 12.64 47.21 16.63S8.3 46.89 10.08 64.07c2.41 23.32 6.65 54.65-6.32 82.91-5 8-.83 18.72 3.88 22.62 15.52 12.85 86.79 33.58 95.77 35.91-11.14-18.43-29.6-54.83-35-82v-.11c-5.1-6.3-5.14-21.17-3.92-27.27 1.46-7.27 7.76-8.18 14.44-4.28l.09-.26C95 89.8 160.83 58.08 129.57 38.57z"/><path class="cls-3" d="M11.93 206.14"/><path d="M12 206.14h-.11a53.52 53.52 0 00-5.89.37 18.56 18.56 0 00-3 .58 204.65 204.65 0 0031 107 58.19 58.19 0 0130.84-8.52c22.61 0 25.6 5 46.89 17.29 4.65-27.6-1.67-41.24-3-50.88s-13-25.94-13-25.94-7.65-15-22.28-24.61C65.48 216.2 58.37 215 51 215c-6.13 0-12.47.82-19.7.82-16 0-15.63-3.22-15.63-3.22l1.66-5.76s-1.22-.7-5.3-.7" fill="#c6000d"/><path class="cls-8" d="M223.79 56.87l-8.98 166.26 238.44 113.4 26.26-261.71-255.72-17.95zM371.6 299.3l-61.21-29.61c1.1 4.36 3.27 7.41-54.9 8.91a2.63 2.63 0 00-1.43 4.83c16.21 10.72 47.52 30.68 60.26 38.78a13.71 13.71 0 0011.89 1.35c33.54-11.81 33.6-12.45 39.33-14.87 6.06-2.56 6.92-6.26 6.06-9.39z"/><path class="cls-4" d="M227.78 69.17v8.31l241.09 24.94 1-13.3-242.09-19.95z"/><path class="cls-9" d="M226.78 78.15s-4 61.52-2.32 61.85 50.88 14.3 50.54 12.64 4-68.84 4-68.84zM406.02 95.44l-7.31 85.46 59.52 14.3 10.64-92.78-62.85-6.98z"/><path fill="#95c0d1" d="M278.99 83.8L275 152.64l123.71 28.26 7.31-85.46L278.99 83.8z"/><path class="cls-11" d="M324.88 163.94l-6.65 80.81 131.02 50.88 8.98-100.43-133.35-31.26z"/><path class="cls-2" d="M224.46 140l-4.66 64.18 98.43 40.57 6.65-80.81L224.46 140z"/><g mask="url(#mask)"><g id="Head_1" data-name="Head 1"><path class="cls-9" d="M325.77 145.43c-6.65-.22-16.63-.66-21.5 4.88s-1.56 8.64-1.56 8.64L361 172.48c1.77-9.09-13.3-20.4-14.63-21.06s-9.09-4-9.09-4z"/><path class="cls-1" d="M353.37 124.07c-1.16 11.8-9.54 20.63-18.7 19.73s-15.66-11.2-14.5-23 9.54-21.7 18.71-20.79 15.65 12.27 14.49 24.06z"/><path class="cls-1" d="M339.52 148.76c.44-.77 1.55-8.21 1.55-8.21l-15.3-2.88a93.82 93.82 0 00-1.11 9.76c0 2.88 11.09 7.76 14.86 1.33zM351 121.27c3.33-.45 5.77 4.43 2 10.19s-4.88-.66-4.88-.66zM321.78 116c-.89-.67-2 2-2 2s-1.77 5.1-1.1 7.1 3.1 2.43 3.32 1.77-.22-10.87-.22-10.87zM386.81 148.55c-.35-.24-1 0-1.35.43l-6 6.93h-.43l.07-.57 6.48-9.67c.3-.41.57-.86.22-1.24l-.15-.16c-.53-.58-1.17-.4-1.62.23l-6.82 8.79h-.32l-.09-.49 6-12.31c.24-.42.38-1.07-.05-1.33h-.24a1.1 1.1 0 00-1.52.38l-6 11.17-.51.07v-.73L377.3 139a1 1 0 00-.64-1.1 1.11 1.11 0 00-1.49.66c-.64 2.33-2.7 8-3.9 11.79a4.38 4.38 0 01-1.87 2.07c-.37.09-1.43-.11-1.65-.72-.68-1.9-1.37-3.94-1.64-4.84-.57-1.88-1.82-3.51-2.49-1.45-.34 1.06.05 3.67.51 6.63a20.17 20.17 0 01.21 4.11l-.23 4.11a7.89 7.89 0 002 5.61l1.42 1.64 6.3-1a6.76 6.76 0 005.74-5.22s.59-2.12.67-2.23l6.29-9.09c.35-.48.64-1.18.28-1.42z"/><path class="cls-1" d="M365.45 159.12c-.49.5-.66 4.32-.66 4.32l-11.14 15.8s15.63-1.66 15.46-2.33 7.48-13.63 7.48-13.63z"/><path d="M328.87 97.55l6.88-4.22.22 2.22 10.64-1.33-1.55 3.33 7.09 1.55-1.33 2.21 6.21 2.22-2.66 3.55 3.55 3.1-2.92 4.21 2.89 3.33-3.33 2.44-1.22 3.91-2.1 2.07.66-7.31-.44-7.1s-8.21-1.33-9.09-1.33-7.54-2-7.54-2l-6.65-2.66-4.18 5.55-3.83 9.52s.28-4 .28-4.64-.44-3.77-.44-3.77l2.88-3.77-2.22-2.63 3.55-2.66-.89-4.43 2 .22.44-5.55z" fill="#9e9e9f"/></g></g><g mask="url(#mask-2)"><g id="Head_2" data-name="Head 2"><path class="cls-15" d="M273.89 159.18c5.5-1.14 14.41 1.1 16.41 5.54s10.86 18.18 2.66 29-9.53 18.4-6.43 23.72a9.76 9.76 0 01-8-6 31.82 31.82 0 00-3.1 4.21c-6.43-6-17.07-14.41-15.08-21.28s1.79-32.76 13.54-35.19z"/><path class="cls-16" d="M288.06 189.66c-2.12 12.93-16.22 20.76-24.86 19.34s-13.79-12.4-11.68-25.32 12-22.07 22.11-20.42 16.55 13.47 14.43 26.4z"/><path class="cls-16" d="M258.6 202c-.67 1.78-1.55 12-1.55 12l10.64 3.77 3.77-11.08z"/><path class="cls-15" d="M273 163.54a18.19 18.19 0 00-11.3.33c-2.51.92-5.24 2.27-6.84 4.17a16.8 16.8 0 00-3.55 9.76c22.84 5.54 33 7.09 33 7.09 2.02-7.24 4.76-16.68-11.31-21.35z"/><path class="cls-15" d="M276.11 161.61l9.76 6-5.1 3.33.66 10.64 5.77 2.66.44 8.64s3.1-5.76 3.1-7.09-1.33-9.31-1.55-10.2 0-8.64 0-8.64l-9.31-6.66z"/><path d="M269.22 213.24c-1.77 2.22-12.56 2.22-11.68-4-2.53-.48-3.6 4.46-3.6 4.46-8.42-2.88-14.19-6.2-19.06-2.66 24.38 9.31 51.43 19.73 51.43 19.73.22-4.65-15.74-12-15.74-12 .43-2.84.87-5.08-1.35-5.53z" fill="#18263e"/></g></g><g mask="url(#mask-3)"><g id="Head_3" data-name="Head 3"><path class="cls-19" d="M388.29 242.31L385 253.62s-19.56 18.95-20.89 18.95.94-22.06.94-22.06l-.22-8.2 2.66-8.42z"/><ellipse class="cls-19" cx="384.58" cy="220.31" rx="26.77" ry="20.95" transform="rotate(-81.04 384.565 220.31)"/><path class="cls-19" d="M404.14 220.14c3.21-.55 4.88 1.66 2.33 5.21s-1.89 10.09-4 10.64-5.21-3.65-4.44-5.1 6.11-10.75 6.11-10.75zM368.48 208.64c-2.54-2-5.07-.92-4.57 3.42s-3.25 9.73-1.68 11.24 6.33-.67 6.35-2.3-.1-12.36-.1-12.36z"/><path class="cls-20" d="M404.47 204c-1.66-8-11.75-13-17.29-13.52s-16.07 3.54-18.07 6.65-3.1 14.63-3.1 15.63a6.29 6.29 0 00.88.88c.89-5.65 4.66-12.86 4.66-12.86 10.31 9 25.72 8.87 27.93 8.54.67 4.43 4.22 10 4.22 10-.56 2.21-1.56 6-1.56 6 .89 0 1.11 0 1.78-1.33s1.11-3.77 1.77-3.88c3.22-7.39 5.21-12.49-1.22-16.11z"/><path class="cls-20" d="M402.53 224.38c-.58 1-5.4 11.06-5.9 11.81-.27.4-3.46 1.63-6.93 2.79a9.5 9.5 0 00-4.5-7.09c-4.8-3.23-12.49-3.89-17.4-2.58l-1.6-5c-.08-.25.69-10.7.69-10.7l-.88-.88-.22.77-2.25 10.81c.69 11.5 7.39 20.92 16.87 22.41 7.84 1.24 15.53-3.25 20.34-10.9l.05-.16s2.32-10.64 2.49-11.14-.18-1.14-.76-.14zm-22.85 14.76l-4.7-1.92a12.48 12.48 0 01-4.89-3.61 1.12 1.12 0 01.73-1.84c4-.46 9.29.32 12.7 2.61a6.78 6.78 0 013 4 1.35 1.35 0 01-1.18 1.69 12.21 12.21 0 01-5.66-.93z"/><path class="cls-1" d="M368.56 262l11.3-10.42 6-1.77c.44-1.11.89-2.44.89-2.44l1.77 2.44-1.11 7.76s25.27 8.87 22.39 24.83c-44.78-15.3-73.6-27.71-73.6-27.71 2.22-7.54 18-8.65 21.73-8a75.08 75.08 0 005.32-6.88l2.49-.5c-1.33 3.55 3.22 8 3.22 8z"/></g></g></g><g id="Lines"><path class="cls-21" d="M119.59 182.73c-10.92-1.67-18.06-2.71-22.83-2.71"/><path class="cls-22" d="M84.12 200.19a213.12 213.12 0 00-6.65 21.95M110.73 176.25c-4.57.27-11.23-2.39-18.55 8"/><path class="cls-11" d="M175.57 254.39l-37.08-32a2.83 2.83 0 00-3.66 0 2.81 2.81 0 00-.05 4.26l30.15 26.78z"/><path class="cls-23" d="M109.06 265.37s25.28.33 29.93 0 14.64-10.64 21.95-11.64 40.9 2 43.23 1.66-1.66 8.32-8.31 9-22.61 2-22.61 2c-2.33 10.3-10.65 16-13.31 16.62M166.26 295c-7.31 2.33-24.94-1-28.26-1.33s-24.28 3.66-24.28 3.66"/><path class="cls-24" d="M60 15.3c9-7.65 36.14-8.32 59.75-4s58.86 25.6 57.53 57.86 8 104.08 17.62 125.37c-6.41 0-32.33-4.83-57.31-9"/><path class="cls-22" d="M76.14 125.37c5 27.27 50.22 67.5 57.53 62.85 3.89-2.48 9.09-12.53 13.83-23.65-5.42-2.75-17.34-9.35-23.14-16.92 0 0 15.39 3.84 27.92 5 1.48-3.9 2.83-7.65 4-11a84.77 84.77 0 0010-1c4.65-.92 2.94-9.94-3.23-25.15 7.26-45.41-15.31-66.87-26.7-71.28M131 143.66c-6 2.33-12.3 4-12.63 6"/><path d="M139.33 81c8.64-7 14.63-6.32 17.62-4.32" stroke="#26344e" fill="none" stroke-linecap="round" stroke-linejoin="round" stroke-width="3"/><ellipse cx="150.38" cy="98.76" rx="6.87" ry="4.18" transform="rotate(-78.78 150.377 98.765)" fill="#121c2f"/><path class="cls-16" d="M110.15 324c-1.53 19.07-4.35 41.51-6.63 58.27.93.56 1.87 1.11 2.8 1.64 2.31-16.8 5.2-39.72 6.78-59.22a1.47 1.47 0 01-1 .42 1.63 1.63 0 01-.31 0h-.18a1.52 1.52 0 01-1.29-1l-.13-.1"/><path class="cls-27" d="M110.28 324.05a1.52 1.52 0 001.29 1h.18a1.56 1.56 0 01-.65-.31l-.82-.67M9.63 204.82a20.12 20.12 0 00-6.65 1L3 209a17.7 17.7 0 016.78-1.15c.93 0 1.91 0 3 .07l2.36.08c-1.47 2.77-2.64 5.18-1.64 7a3.45 3.45 0 003 1.65c1.37.11 3.14.15 5.27.15h10.46c17.15 0 42.49 1.19 50.87 14l.08.11c19.8 24.92 29 40.41 28.05 74.73-.12 4.28-.39 9.25-.79 14.8.87.67 1.74 1.35 2.58 2a1.27 1.27 0 01.25.27c.5-6.45.82-12.17 1-17 1-35.29-8.42-51.16-28.66-76.63-9.23-14-34.6-15.29-53-15.29H21.8c-2.05 0-3.78 0-5-.13a2.54 2.54 0 01-.58-.1c-.2-.7 1.15-3.24 1.88-4.62.31-.58.62-1.18.92-1.76a1.5 1.5 0 00-1.4-2.18c-1.79 0-3.35-.06-4.72-.11-1.18 0-2.25-.08-3.27-.08M33.58 281.49a1.52 1.52 0 00-1.45 1.1 130.56 130.56 0 00-3.41 22.58q1.35 2.43 2.76 4.81c.52-11.26 2.24-21.93 3.52-26.58a1.49 1.49 0 00-1-1.85 1.39 1.39 0 00-.4-.06"/><path class="cls-27" d="M62.73 303.54c-9.29 0-20.07 2.07-29.55 9.25.52.86 1.06 1.72 1.59 2.56 8.93-6.84 19.16-8.81 28-8.81a62.8 62.8 0 017.64.47A81.32 81.32 0 01110.15 324l.13.1.82.67a1.56 1.56 0 00.65.31 1.63 1.63 0 00.31 0 1.47 1.47 0 001-.42l.12-.12a1.52 1.52 0 000-1.85 1.27 1.27 0 00-.25-.27c-.84-.69-1.71-1.37-2.58-2A84.44 84.44 0 0070.75 304a67 67 0 00-8-.49"/><path class="cls-28" d="M223.79 56.87l-8.98 166.26 238.44 113.4 26.26-261.71-255.72-17.95z"/><path class="cls-29" d="M227.45 68.17l-7.32 136.67 229.12 91.79L470.2 88.46 227.45 68.17z"/><path class="cls-28" d="M310.39 269.69c1.1 4.36 3.27 7.41-54.9 8.91a2.63 2.63 0 00-1.43 4.83c16.21 10.72 47.52 30.68 60.26 38.78a13.71 13.71 0 0011.89 1.35c33.54-11.81 33.6-12.45 39.33-14.87 6.06-2.56 6.92-6.26 6.06-9.39"/><path class="cls-29" d="M227.12 77.81l240.76 24.28M224.12 140.33l98.7 23.14 135.41 31.73M318.23 243.42l7.32-79.14M405.69 96.44l-6.65 84.13M278.66 82.8l-3.99 68.17"/><path class="cls-23" d="M200.51 262.71c2.66.33 7.65 1 5.32 6s-3 6-12.63 6.32-14 0-15.3-1.66.67-7.32.67-7.32"/><path class="cls-23" d="M199.52 275.34c1 2.66.33 8-2.33 9.32s-18.62.33-21.95 0-2.66-6.32-.66-7.65 7-2 7-2M187.54 293c-.66 3.66-2 6-5.32 5.65s-12-1.33-14.63-2.66-4-5-3.66-6 4.33-2 4.33-2"/><path class="cls-23" d="M172.25 283.66l-3.66 2c-1.33 1 1.33 5 3.33 5.32s14.63 1.33 17.29 1 3.32-3.66 4-6"/><path class="cls-16" d="M222.13 293.13a1.32 1.32 0 00-.34 0l-67.17 15.67a1.5 1.5 0 00-.83 2.41l79.73 98.3c1.17-.14 2.34-.29 3.5-.45l-79.39-97.88 64-14.9 86.92 88.77c.9-.5 1.8-1 2.69-1.53l-88.04-89.94a1.51 1.51 0 00-1.07-.45"/><path class="cls-22" d="M28.92 181.57c-2.66 10.2-11.47 24.44-14 30.76"/><path class="cls-24" d="M79 91.56c15.94-1.76 81.8-33.48 50.54-53C95 17 72.15 12.64 47.21 16.63S8.3 46.89 10.08 64.07c2.41 23.32 6.65 54.65-6.32 82.91-5 8-.83 18.72 3.88 22.62 15.52 12.85 86.79 33.58 95.77 35.91-11.14-18.43-29.6-54.83-35-82"/><path class="cls-24" d="M81.8 93.78c-7.65-6-15.63-6-17.3 2.32S63.51 129 76.14 126"/></g></svg>