<svg xmlns="http://www.w3.org/2000/svg" viewBox="0 0 426.98 419.35"><defs><style>.cls-1{fill:#fff}.cls-2{fill:#d2ecf3}.cls-3{fill:#dfdfdf}.cls-4{fill:#efefef}.cls-5{fill:#95c0d1}.cls-6{fill:#a9cedc}.cls-7{fill:#bedde8}.cls-10,.cls-11,.cls-12,.cls-18,.cls-19,.cls-20,.cls-21,.cls-22,.cls-8,.cls-9{fill:none}.cls-8{stroke:#6e7b95}.cls-10,.cls-11,.cls-12,.cls-18,.cls-19,.cls-20,.cls-21,.cls-22,.cls-8,.cls-9{stroke-linecap:round;stroke-linejoin:round;stroke-width:3px}.cls-9{stroke:#d2ecf3}.cls-10{stroke:#a9cedc}.cls-11{stroke:#bedde8}.cls-12{stroke:#95c0d1}.cls-18{stroke:#7d7d7f}.cls-19{stroke:#26344e}.cls-20{stroke:#bebebf}.cls-21{stroke:#465671}.cls-22{stroke:#678f9e}</style><mask id="mask" x="95.77" y="100.66" width="98.66" height="96.88" maskUnits="userSpaceOnUse"><circle class="cls-1" cx="201.36" cy="163" r="44.12" transform="translate(-56.04 -9.58)"/></mask></defs><path class="cls-2" d="M269.53 9.58C151.62 9.58 56 105.16 56 223.07a213.42 213.42 0 00107.32 185.24h212.42A213.42 213.42 0 00483 223.07C483 105.16 387.44 9.58 269.53 9.58" transform="translate(-56.04 -9.58)" id="Background"/><g id="Flats"><path class="cls-3" d="M315 307.4c2.82 32.31 24 49.09 34.21 55.37a1.6 1.6 0 01-.85 3H191.88a1.6 1.6 0 01-.77-3c10.67-5.78 30.46-21 33-55.23" transform="translate(-56.04 -9.58)"/><rect class="cls-3" x="15.3" y="47.57" width="380.43" height="249.41" rx="6.59"/><path class="cls-1" d="M30.3 62.57h350.43v194.41H30.3z"/><path class="cls-4" d="M219.81 154.31h161.28v102.76H219.81z"/><path class="cls-5" d="M30.59 75.5h349.83v11.64H30.59z"/><path class="cls-6" d="M91.17 216.99h7.89v39.63h-7.89zM102.92 213.5h7.89v43.12h-7.89z"/><path class="cls-7" d="M114.67 220.32h7.89v36.3h-7.89z"/><path class="cls-6" d="M126.42 223.15h7.89v33.48h-7.89zM138.17 219.99h7.89v36.63h-7.89zM149.92 221.98h7.89v34.64h-7.89z"/><path class="cls-7" d="M161.67 216.5h7.89v40.13h-7.89z"/><path class="cls-6" d="M173.42 214.5h7.89v42.12h-7.89zM185.17 212.67h7.89v43.95h-7.89z"/><path class="cls-7" d="M196.92 210.07h7.89v46.56h-7.89z"/><rect class="cls-7" x="229.9" y="165.06" width="17.07" height="10.2" rx="1.97"/><path class="cls-8" d="M253.84 167.95h14.85M280.89 167.95h14.85M305.27 167.95h30.15"/><path class="cls-9" d="M305.27 172.82h8.21M318.57 172.82h8.21"/><path class="cls-10" d="M253.84 172.82h9.53"/><path class="cls-11" d="M343.85 167.95h3.77M354.27 167.95h3.77M364.69 167.95h3.77"/><rect class="cls-7" x="229.9" y="180.8" width="17.07" height="10.2" rx="1.97"/><path class="cls-8" d="M253.84 183.69h14.85M280.89 183.69h14.85M305.27 183.69h30.15"/><path class="cls-9" d="M305.27 188.56h8.21M318.57 188.56h8.21"/><path class="cls-10" d="M253.84 188.56h9.53"/><path class="cls-11" d="M343.85 183.69h3.77M354.27 183.69h3.77M364.69 183.69h3.77"/><rect class="cls-7" x="229.9" y="196.54" width="17.07" height="10.2" rx="1.97"/><path class="cls-8" d="M253.84 199.43h14.85M280.89 199.43h14.85M305.27 199.43h30.15"/><path class="cls-9" d="M305.27 204.3h8.21M318.57 204.3h8.21"/><path class="cls-10" d="M253.84 204.3h9.53"/><path class="cls-11" d="M343.85 199.43h3.77M354.27 199.43h3.77M364.69 199.43h3.77"/><rect class="cls-7" x="229.9" y="212.28" width="17.07" height="10.2" rx="1.97"/><path class="cls-8" d="M253.84 215.17h14.85M280.89 215.17h14.85M305.27 215.17h30.15"/><path class="cls-9" d="M305.27 220.04h8.21M318.57 220.04h8.21"/><path class="cls-10" d="M253.84 220.04h9.53"/><path class="cls-11" d="M343.85 215.17h3.77M354.27 215.17h3.77M364.69 215.17h3.77"/><rect class="cls-7" x="229.9" y="228.02" width="17.07" height="10.2" rx="1.97"/><path class="cls-8" d="M253.84 230.91h14.85M280.89 230.91h14.85M305.27 230.91h30.15"/><path class="cls-9" d="M305.27 235.78h8.21M318.57 235.78h8.21"/><path class="cls-10" d="M253.84 235.78h9.53"/><path class="cls-11" d="M343.85 230.91h3.77M354.27 230.91h3.77M364.69 230.91h3.77"/><rect class="cls-7" x="229.9" y="243.76" width="17.07" height="10.2" rx="1.97"/><path class="cls-8" d="M253.84 246.65h14.85M280.89 246.65h14.85M305.27 246.65h30.15"/><path class="cls-9" d="M305.27 251.52h8.21M318.57 251.52h8.21"/><path class="cls-10" d="M253.84 251.52h9.53"/><path class="cls-11" d="M343.85 246.65h3.77M354.27 246.65h3.77M364.69 246.65h3.77"/><path class="cls-8" d="M230.78 97.11h28.27M270.69 97.11h8.26M289.69 97.11h8.27M308.7 97.11h11.26M329.69 97.11h8.27M347.7 97.11h18.26"/><path class="cls-12" d="M230.78 105.09h28.27M270.69 105.09h8.26M289.69 105.09h8.27M308.7 105.09h11.26M329.69 105.09h8.27M347.7 105.09h18.26M230.78 109.71h28.27M270.69 109.71h8.26M289.69 109.71h8.27M308.7 109.71h11.26M329.69 109.71h8.27M347.7 109.71h18.26M230.78 114.33h28.27M270.69 114.33h8.26M289.69 114.33h8.27M308.7 114.33h11.26M329.69 114.33h8.27M347.7 114.33h18.26M230.78 118.95h28.27M270.69 118.95h8.26M289.69 118.95h8.27M308.7 118.95h11.26M329.69 118.95h8.27M347.7 118.95h18.26M230.78 123.57h28.27M270.69 123.57h8.26M289.69 123.57h8.27M308.7 123.57h11.26M329.69 123.57h8.27M347.7 123.57h18.26M230.78 128.19h28.27M270.69 128.19h8.26M289.69 128.19h8.27M308.7 128.19h11.26M329.69 128.19h8.27M347.7 128.19h18.26M230.78 132.81h28.27M270.69 132.81h8.26M289.69 132.81h8.27M308.7 132.81h11.26M329.69 132.81h8.27M347.7 132.81h18.26M230.78 137.43h28.27M270.69 137.43h8.26M289.69 137.43h8.27M308.7 137.43h11.26M329.69 137.43h8.27M347.7 137.43h18.26M230.78 142.05h28.27M270.69 142.05h8.26M289.69 142.05h8.27M308.7 142.05h11.26M329.69 142.05h8.27M347.7 142.05h18.26M230.78 146.67h28.27M270.69 146.67h8.26M289.69 146.67h8.27M308.7 146.67h11.26M329.69 146.67h8.27M347.7 146.67h18.26"/><path d="M224.08 307.5a78 78 0 01-5.81 25h103.5a72 72 0 01-6.77-25.1z" transform="translate(-56.04 -9.58)" fill="#bebebf"/><path class="cls-3" d="M426.38 427.43H118.59a4.43 4.43 0 01-2.6-8l56-40.63a9.16 9.16 0 015.37-1.74h189.36a9.2 9.2 0 015.32 1.7L429 419.4a4.43 4.43 0 01-2.62 8.03z" transform="translate(-56.04 -9.58)"/><path class="cls-4" d="M123.37 372.47l-39.46 35.38h265.25l-40.54-35.38H123.37z"/><path class="cls-2" d="M29.93 88.14h47.55v167.6H29.93z"/><circle class="cls-5" cx="145.32" cy="153.42" r="44.12"/><g mask="url(#mask)"><path d="M170.65 124.54c.34.22 30.71 38.46 30.71 38.46l20.5-43-44.45-9.76z" transform="translate(-56.04 -9.58)" fill="#c6000d"/><path d="M243.15 141.61c-.78.55-40.68 20.4-40.35 20.4s42.34 1.77 42.67 1 5.1-10.42 5-11.08-7.32-10.32-7.32-10.32z" transform="translate(-56.04 -9.58)" fill="#95b8c5"/><path class="cls-1" d="M165.38 111.97l-19.17 41.9 39.68-22.73-5.76-12.74-14.75-6.43z"/><path class="cls-4" d="M171.43 126.09l29.26 37.8-39.24 19.73s-9.86-18.73-9.64-19.73 7-28.6 7.31-29.26 12.31-8.54 12.31-8.54z" transform="translate(-56.04 -9.58)"/><path d="M203.68 164.33l34.15 33.81s8.53-19.51 8.42-19.84-1.22-5.65-1.22-5.65l-40.68-9.2z" transform="translate(-56.04 -9.58)" fill="#f5bf33"/></g></g><g id="Lines"><path class="cls-18" d="M315 307.4c2.82 32.31 24 49.09 34.21 55.37a1.6 1.6 0 01-.85 3H191.88a1.6 1.6 0 01-.77-3c10.67-5.78 30.46-21 33-55.23" transform="translate(-56.04 -9.58)"/><rect class="cls-18" x="15.3" y="47.57" width="380.43" height="249.41" rx="6.59"/><path class="cls-19" d="M30.3 62.57h350.43v194.41H30.3z"/><path class="cls-18" d="M426.38 427.43H118.59a4.43 4.43 0 01-2.6-8l56-40.63a9.16 9.16 0 015.37-1.74h189.36a9.2 9.2 0 015.32 1.7L429 419.4a4.43 4.43 0 01-2.62 8.03z" transform="translate(-56.04 -9.58)"/><path class="cls-19" d="M349.16 407.85H83.91l39.46-35.38h185.25l40.54 35.38z"/><path class="cls-20" d="M123.37 372.47h185.25M115.48 379.55h201.25M107.59 386.62h217.24M99.69 393.7h233.25M91.8 400.77h249.25M83.91 407.85h265.25M349.16 407.85l-40.54-35.38M328.76 407.85l-34.39-35.38M308.35 407.85l-28.23-35.38M287.95 407.85l-22.08-35.38M264.2 400.41l-12.58-27.94M245.16 400.66l-7.79-28.19M225.99 400.54l-2.87-28.07M206.86 400.56l2.01-28.09M187.7 400.64l6.92-28.17M168.71 400.27l11.66-27.8M145.12 407.85l21-35.38M124.72 407.85l27.15-35.38M104.32 407.85l33.3-35.38M83.91 407.85l39.46-35.38"/><path class="cls-19" d="M31.04 76.61h349.39M31.04 88.14h349.39M77.59 255.74V88.58M219.03 88.14v168.93M379.54 154.64H220.36"/><circle class="cls-21" cx="145.32" cy="153.42" r="44.12"/><path class="cls-21" d="M145.32 152.87l30.93 31.04M189.22 153.42h-43.79M145.65 153.76l-27.27-34.7M163.94 113.91l-18.65 39.61M187.72 163.46l-42.07-9.81M106.24 173.41l78.16-39.97"/><path class="cls-8" d="M151.14 236.38c3.5 0 8 13.81 11.64 13.81s8.81-8.65 11.81-8.65 9 1.66 11.64 1.66 8.64-7.15 12.13-7.15 8.32 21.78 11.48 21.78 9.31-12.8 12-12.8 8.64-7.15 11.47-7.15 8.81 1.66 11.47 1.66 9-15.79 12.81-15.79" transform="translate(-56.04 -9.58)"/><path class="cls-22" d="M39.35 100.11h29.04M39.35 111.04h29.04M39.35 121.98h29.04M39.35 132.92h29.04M39.35 143.85h29.04M39.35 154.79h29.04M39.35 165.73h29.04M39.35 176.67h29.04M39.35 187.6h29.04M39.35 198.54h29.04"/><path stroke="#95c0d1" stroke-linecap="round" stroke-linejoin="round" stroke-width="3" fill="#95c0d1" d="M39.57 211.18h28.6v35.69h-28.6z"/><path class="cls-22" d="M37.24 69.17h50.99"/><path class="cls-12" d="M106.86 69.17h11.3M129.03 69.17h18.84M157.62 69.17h8.65M332.54 69.07l40.57.1"/><path class="cls-8" d="M39.24 82.37h14.19M67.72 82.37H81.9M96.19 82.37h14.19M124.67 82.37h14.18M153.14 82.37h14.19M181.62 82.37h14.19M210.09 82.37h14.19M238.57 82.37h14.19M267.04 82.37h14.19M295.52 82.37h14.19"/></g></svg>