<svg id="Layer_1" data-name="Layer 1" xmlns="http://www.w3.org/2000/svg" viewBox="0 0 512 512"><defs><style>.cls-1,.cls-2{fill:none;stroke-linecap:round;stroke-linejoin:round;stroke-width:16px}.cls-1{stroke:#26344e}.cls-2{stroke:#a9cedc}</style></defs><path class="cls-1" d="M500 201.28h-51.43M500 315.68h-49.43M452.23 221.9c0-17-17.29-52.21-49.55-52.21H292"/><path class="cls-1" d="M329.88 169.69h-38.23A21.68 21.68 0 00270 191.31a21.67 21.67 0 0021.61 21.61h18.61"/><path class="cls-1" d="M307.6 212.92H285a21.68 21.68 0 00-21.62 21.62A21.68 21.68 0 00285 256.15h17.95M321.9 342.73h72.8c33.25 0 57.2-7.43 57.2-46.34"/><rect class="cls-1" x="281.13" y="299.5" width="70.91" height="43.23" rx="21.62"/><path class="cls-1" d="M354 207.6v39.9a21.68 21.68 0 01-21.62 21.62 21.68 21.68 0 01-21.61-21.62v-45.22c0-17.63 6.1-32.59 30.71-32.59M415.33 267.11c-36.91 0-60.84-36.9-60.84-58.85"/><path class="cls-1" d="M336.53 271.12c.33 3 1.08 6.74 1.08 6.74A21.68 21.68 0 01316 299.48h-27.69a21.68 21.68 0 01-21.61-21.62 21.67 21.67 0 0121.61-21.61h21.62M12 201.28h51.43M12 315.68h49.43M59.77 221.9c0-17 17.29-52.21 49.55-52.21H220"/><path class="cls-1" d="M182.12 169.69h38.23A21.68 21.68 0 01242 191.31a21.67 21.67 0 01-21.61 21.61h-18.65"/><path class="cls-1" d="M204.4 212.92H227a21.68 21.68 0 0121.62 21.62A21.68 21.68 0 01227 256.15h-17.94M190.1 342.73h-72.8c-33.25 0-57.2-7.43-57.2-46.34"/><rect class="cls-1" x="159.96" y="299.5" width="70.91" height="43.23" rx="21.62"/><path class="cls-1" d="M158 207.6v39.9a21.68 21.68 0 0021.62 21.62 21.68 21.68 0 0021.61-21.62v-45.22c0-17.63-6.1-32.59-30.71-32.59M96.67 267.11c36.91 0 60.84-36.9 60.84-58.85"/><path class="cls-1" d="M175.47 271.12c-.33 3-1.08 6.74-1.08 6.74A21.68 21.68 0 00196 299.48h27.68a21.68 21.68 0 0021.61-21.62 21.67 21.67 0 00-21.61-21.61h-21.61"/><path class="cls-2" d="M256 49.87v93.26M208.29 74.34l15.46 57.69M342.85 101.95l-20.73 35.91M169.12 101.9l21.12 36.59M303.38 75.55l-15.1 56.38M255.97 462.13v-93.26M303.68 437.66l-15.46-57.69M169.12 410.05l20.73-35.91M342.85 410.1l-21.12-36.59M208.58 436.45l15.11-56.38"/></svg>