<svg id="Layer_2" data-name="Layer 2" xmlns="http://www.w3.org/2000/svg" viewBox="0 0 512 512"><defs><style>.cls-1{fill:#bedde8}.cls-5{letter-spacing:-0.01em}.cls-6{letter-spacing:0.02em}.cls-16{letter-spacing:0.03em}.cls-31{fill:#b0cac6}</style></defs><path class="cls-1" d="M256 23.53C150.81 23.52 65.6 108.72 65.49 214s85.17 190.61 190.63 190.6c105.26 0 190.52-85.34 190.39-190.55C446.39 108.68 361.26 23.53 256 23.53zm-.25 372c-100.11-.03-181.39-81.36-181.31-181.4C74.53 113.87 155.86 32.51 256 32.51s181.53 81.37 181.53 181.58a181.34 181.34 0 01-181.75 181.49z"/><path class="cls-1" d="M300.8 201.93c-3.53-5.9-9.88-6.09-13.14-.07a39.23 39.23 0 00-4.09 11.82c-3.1 18-2.85 36.08-.4 54.11a34 34 0 003.91 11.61c3 5.39 9 5.42 12.49.31a25.8 25.8 0 003.24-7.17c3.21-10.83 3.13-22 3.53-34.64-.3-5.4-.46-12.28-1.12-19.1-.55-5.8-1.32-11.7-4.42-16.87z"/><path class="cls-1" d="M402.73 139.1C360.81 55.82 257.42 23.15 175.6 68c-84.4 46.16-98.53 137.52-80.4 192.22l1-1.46a12.75 12.75 0 0114.78-5.2c5.23 1.61 8.25 6.1 8.16 12.22s-2.25 11.62-4.57 17.11c-1.37 3.26-.86 5.33 1.88 7.57a12.4 12.4 0 0015.55-.36 23.43 23.43 0 006.49-10.39c3.4-9.78 3.85-19.92 3.39-30.11-.25-5.54-1.19-11-4-15.95a14.12 14.12 0 00-15.53-7.16c-8.63 1.61-14.46 6.91-18.53 14.35-1.06 1.93-2 2.09-3.48.75.32-1.7.62-3.32.93-4.94l10.36-54.72c.42-2.25.88-2.36 2.92-1.21a28.11 28.11 0 004.68 2.2 80.89 80.89 0 0037.91 3.35c5.57-.78 11-2.09 16-4.91a3.62 3.62 0 002.16-3.72c-.16-3.35-.05-6.72-.05-10.29h11.31v-32.21c-2.08 0-4 .09-6-.06-.59-.05-1.59-.78-1.61-1.22-.12-4.11-.07-8.23-.07-12.49h40.94v13.78h-7.22v32.33h7.19v12.9h-2.92c-12.25 0-24.5.05-36.75-.06a4.32 4.32 0 00-4.41 2.56c-11.71 20.5-28.94 31.13-53 29.53-4.6-.31-9.23 0-14.19 0-1.22 6.45-2.53 13.33-3.85 20.23 3.39-2.1 6.37-4.39 9.69-5.93 10.28-4.78 21.14-5.21 32-2.88 15 3.22 29 14.13 27.45 34.76-.9 11.86-5.87 21.44-15.85 28.07-11.9 7.92-25.3 9.05-39.06 7.81-3.62-.32-7.19-1.29-10.82-2 39.17 74.75 133.85 111.44 217.67 71.7 84.94-40.32 118.94-141.72 76.98-225.07zM347 166.59a7.56 7.56 0 017 7.58 7.36 7.36 0 01-14.71-.48 7.54 7.54 0 017.71-7.1zm-99.69 97.46c-6 12.27-15.82 19.85-29.7 21-12.85 1-26.09-4.91-33.3-19.94a49.15 49.15 0 01-4.69-22.1c0-12.21 2.31-22.79 9-32.09 11.77-16.48 33.84-20.1 49.34-8 7.57 5.9 11.72 14 13.57 23.24 2.52 13.01 1.69 25.84-4.26 37.89zm83.09-21.65a49.17 49.17 0 01-9.21 28c-12.34 16.95-35.68 19.73-50.93 6-6.49-5.85-10.08-13.4-11.77-21.86-2.59-13.08-1.66-25.89 4.33-37.92 5.44-10.95 14.07-18.22 26.42-20.34 14.6-2.5 28.41 4.38 35.49 17.53 3.82 7.19 5.83 15.98 5.63 28.59zm-18.27-61.08c-6.52-.49-12.74-2.18-17.81-6.6a69.85 69.85 0 01-5.56-6.11v11.57H257.4v-12.67h5.66c0-5.22.3-10.25-.11-15.22-.28-3.33-4.63-5.07-8.65-3.92a7.51 7.51 0 00-5.88 6.91c-.31 3.92-.07 7.89-.07 12.1h6v12.87h-31.91v-12.77h5.37v-19.37h-5.36V135.3h25.23v7.94c.39 0 .61 0 .68-.08 6.66-7.89 15.33-8.83 24.62-6.72 6.77 1.53 10.43 6.51 10.53 13.5.07 5.7 0 11.41 0 17.31h4.7a56.89 56.89 0 01-1.19-7.39c-.38-11 4.62-18.45 15-22.18 8.23-3 16.64-3.43 25-.42 7.69 2.77 12.4 9.05 12.71 16.91l-17.08 1.92c-.15-1.2-.26-2.25-.4-3.29-.57-4.15-2.84-6.48-6.43-6.6-4.22-.14-7.3 1.9-7.76 6a55.86 55.86 0 000 12.33c.47 4.22 3.46 6.15 8 6 4-.12 6.16-2.18 7-7h17.14c-.69 6-3.19 10.61-8.05 13.75-6.15 4.01-13.05 4.57-20.06 4.04zm87.08 89.1c-12.33 16.95-35.67 19.73-50.92 6-6.49-5.85-10.09-13.4-11.77-21.86-2.6-13.08-1.67-25.89 4.32-37.92 5.45-10.95 14.08-18.22 26.43-20.34 14.6-2.5 28.41 4.38 35.49 17.53 3.86 7.17 5.87 16 5.67 28.58a49.19 49.19 0 01-9.26 28.01z"/><path class="cls-1" d="M223.84 203.17c-1.49-3.14-3.71-5.64-7.48-5.65-3.58 0-5.57 2.51-7.13 5.39a11.06 11.06 0 00-1.19 2.71c-1.19 5.3-2.8 10.56-3.35 15.94a186.7 186.7 0 00.5 44.07 44.2 44.2 0 004.13 13.6c2.88 5.7 9.33 5.66 12.72.25a29.28 29.28 0 003.32-7.68c2.89-10.55 3.13-21.38 3.26-32.24-.25-6-.32-12.08-.8-18.1-.49-6.25-1.22-12.46-3.98-18.29zM378.83 201.93c-3.53-5.9-9.88-6.09-13.14-.07a39 39 0 00-4.09 11.82c-3.11 18-2.86 36.08-.41 54.11a34.24 34.24 0 003.92 11.61c3 5.39 9 5.42 12.49.31a26.1 26.1 0 003.24-7.17c3.21-10.83 3.12-22 3.53-34.64-.3-5.4-.47-12.28-1.12-19.1-.56-5.8-1.32-11.7-4.42-16.87z"/><text transform="translate(7.86 455.03)" font-size="32" fill="#95b8c5" font-family="Stag-BookItalic, Stag" font-style="italic" letter-spacing=".01em">F<tspan x="18.08" y="0" letter-spacing=".02em">a</tspan><tspan x="35.22" y="0">s</tspan><tspan class="cls-5" x="48.81" y="0">t</tspan><tspan class="cls-6" x="58.58" y="0">e</tspan><tspan x="74.91" y="0">s</tspan><tspan x="88.5" y="0" letter-spacing="-.03em">t</tspan><tspan x="97.49" y="0" letter-spacing=".03em">-</tspan><tspan x="107.07" y="0">G</tspan><tspan x="128.81" y="0" letter-spacing="0em">r</tspan><tspan x="140.91" y="0" letter-spacing="-.01em">o</tspan><tspan x="157.93" y="0" letter-spacing=".02em">w</tspan><tspan x="182.48" y="0" letter-spacing="0em">i</tspan><tspan x="190.94" y="0" letter-spacing=".03em">n</tspan><tspan class="cls-16" x="210.35" y="0">g </tspan><tspan x="232.4" y="0" letter-spacing=".03em">P</tspan><tspan x="251.98" y="0" letter-spacing=".03em">r</tspan><tspan x="264.75" y="0" letter-spacing="-.01em">i</tspan><tspan x="272.93" y="0" letter-spacing="0em">v</tspan><tspan x="289.37" y="0" letter-spacing="0em">a</tspan><tspan class="cls-5" x="305.76" y="0">t</tspan><tspan class="cls-16" x="315.53" y="0">e </tspan><tspan x="338.22" y="0">C</tspan><tspan x="358.34" y="0">o</tspan><tspan x="376.02" y="0" letter-spacing="0em">m</tspan><tspan x="404.17" y="0">p</tspan><tspan x="423.03" y="0" letter-spacing="0em">a</tspan><tspan x="439.57" y="0" letter-spacing="0em">n</tspan><tspan x="458.19" y="0">i</tspan><tspan class="cls-6" x="466.73" y="0">e</tspan><tspan x="483.06" y="0" letter-spacing=".02em">s</tspan></text><text transform="translate(50.96 492.64)" font-size="30" fill="#21234c" font-family="AvenirNext-Bold, Avenir Next" font-weight="700">2012<tspan class="cls-31" x="77.52" y="0"> • </tspan><tspan x="107.52" y="0">2013</tspan><tspan class="cls-31" x="185.04" y="0"> • </tspan><tspan x="215.04" y="0">2014</tspan><tspan class="cls-31" x="292.56" y="0"> • </tspan><tspan x="322.56" y="0">2018</tspan></text></svg>