<svg id="Layer_2" data-name="Layer 2" xmlns="http://www.w3.org/2000/svg" viewBox="0 0 512 512"><defs><style>.cls-2{letter-spacing:0.03em}.cls-5{letter-spacing:0.02em}.cls-7{letter-spacing:0.01em}.cls-19{fill:#bedde8}</style></defs><text transform="translate(36 455.03)" font-size="32" fill="#95b8c5" font-family="Stag-BookItalic, Stag" font-style="italic" letter-spacing=".02em">5<tspan class="cls-2" x="16.7" y="0">0 </tspan><tspan x="44.16" y="0">Be</tspan><tspan x="80.18" y="0" letter-spacing=".01em">s</tspan><tspan class="cls-5" x="93.77" y="0">t </tspan><tspan x="110.79" y="0" letter-spacing=".01em">C</tspan><tspan class="cls-7" x="130.91" y="0">o</tspan><tspan x="148.6" y="0" letter-spacing="0em">m</tspan><tspan x="176.75" y="0" letter-spacing=".01em">p</tspan><tspan x="195.6" y="0" letter-spacing="0em">a</tspan><tspan x="212.14" y="0" letter-spacing="0em">n</tspan><tspan x="230.76" y="0" letter-spacing=".01em">i</tspan><tspan x="239.3" y="0">e</tspan><tspan class="cls-5" x="255.63" y="0">s </tspan><tspan x="275.85" y="0" letter-spacing="0em">t</tspan><tspan class="cls-2" x="285.81" y="0">o </tspan><tspan x="310.19" y="0" letter-spacing="-.03em">W</tspan><tspan class="cls-7" x="339.92" y="0">o</tspan><tspan x="357.6" y="0" letter-spacing="-.01em">r</tspan><tspan class="cls-5" x="369.26" y="0">k </tspan><tspan x="392.78" y="0" letter-spacing="-.01em">F</tspan><tspan x="410.37" y="0" letter-spacing=".01em">o</tspan><tspan class="cls-5" x="428.06" y="0">r</tspan></text><path class="cls-19" d="M74.02 150.16h16.6v69.65h-16.6v27.72h88.51v-27.74h-16.6v-69.63h16.6v-29.82H74.02v29.82zM306 200.45zM420.63 211.76h-37.22c0 10.23-7.43 15.05-15.87 15.05-16.06 0-17.3-13.38-17.3-26.22v-.26c0-12.86 1.24-26.24 17.3-26.24 12.65 0 14.77 11 15.23 21.34l37.37-4.11c-4.56-43.56-53-40.42-53-40.42-30.79-.05-61.14 15.1-61.14 49.5a48 48 0 003.85 19.39h-11v-36.68c0-23.38-17.13-31.94-38.18-31.94-15 0-26.41 4.09-36.4 15.52a18.13 18.13 0 01-2.5 2.68v-19.15h-54.66V178h12.51v41.8h-12.51v27.73h69.25V219.8h-13.21v-24c0-10.17 7.67-17.66 17.85-17.66 8 0 14.25 3.92 14.25 12.67v29h-12.83v27.73H310v-27.29c9.26 20.46 33 29.71 57.15 29.71 19.69 0 47-4.74 53.14-35z"/><path class="cls-19" d="M433.33 216.46a15.77 15.77 0 1015.76 15.77 15.77 15.77 0 00-15.76-15.77zM74.16 296.69v-29.95-1.05c0-.35.29-.69.71-.75a6.26 6.26 0 01.75 0h25a2.35 2.35 0 01.75 0c.24.1.56.29.63.51.17.53.21 1.11.33 1.66a49.44 49.44 0 001.1 5.08 7.36 7.36 0 01.1 1.16c.06.36.23.71.29 1.08.27 1.62.64 3.24 1 4.85s.74 3.19 1.08 4.77c.27 1.24.45 2.53.72 3.77a24.71 24.71 0 001.1 4.78 5.11 5.11 0 01.22 1.06c.46-.28.39-.73.44-1.17.12-1.08.48-2.11.68-3.17a27 27 0 01.79-3.4c.54-1.65.51-3.43 1.22-5-.06-1.31.5-2.51.62-3.8a11.3 11.3 0 01.66-2.71c.26-.68.07-1.39.47-2.06s0-1.53.4-2.06-.14-1.42.55-1.88a10.91 10.91 0 01.58-3.05c.06-.32.15-.42.46-.4s.5 0 .75 0h24c.72 0 .71 0 .63.87a9.17 9.17 0 000 1.05v59a4.5 4.5 0 010 1c-.07.28.59.42.11.69a1.7 1.7 0 01-.79.24h-17.4c-.37 0-.55-.07-.51-.49s0-.69 0-1v-36.84a6 6 0 00-.11-.84 3.23 3.23 0 00-.47.79c-.23 1-.37 2-.62 3s-.45 2.09-.81 3.11a7.16 7.16 0 00-.37 1.94 14.58 14.58 0 01-.76 3.29 10.49 10.49 0 01-.39 1.93 25.89 25.89 0 00-.69 3c-.38 1.11-.42 2.29-.86 3.38a16.88 16.88 0 00-.56 2.46c-.21.86-.32 1.74-.59 2.6a9.42 9.42 0 01-.66 2.43c.09 1.69-.83 3.19-.94 4.86-.06.87-.57 1.69-.56 2.6-.47.32-.24.81-.31 1.23s-.19.81-.3 1.22a7.94 7.94 0 00-.22.8c-.07.4-.25.53-.67.53H101c-.48 0-.66-.3-.76-.71a49.65 49.65 0 00-1.5-6.12c.06-1.69-.8-3.2-1-4.86a13.27 13.27 0 00-.62-2.58 28.55 28.55 0 01-.77-3.26c-.2-1.11-.51-2.21-.74-3.31s-.46-2.28-.8-3.4c-.46-1.51-.74-3.08-1.1-4.62a23.09 23.09 0 01-.73-3.61 18.47 18.47 0 00-.64-2.59 20.63 20.63 0 00-.55-2.45c-.1-.31-.19-.62-.3-.93 0-.07-.11-.12-.17-.18s-.12.16-.12.25V327.05c0 .51-.28.75-.82.78H75.44c-1.28 0-1.28 0-1.28-1.35zM210.34 312.86h-1.57a6.31 6.31 0 01-2.3-.25c-.61-.27-1.43.11-2.12-.32-.19-.12-.51-.11-.59.37-.28 1.68 1.42 3.26 2.75 3.54a14.16 14.16 0 003 .26c3.65 0 7.31.05 11 0a17.73 17.73 0 0110.47 3 12 12 0 014 4.91 12.51 12.51 0 01.95 3.37 14.31 14.31 0 01.22 3.32 16.68 16.68 0 01-1.78 6.89 19.51 19.51 0 01-2 2.91 19.92 19.92 0 01-4.11 3.45 15.8 15.8 0 01-3.11 1.54 33.66 33.66 0 01-3.54 1.23 15 15 0 01-3.7.86 11.05 11.05 0 00-1.37.27c-.43.06-.89-.08-1.24.3 0 .05-.19 0-.29 0-3.06.14-6.12.6-9.17.24-1.82-.21-3.75 0-5.48-.84a8 8 0 01-2.9-.59 16.13 16.13 0 01-7.39-4.6 9.47 9.47 0 01-1.86-3.57 8.88 8.88 0 01.65-6.66 9.47 9.47 0 017-5.25 1 1 0 00.39-.14 2.27 2.27 0 00.31-.31 1.49 1.49 0 00-.24-.14 9.21 9.21 0 01-1.68-1 7.56 7.56 0 01-1.92-2.17 11.26 11.26 0 01-1.23-2.63 11 11 0 01-.27-4.66 9 9 0 01.83-2.93 15.54 15.54 0 011.59-2.5 5.42 5.42 0 011.7-1.67c.51-.27.45-.69-.06-1a9.23 9.23 0 01-2.28-2.63 15.81 15.81 0 01-2.2-4.46 10.46 10.46 0 01-.54-2.48c0-.71-.3-1.42-.26-2.12a15.33 15.33 0 015.88-12.09 19.85 19.85 0 013.47-2.13 15.41 15.41 0 014.09-1.38c1.17-.16 2.36-.35 3.5-.61a19.71 19.71 0 015.73-.18 12.41 12.41 0 014.44.81c1.85 0 3.38 1 5 1.69a1 1 0 00.68.1c.13-.07.13-.41.19-.63a5.26 5.26 0 00.29-.93 4.2 4.2 0 01.28-1.69 4 4 0 00.11-1.44c.59 0 1.18-.07 1.77-.07h12.75c.72 0 .66 0 .72.73a1.84 1.84 0 01-.45 1.31c-1 1.26-2.1 2.41-3 3.7s-1.94 2.48-2.91 3.72c-.77 1-1.54 2-2.33 2.93a1.06 1.06 0 00-.26 1.08c.34.79.26 1.67.58 2.45a7.54 7.54 0 01.29 3 15.69 15.69 0 01-1.82 6.73 23.21 23.21 0 01-2.6 3.72 2.57 2.57 0 01-.74.73c-1 .48-1.58 1.41-2.51 1.91a24.29 24.29 0 01-3 1.46 9.36 9.36 0 01-1.84.59c-1.37.18-2.66.9-4.1.65-1.34.54-2.73.19-3.87.3zm-.94 18c-1.35 0-2.7.05-4 0a3.85 3.85 0 00-2.15.61 3.76 3.76 0 00-1.75 2.46c-.25.71.46 1.24.25 1.92a6.61 6.61 0 002.75 2.15 12.24 12.24 0 003.19.53c1.85 0 3.74.36 5.56-.25 1.4.15 2.54-.55 3.76-1a3.19 3.19 0 001.71-2.13 2.6 2.6 0 00-.23-2.25 3.2 3.2 0 00-1.86-1.46 12.46 12.46 0 00-3.64-.62c-1.2.04-2.39.01-3.59.01zm5.23-34.56c-.23-.79-.23-1.74-.42-2.6s-.47-2-1.62-2.42c-.33-.64-1.07-.38-1.51-.66-.63-.39-1.07 0-1.6.07a2.82 2.82 0 00-2.38 1.57 5.32 5.32 0 00-.63 2.88 2.5 2.5 0 01-.14.68c-.06.28-.23.62-.13.82.39.74.14 1.54.3 2.27a3.85 3.85 0 002.15 3.1 3.9 3.9 0 003.16.11A4.29 4.29 0 00214 300a6.6 6.6 0 00.33-1.8zM346.9 304.35V281.6c0-.88-.07-.79.79-.79H361c.71 0 1.08.23 1.14.9a14.56 14.56 0 00.58 2 8.56 8.56 0 00.59 2c.14.28 0 .67.13 1s.47.43.62.12a14.45 14.45 0 013.08-3.66 12.25 12.25 0 015.67-3 13.24 13.24 0 015-.24 11.24 11.24 0 015.17 2 13.17 13.17 0 015 7.05 17.34 17.34 0 01.93 5.46v33.08c0 .12-.21.23-.35.32s-.2 0-.3 0H372.8c-.69 0-.7 0-.7-.73v-27a5.42 5.42 0 00-1.77-4.2 3.3 3.3 0 00-3.24-.65 3.91 3.91 0 00-2.49 2.19 13.8 13.8 0 00-.65 2.28 20.12 20.12 0 00-.22 4.83v22.45c0 .94 0 .78-.8.78H347.6c-.69 0-.7 0-.7-.73z"/><path class="cls-19" d="M184.58 306.72c0 3.64.06 7.29 0 10.93a2.1 2.1 0 002.44 2.4c.33-.05.65.07 1-.21s.52-.08.52.33v6.59c0 .42-.22.38-.51.5-1 .4-2 .7-3 1-.64.2-1.4-.16-1.91.45-1.27-.06-2.49.5-3.78.32-.36-.05-.79-.17-1.1.23a.42.42 0 01-.39 0c-.37-.43-.84-.2-1.26-.22a9.31 9.31 0 01-7.34-3.6 10.49 10.49 0 01-1.09-2.23c-.12-.25-.21-.52-.31-.78a2.72 2.72 0 00-.11-.25l-.19.3c-.18.32-.38.64-.55 1a9.75 9.75 0 01-5.15 4.44 15.44 15.44 0 01-7 .79 9.73 9.73 0 01-3.77-1 13.31 13.31 0 01-2.49-1.59 10.16 10.16 0 01-2.91-3.72 9.61 9.61 0 01-1.24-4.59 2.65 2.65 0 00-.16-1.12 4.57 4.57 0 010-1.69c0-.28.16-.55.16-.83a11.65 11.65 0 012.17-6.29 14.17 14.17 0 014.45-4 38.09 38.09 0 015.19-2.32c1.54 0 2.89-.79 4.4-1a35.21 35.21 0 003.81-.93c.77-.2 1.55-.33 2.33-.49.52-.11.77-.33.77-.87 0-1 .06-2 0-3a3.91 3.91 0 00-1.55-2.94 3.23 3.23 0 00-1.18-.4c-.28-.06-.6 0-.89 0-2.08-.39-3.66 1.71-3.86 3.75v.6c0 .2.05.79-.14 1s-.58 0-.91-.17-.77 0-1.16-.07-.72-.26-1.08-.27c-.82 0-1.58-.53-2.42-.31-.66-.65-1.66.05-2.31-.6-.89.21-1.7-.34-2.57-.3s-1.47-.48-2.28-.33c-.36.07-.58-.26-.63-.65a19 19 0 01.32-5.11 19.56 19.56 0 011.55-2.8 16.57 16.57 0 015.39-4.29 9.84 9.84 0 012.8-1.14c1.07-.1 1.95-.85 3.05-.66 3.27-.92 6.62-.51 9.95-.6 2.5.54 5.05.86 7.39 2.07 3.87 2 5.41 4 6.74 7.9a23.22 23.22 0 01.67 3.63 44.46 44.46 0 01.24 6.62c-.07 2.13-.1 4.32-.1 6.52zm-17.11 4.37v-3.28c0-.7-.19-.79-.88-.52a4.29 4.29 0 01-1.29.51c-.49 0-2 1.45-2.34 1.88a2.91 2.91 0 00-.92 2.16c-.75 1.16-.09 2.25.39 3.19a2.19 2.19 0 002.47 1.43.93.93 0 01.29 0 2.26 2.26 0 002.28-2.23c.03-1.06 0-2.1 0-3.14zM275.19 306.27v11.23a2.67 2.67 0 001.2 2.34 2.45 2.45 0 002.1.07c.61-.16.62-.19.62.44v6.29c0 .42-.16.51-.51.68a18.42 18.42 0 01-3.6 1.09 20.62 20.62 0 01-5.14.63c-.4 0-.9.32-1.17.17a2.28 2.28 0 00-1.13-.17 10.09 10.09 0 01-1.35 0c-2.54-.54-4.91-1.32-6.4-3.75a8.11 8.11 0 01-1.12-2.54c0-.11-.15-.26-.25-.27a.4.4 0 00-.33.18 11.51 11.51 0 01-2.58 3.43 10.31 10.31 0 01-4.29 2.3 8.48 8.48 0 01-3.16.38c-.74-.09-1.5 0-2.25 0a9.44 9.44 0 01-2.12-.31 14.33 14.33 0 01-3.76-1.76 10.12 10.12 0 01-3.47-3.93 11 11 0 01-1.49-5.38v-3a11.9 11.9 0 013.39-8 14.55 14.55 0 014.4-3.15 18.94 18.94 0 014.69-1.7 13.07 13.07 0 002.72-.69 18.75 18.75 0 012.68-.74c1.4-.37 2.85-.61 4.26-1 .85-.2.94-.23.95-1 0-1 .07-2.1 0-3.14-.12-1.47-1.57-3.37-3.13-3.1-.53.1-1.1 0-1.6.13-1.44.41-2.05 1.27-2.49 2.81a6.12 6.12 0 00-.25 2c0 .41-.15.57-.52.48a42.76 42.76 0 00-5.17-.95 7.13 7.13 0 01-1.81-.29c-.58-.23-1.18-.09-1.68-.29s-1.27-.1-1.83-.3a6.17 6.17 0 00-1.84-.27.63.63 0 01-.66-.64 16.12 16.12 0 01.06-3.87 10 10 0 011.43-3.45 16.77 16.77 0 015-4.58 15.18 15.18 0 013.09-1.22 19 19 0 013.22-.91c.51-.09 1-.23 1.53-.29s1.06.08 1.54-.29c.12-.1.38 0 .58 0 2.15 0 4.31-.13 6.45 0a20.73 20.73 0 014.14.8 21.28 21.28 0 013.86 1.46 11.52 11.52 0 015.38 5.49 20.54 20.54 0 011.54 5.67 54 54 0 01.22 6.47c.1 2.17.05 4.29.05 6.44zm-17.1 4.73v-3.28c0-.58-.27-.75-.83-.45a24.83 24.83 0 00-2.93 1.62 4.81 4.81 0 00-1.58 2.18 5.49 5.49 0 00-.36 1.34 6.29 6.29 0 00.28 1.52 3.5 3.5 0 001 1.85 2 2 0 002 .67h.15a2.27 2.27 0 002.33-2.33 65.95 65.95 0 01-.06-3.12zM422.34 307.47h-11.4c-.49 0-.88.44-.71.86a3.72 3.72 0 01.29 1.39 6.75 6.75 0 00.29 1.22 5.12 5.12 0 003.56 4.16 3.35 3.35 0 001.73.12 5.33 5.33 0 004-2.83 3.4 3.4 0 01.42-.72.52.52 0 01.73-.21 45.59 45.59 0 005.16 2c1.19.37 2.29 1 3.44 1.47s2.17.8 3.25 1.21c.22.08.42.19.63.29.77.38.78.39.44 1.05a21.48 21.48 0 01-5.64 7.07 15.89 15.89 0 01-6.88 3.29c-1.12.22-2.24.41-3.34.65a19.21 19.21 0 01-3.19.21 15.07 15.07 0 01-3.15 0 22 22 0 01-7.08-2.07 19.7 19.7 0 01-5.62-4.16 23.25 23.25 0 01-5-8.85c-.39-1.31-.66-2.63-.95-4a11.27 11.27 0 01-.22-2.88c0-.75-.3-1.41-.32-2.12 0-1.66.51-3.29.29-5a7.54 7.54 0 00.57-2.6c.13-.89.77-1.65.63-2.59a41.7 41.7 0 012.92-5.68 18.69 18.69 0 0110.09-7.72 21 21 0 014.72-1 18.7 18.7 0 013.33-.22 28 28 0 015.2.81 22 22 0 014.18 1.53 16.61 16.61 0 015.68 4.73 18.65 18.65 0 012.17 3.45 20 20 0 011.33 3.95c.3 1.3.42 2.63.66 3.93a29.34 29.34 0 01.21 4.38 19.39 19.39 0 01-.27 2v2.1a.68.68 0 01-.76.69h-.9zm-7.94-8.39h3.43c.26 0 .46 0 .49-.35a9.81 9.81 0 00-.35-3.59 3.33 3.33 0 00-1.8-2.17 4 4 0 00-2.15-.14 2.53 2.53 0 00-1.53.9 16.34 16.34 0 00-1.14 1.89c-.52 1-.44 2.1-.83 3.09-.12.32.17.38.45.38zM300.38 327.83h-19c-.74 0-.75 0-.75-.68v-10.48a1.69 1.69 0 01.35-1.06c1-1.55 2.19-3 3.3-4.47s2.16-3.1 3.25-4.64c.67-.93 1.4-1.81 2.06-2.75 1.51-2.12 3.13-4.16 4.61-6.31a93.9 93.9 0 012.71-3.68 2.08 2.08 0 01.21-.21 1.07 1.07 0 00-.37-.15H282c-.34 0-.54 0-.54-.46v-11.67c0-.3.06-.47.4-.45h36.29c.35 0 .54 0 .53.46v10.93c0 .9-.66 1.47-1.1 2.08-1.57 2.15-3.09 4.33-4.68 6.45-1.3 1.71-2.5 3.49-3.86 5.16-1.19 1.46-2.17 3.1-3.27 4.63-1 1.35-2 2.66-3 4a3.05 3.05 0 00-.27.61 2.71 2.71 0 00.55.12H319c1.12 0 1.22.09 1.22 1.13v10.77c0 .66 0 .67-.76.67zM324.1 304.33v-22.61c0-.9 0-.91.82-.91h15.45c.82 0 .83 0 .83.75v45.51c0 .75 0 .76-.68.76h-15.74c-.68 0-.68 0-.68-.75q-.02-11.37 0-22.75zM332.72 260.44h7.8c.45 0 .7 0 .7.61v13.77c0 .4 0 .61-.54.61h-16c-.51 0-.53-.21-.53-.62v-13.76c0-.64.26-.61.71-.61z"/><text transform="translate(163.48 492.64)" font-size="30" fill="#21234c" font-family="AvenirNext-Bold, Avenir Next" font-weight="700">2017<tspan x="77.52" y="0" fill="#b0cac6"> • </tspan><tspan x="107.52" y="0">2018</tspan></text></svg>