<svg id="Layer_1" data-name="Layer 1" xmlns="http://www.w3.org/2000/svg" viewBox="0 0 497.87 111.81"><defs><style>.cls-1{fill:#bedde8}</style></defs><path class="cls-1" d="M403.41 52.48c-3.68-9.24-9.72-16.36-19-20.36-8.2-3.53-16.75-3.94-25.4-2.06-7.16 1.55-13 5.17-17 11.52a5.2 5.2 0 01-.62.66c-.06-.53-.13-.85-.13-1.18V0H323.2v108.05c.08.57.36.83 1.18.82 5.26-.05 10.51 0 15.77 0 .87 0 1.12-.3 1.11-1.14v-8.3c0-.38.06-.77.12-1.39a5.65 5.65 0 01.41.53 14.43 14.43 0 004 5.06 33.71 33.71 0 0015.05 7.29c1.81.39 3.66.6 5.5.89h4.35l3.48-.43c10.8-1.38 19.37-6.46 25.33-15.62 5.44-8.35 7.47-17.64 7.12-27.53a46.68 46.68 0 00-3.21-15.75zM385.73 85c-3.27 6.75-9 10.26-16.34 11.28-1.36.19-2.75.21-4.13.31-5.7 0-11-1.39-15.39-5.16a22.26 22.26 0 01-7.1-12c-1.93-7.85-1.62-15.58 2-22.94 3.34-6.8 9-10.46 16.44-11.47a28.71 28.71 0 0111 .54 19.81 19.81 0 0114.22 12.07 32.28 32.28 0 01-.7 27.37zM497.87 46.68V31.12H434.92c-2.79 0-2.79 0-2.79 2.79V45c0 1.52 0 1.52 1.56 1.52H475c.48 0 1 .07 1.65.13-.38.42-.57.66-.78.88l-14.8 15Q445.74 78 430.38 93.44a2.39 2.39 0 00-.73 1.83v11.82c0 2-.13 1.81 1.75 1.81h64.93c.51 0 1 0 1.55.06V93.35H454.7c.35-.46.54-.76.77-1q7-7.62 14-15.22 12.3-13.32 24.62-26.63c1.26-1.28 2.53-2.5 3.78-3.82zM408.31 1.34V17.4c0 1 .26 1.24 1.22 1.23h15.44c1.51 0 1.51 0 1.51-1.52q0-8.53.05-17.09h-18.28c.02.43.06.88.06 1.32zM426.48 32.43c0-1-.28-1.37-1.34-1.36-5.11.05-10.23 0-15.34 0-1.49 0-1.49 0-1.49 1.48v75.1c0 1 .28 1.23 1.23 1.22q7.83-.06 15.66 0c1 0 1.31-.22 1.3-1.26q-.05-37.61-.02-75.18z"/><path class="cls-1" d="M476.33 90.29a1.87 1.87 0 002 2 1.94 1.94 0 100-3.87 1.85 1.85 0 00-2 1.87zm3.57 0a1.57 1.57 0 01-1.56 1.7 1.66 1.66 0 01-.09-3.31 1.59 1.59 0 011.65 1.63z"/><path class="cls-1" d="M478 89.32c-.16 0-.36.36-.39.58a4.66 4.66 0 000 1.12c0 .08.09.15.16.25l.33-.73.73.83c.07-.43.15-.76.17-1.1s.08-.65-.05-.73a1.51 1.51 0 00-.95-.22zM39.89 99.46c-.17 0-.31.25-.45.41-5.11 5.64-14.75 6.75-21.63 2.48-8-5-11.94-15.49-9.17-24.86 2.11-7.13 6.47-12.19 13.8-14.32a8.93 8.93 0 0110.2 3.13c1.42 1.78 2.58 3.76 3.91 5.6a8.72 8.72 0 001.74 1.89c.82.62 1.61.29 1.94-.69a3.89 3.89 0 00.21-1.1v-5.9a2.22 2.22 0 00-1.19-2c-.58-.32-1.13-.68-1.73-.94a25.71 25.71 0 00-17.12-1.45c-9 2.37-15.61 7.64-19 16.46A43.62 43.62 0 000 83.6V88a5.91 5.91 0 01.19.69 23.18 23.18 0 0022.06 20.1 22.49 22.49 0 0017.37-6.4 9.3 9.3 0 001.48-2 1 1 0 00-.21-1c-.19-.16-.67-.02-1 .07zM276.59 99.63a4.56 4.56 0 00-1.12.58c-.81.74-1.49 1.65-2.35 2.33-1.56 1.23-2.79.72-3-1.24a27.7 27.7 0 01-.13-3.41V37v-1c0-.74-.51-1-1.14-.83a2.92 2.92 0 00-1.12.51 20.83 20.83 0 01-8.12 3.32c-.74.18-1.49.28-2.23.47s-1.33.39-1.23 1.27.78.88 1.41.92 1 0 1.45 0a3.49 3.49 0 013.8 3.42 10.18 10.18 0 01.07 1.35v15.14c0 2.11-.45 2.39-2.42 1.6a29.43 29.43 0 00-13-2.29c-9.43.67-16.43 5.55-20.88 13.71-5.05 9.29-2.45 21.84 5.63 28.83 5.26 4.55 11.33 6.36 18.2 4.83 3.4-.75 6.27-2.65 9.06-4.66.72-.52 1.47-1 2.23-1.5s1.08-.15 1.27.5a9.92 9.92 0 01.28 1.63c.09.86.09 1.73.22 2.58.2 1.24.75 1.51 1.89 1 3-1.22 6-2.61 9-3.6 1.86-.6 2.61-1.57 2.47-3.39a6.52 6.52 0 00-.24-1.18zm-15.45.54a15.63 15.63 0 01-8.93 4c-8.28 1.15-14.57-3.17-17.88-9.73-4.23-8.4-3.22-18.73 2.56-25.28a18.51 18.51 0 0114.27-6.46 15.25 15.25 0 017 1.78c3.42 1.7 4.64 4.65 4.69 8.24.05 3.93 0 7.87 0 11.81v11.61a5.2 5.2 0 01-1.71 4.03z"/><path class="cls-1" d="M322.77 79.14c-1.74-6.59-5.35-11.72-11.35-15-6.89-3.75-14.25-4.23-21.72-2.27a23.31 23.31 0 00-14.22 34.8c5 8.27 12.8 11.81 22.41 12.16 1.3-.12 2.75-.17 4.18-.4a29.07 29.07 0 004.12-1c12.96-4.06 19.49-17.22 16.58-28.29zM310 100.84c-6.41 7.73-16.58 8.09-23.43.76-7.12-7.62-9.35-21.13-2.87-31 5.67-8.69 17.24-10.39 24.62-3.62a21.57 21.57 0 016.33 11.42c.51 2.21.71 4.49.92 5.87-.24 6.67-1.81 12.03-5.57 16.57zM80.1 64.15c-6.25-3.47-13-4-19.9-2.71A23.39 23.39 0 0044.38 97a24.47 24.47 0 0020.39 11.76c9.26 0 16.21-3 21.14-8.35a23.43 23.43 0 00-5.81-36.26zm-2.16 37.57a15 15 0 01-21.9.68 25.12 25.12 0 01-7.21-14.92 23.69 23.69 0 014-17.54c7.15-10.13 21.33-9.41 27.7 1.35a28.2 28.2 0 013.7 14 25.18 25.18 0 01-6.29 16.43zM144.83 64.89c-6.82-4.34-14.35-5-22.06-3.23a23.31 23.31 0 00-15.45 34.43A24.26 24.26 0 00128 108.77c6.73 0 11.33-1.17 15.57-3.65 15.43-9 16.09-30.78 1.26-40.23zm-2.59 35.9c-6.22 7.65-16.3 8.1-23.24 1.1-7.62-7.68-9.2-21.7-3.44-30.84 3.57-5.67 8.68-8.62 15.45-8.18 6.35.42 10.64 4 13.56 9.42a28.12 28.12 0 013.14 12.95 25.26 25.26 0 01-5.47 15.55zM225.65 101.53c-.74.5-1.34 1.21-2.1 1.66a3 3 0 01-4.58-1.53 10 10 0 01-.74-3.41c-.08-5 0-10.09 0-15.13h-.1V68.6a6.41 6.41 0 00-4.07-6.38 13.36 13.36 0 00-3.14-1c-7.09-1.19-13.56.52-19.56 4.3a17.74 17.74 0 00-6.17 5.88 14.53 14.53 0 00-1.34 3.85c-.21.89.38 1.42 1.28 1.26a30.63 30.63 0 003.4-.83 5.33 5.33 0 003.58-3.32c.4-1 .88-1.88 1.36-2.8 2.43-4.57 6.14-6.92 11.42-6.74 3.53.13 5.65 1.86 5.87 5.37s.16 6.91.18 10.36a3 3 0 01-1.83 2.9l-4 1.93c-4.27 2.12-8.58 4.15-12.78 6.39a18.19 18.19 0 00-6.9 6c-3.07 4.67-1.44 10 3.71 12.14 3.46 1.42 6.91 1 10.32-.18 3.69-1.29 6.74-3.6 9.71-6 1.19-1 1.4-.92 2.11.47a40.84 40.84 0 002.09 3.92 4.48 4.48 0 004.56 2.06 13.63 13.63 0 007.5-3.68 7.64 7.64 0 001.5-1.93c.16-.29-.09-.8-.16-1.21a3 3 0 00-1.12.17zM211 89.28v4.56a8 8 0 01-2.14 5.57 13.56 13.56 0 01-10.53 4.59c-5.5-.11-8.36-5-5.74-9.83a10.65 10.65 0 014.41-4.38c4.13-2.23 8.32-4.34 12.5-6.47.92-.46 1.4-.13 1.43 1 .07 1.68.07 3.3.07 4.96z"/><path class="cls-1" d="M107.87 105.62c-.75-.11-1.52-.14-2.27-.24-2.63-.35-3.85-1.67-4-4.31V43.32v-7c0-1-.49-1.37-1.47-1a3.18 3.18 0 00-.91.48 16.79 16.79 0 01-5.87 2.74c-1.33.37-2.68.65-4 1-.75.18-1.66.29-1.55 1.31s1 .92 1.8.94h1.24c2.09.09 3.32 1.11 3.54 3.18a38.67 38.67 0 01.13 4.44v48.4c0 1 .09 1.93 0 2.9-.15 3.12-1.37 4.39-4.48 4.72-.69.07-1.39.09-2.06.22A1.18 1.18 0 0087 107c0 .77.61 1 1.23 1h2c3.38-.1 6.76-.27 10.14-.28 2.49 0 5 .21 7.45.31.71 0 1.35-.09 1.41-1s-.63-1.29-1.36-1.41zM185.22 67.15a4.67 4.67 0 00-3.38-5.27 8.8 8.8 0 00-7.72 1.12 21.78 21.78 0 00-5.38 5.11c-.47.57-1 1.09-1.5 1.64l-.34-.09a11.57 11.57 0 01-.24-1.53v-6.22c0-1.06-.81-1.45-1.68-.85a3.44 3.44 0 00-.68.64 19 19 0 01-5.93 4.45c-1.42.7-3 1.14-4.38 1.84a1.94 1.94 0 00-1 1.37c0 .75.76.71 1.35.73.9 0 1.79.07 2.68.17a2.22 2.22 0 012.08 1.87 18.29 18.29 0 01.42 3.28q.07 12.64 0 25.3c0 3-1.35 4.35-4.29 4.66-.69.07-1.38.1-2.06.21s-1.21.46-1.18 1.3.62 1 1.28 1h1.86c3.31-.1 6.62-.27 9.93-.28 2.56 0 5.11.21 7.67.31.7 0 1.35-.09 1.44-1s-.55-1.22-1.27-1.35-1.51-.14-2.26-.24c-2.58-.34-3.77-1.5-4-4.07-.1-1.09 0-2.21 0-3.31 0-7.12 0-14.24.16-21.36a11.54 11.54 0 015.3-9.28c1.71-1.23 3.18-1 4.63.52.41.42.77.89 1.17 1.31a4.21 4.21 0 004.66 1.1 3.65 3.65 0 002.66-3.08z"/></svg>