<svg id="Layer_1" data-name="Layer 1" xmlns="http://www.w3.org/2000/svg" viewBox="0 0 512 512">
  <defs>
    <style>
      .cls-1{fill:#6e7b95}.cls-2{fill:#18263e}.cls-3{fill:#465671}.cls-4{fill:#95b8c5}.cls-5{fill:#a9cedc}
    </style>
  </defs>
  <circle class="cls-1" cx="144" cy="320" r="48"/>
  <circle class="cls-2" cx="336" cy="304" r="64"/>
  <circle class="cls-3" cx="264" cy="120" r="40"/>
  <circle class="cls-2" cx="136" cy="136" r="24"/>
  <circle class="cls-4" cx="224" cy="336" r="16"/>
  <circle class="cls-3" cx="336" cy="400" r="16"/>
  <circle class="cls-5" cx="192" cy="400" r="16"/>
  <circle class="cls-4" cx="144" cy="400" r="16"/>
  <circle class="cls-5" cx="96" cy="384" r="16"/>
  <circle class="cls-5" cx="128" cy="448" r="16"/>
  <circle class="cls-4" cx="64" cy="320" r="16"/>
  <circle class="cls-5" cx="48" cy="368" r="16"/>
  <circle class="cls-5" cx="48" cy="272" r="16"/>
  <circle class="cls-4" cx="96" cy="256" r="16"/>
  <circle class="cls-5" cx="144" cy="240" r="16"/>
  <circle class="cls-4" cx="192" cy="256" r="16"/>
  <circle class="cls-3" cx="240" cy="288" r="16"/>
  <circle class="cls-3" cx="272" cy="240" r="16"/>
  <circle class="cls-5" cx="224" cy="224" r="16"/>
  <circle class="cls-1" cx="272" cy="192" r="16"/>
  <circle class="cls-1" cx="320" cy="160" r="16"/>
  <circle class="cls-5" cx="368" cy="160" r="16"/>
  <circle class="cls-3" cx="320" cy="208" r="16"/>
  <circle class="cls-3" cx="368" cy="208" r="16"/>
  <circle class="cls-3" cx="416" cy="240" r="16"/>
  <circle class="cls-5" cx="416" cy="128" r="16"/>
  <circle class="cls-4" cx="464" cy="112" r="16"/>
  <circle class="cls-5" cx="448" cy="192" r="16"/>
  <circle class="cls-5" cx="464" cy="240" r="16"/>
  <circle class="cls-3" cx="432" cy="288" r="16"/>
  <circle class="cls-3" cx="416" cy="352" r="16"/>
  <circle class="cls-5" cx="464" cy="336" r="16"/>
  <circle class="cls-3" cx="384" cy="400" r="16"/>
  <circle class="cls-5" cx="432" cy="400" r="16"/>
  <circle class="cls-5" cx="400" cy="448" r="16"/>
  <circle class="cls-3" cx="288" cy="384" r="16"/>
  <circle class="cls-3" cx="240" cy="384" r="16"/>
  <circle class="cls-5" cx="272" cy="432" r="16"/>
  <circle class="cls-5" cx="320" cy="448" r="16"/>
  <circle class="cls-5" cx="368" cy="480" r="16"/>
  <circle class="cls-5" cx="176" cy="448" r="16"/>
  <circle class="cls-5" cx="80" cy="432" r="16"/>
  <circle class="cls-1" cx="80" cy="208" r="16"/>
  <circle class="cls-1" cx="128" cy="192" r="16"/>
  <circle class="cls-4" cx="176" cy="192" r="16"/>
  <circle class="cls-1" cx="192" cy="144" r="16"/>
  <circle class="cls-1" cx="192" cy="96" r="16"/>
  <circle class="cls-1" cx="144" cy="80" r="16"/>
  <circle class="cls-1" cx="96" cy="96" r="16"/>
  <circle class="cls-5" cx="176" cy="48" r="16"/>
  <circle class="cls-5" cx="224" cy="32" r="16"/>
  <circle class="cls-1" cx="272" cy="48" r="16"/>
  <circle class="cls-1" cx="320" cy="64" r="16"/>
  <circle class="cls-5" cx="320" cy="16" r="16"/>
  <circle class="cls-5" cx="368" cy="48" r="16"/>
  <circle class="cls-1" cx="336" cy="112" r="16"/>
  <circle class="cls-5" cx="384" cy="96" r="16"/>
  <circle class="cls-5" cx="48" cy="160" r="16"/>
  <circle class="cls-1" cx="96" cy="160" r="16"/>
</svg>
