<svg xmlns="http://www.w3.org/2000/svg" viewBox="0 0 482.44 412.74"><defs><style>.cls-2{fill:#9e9e9f}.cls-3{fill:#dfdfdf}.cls-4{fill:#26344e}.cls-10,.cls-11,.cls-13,.cls-19,.cls-20,.cls-5,.cls-6,.cls-9{fill:none;stroke-linecap:round;stroke-linejoin:round;stroke-width:3px}.cls-5{stroke:#678f9e}.cls-6{stroke:#465671}.cls-7{fill:#465671}.cls-9{stroke:#9e9e9f}.cls-10{stroke:#252526}.cls-11{stroke:#4d6b76}.cls-12{fill:#678f9e}.cls-13{stroke:#a9cedc}.cls-14{fill:#95c0d1}.cls-16{fill:#a9cedc}.cls-19{stroke:#0c131f}.cls-20{stroke:#630006}.cls-21{fill:#630006}</style></defs><circle cx="240.24" cy="232.84" r="179.9" fill="#d2ecf3" id="Background"/><g id="Layer_8" data-name="Layer 8"><path class="cls-2" d="M381.61 218.32l8.64 39.68s1.55 9.53-10 9.75-93.12-.22-93.12-.22 35.7-6.43 42.13-8.2 14-5.76 13.08-17.07-2.66-23.94-2.66-23.94zM100.12 218.32L91.48 258s-1.55 9.53 10 9.75 93.12-.22 93.12-.22-35.7-6.43-42.13-8.2-14-5.76-13.08-17.07 2.61-23.94 2.61-23.94z"/><path class="cls-3" d="M8.94 1.72l229.45 52.1v170.26l-223.47-.89L1.39 17.5A17.86 17.86 0 018.94 1.72zM243.49 54.26v168.93l224.13.45 13.74-206a17.87 17.87 0 00-7.66-15.92l-.31-.22z"/><path class="cls-4" d="M17.94 11.5L233.4 60.03l-1.33 143.61-200.5-3.61L17.94 11.5M464.41 11.5L248.95 60.03l1.33 143.61 200.49-3.61L464.41 11.5"/><path class="cls-5" d="M391.86 48.06l31.26 43.72M406.99 70l-5.65 27.27M435.59 57.03l-28.72 13M378.23 68.84L407.16 70M432.43 50.72l-25.44 19.12M385.54 91.95l21.14-22.05"/><path class="cls-6" d="M367.09 102.93l15.13-2M367.42 95.44l8.48-1.33M367.92 48.89l11.3-2.5M430.27 36.25l16.96-2.99M437.25 42.24l9.48-1.5M431.27 94.61l10.64-1.66M368.08 118.22l-.66 18.29M378.34 116.89l-.76 18.6M388.61 115.56l-.86 18.91M398.87 114.23l-.95 19.22M409.13 112.9l-1.05 19.53M419.39 111.57l-1.14 19.83M429.65 110.24l-1.23 20.14M439.91 108.91l-1.33 20.45M359.1 151.97l24.78 20.46 6.82-6.16 13.46 14.3 19.29-30.76 8.98 4.33 12.97-11.48"/><path class="cls-5" d="M358.44 171.43l18.29-16.3 7.15 7.32 10.14-5.65 23.11 17.79 17.3-4.33 9.97-15.79"/><path class="cls-6" d="M351.79 54.71l-22.95 5.32M351.46 67.22l-22.95 4.65M351.12 79.73l-22.94 3.99M350.79 92.24l-22.94 3.33M350.46 104.75l-22.95 2.66"/><circle class="cls-7" cx="345.55" cy="128.78" r="6.4"/><circle class="cls-7" cx="326.76" cy="130.78" r="6.4"/><ellipse class="cls-7" cx="349.96" cy="152.39" rx="1.5" ry="1.41"/><ellipse class="cls-7" cx="349.96" cy="160.23" rx="1.5" ry="1.41"/><ellipse class="cls-7" cx="349.96" cy="168.06" rx="1.5" ry="1.41"/><ellipse class="cls-7" cx="349.96" cy="175.9" rx="1.5" ry="1.41"/><ellipse class="cls-7" cx="349.96" cy="183.73" rx="1.5" ry="1.41"/><ellipse class="cls-7" cx="343.49" cy="152.77" rx="1.5" ry="1.41"/><ellipse class="cls-7" cx="343.49" cy="160.58" rx="1.5" ry="1.41"/><ellipse class="cls-7" cx="343.49" cy="168.39" rx="1.5" ry="1.41"/><ellipse class="cls-7" cx="343.5" cy="176.2" rx="1.5" ry="1.41"/><ellipse class="cls-7" cx="343.5" cy="184.01" rx="1.5" ry="1.41"/><ellipse class="cls-7" cx="337.02" cy="153.15" rx="1.5" ry="1.41"/><ellipse class="cls-7" cx="337.02" cy="160.93" rx="1.5" ry="1.41"/><ellipse class="cls-7" cx="337.03" cy="168.72" rx="1.5" ry="1.41"/><ellipse class="cls-7" cx="337.03" cy="176.51" rx="1.5" ry="1.41"/><ellipse class="cls-7" cx="337.04" cy="184.3" rx="1.5" ry="1.41"/><ellipse class="cls-7" cx="330.54" cy="153.52" rx="1.5" ry="1.41"/><ellipse class="cls-7" cx="330.55" cy="161.29" rx="1.5" ry="1.41"/><ellipse class="cls-7" cx="330.56" cy="169.05" rx="1.5" ry="1.41"/><ellipse class="cls-7" cx="330.57" cy="176.81" rx="1.5" ry="1.41"/><ellipse class="cls-7" cx="330.58" cy="184.58" rx="1.5" ry="1.41"/><ellipse class="cls-7" cx="324.07" cy="153.9" rx="1.5" ry="1.41"/><ellipse class="cls-7" cx="324.09" cy="161.64" rx="1.5" ry="1.41"/><ellipse class="cls-7" cx="324.1" cy="169.38" rx="1.5" ry="1.41"/><ellipse class="cls-7" cx="324.11" cy="177.12" rx="1.5" ry="1.41"/><ellipse class="cls-7" cx="324.12" cy="184.86" rx="1.5" ry="1.41"/><ellipse class="cls-7" cx="317.6" cy="154.28" rx="1.5" ry="1.41"/><ellipse class="cls-7" cx="317.62" cy="161.99" rx="1.5" ry="1.41"/><ellipse class="cls-7" cx="317.63" cy="169.71" rx="1.5" ry="1.41"/><ellipse class="cls-7" cx="317.65" cy="177.42" rx="1.5" ry="1.41"/><ellipse class="cls-7" cx="317.66" cy="185.14" rx="1.5" ry="1.41"/><ellipse class="cls-7" cx="311.13" cy="154.65" rx="1.5" ry="1.41"/><ellipse class="cls-7" cx="311.15" cy="162.35" rx="1.5" ry="1.41"/><ellipse class="cls-7" cx="311.17" cy="170.04" rx="1.5" ry="1.41"/><ellipse class="cls-7" cx="311.19" cy="177.73" rx="1.5" ry="1.41"/><ellipse class="cls-7" cx="311.21" cy="185.42" rx="1.5" ry="1.41"/><ellipse class="cls-7" cx="304.66" cy="155.03" rx="1.5" ry="1.41"/><ellipse class="cls-7" cx="304.68" cy="162.7" rx="1.5" ry="1.41"/><ellipse class="cls-7" cx="304.7" cy="170.37" rx="1.5" ry="1.41"/><ellipse class="cls-7" cx="304.72" cy="178.03" rx="1.5" ry="1.41"/><ellipse class="cls-7" cx="304.75" cy="185.7" rx="1.5" ry="1.41"/><ellipse class="cls-7" cx="298.19" cy="155.41" rx="1.5" ry="1.41"/><ellipse class="cls-7" cx="298.21" cy="163.05" rx="1.5" ry="1.41"/><ellipse class="cls-7" cx="298.24" cy="170.7" rx="1.5" ry="1.41"/><ellipse class="cls-7" cx="298.26" cy="178.34" rx="1.5" ry="1.41"/><ellipse class="cls-7" cx="298.29" cy="185.98" rx="1.5" ry="1.41"/><ellipse class="cls-7" cx="291.71" cy="155.79" rx="1.5" ry="1.41"/><ellipse class="cls-7" cx="291.74" cy="163.41" rx="1.5" ry="1.41"/><ellipse class="cls-7" cx="291.77" cy="171.03" rx="1.5" ry="1.41"/><ellipse class="cls-7" cx="291.8" cy="178.65" rx="1.5" ry="1.41"/><ellipse class="cls-7" cx="291.83" cy="186.26" rx="1.5" ry="1.41"/><ellipse class="cls-7" cx="285.24" cy="156.16" rx="1.5" ry="1.41"/><ellipse class="cls-7" cx="285.27" cy="163.76" rx="1.5" ry="1.41"/><ellipse class="cls-7" cx="285.31" cy="171.35" rx="1.5" ry="1.41"/><ellipse class="cls-7" cx="285.34" cy="178.95" rx="1.5" ry="1.41"/><ellipse class="cls-7" cx="285.37" cy="186.55" rx="1.5" ry="1.41"/><ellipse class="cls-7" cx="278.77" cy="156.54" rx="1.5" ry="1.41"/><ellipse class="cls-7" cx="278.81" cy="164.11" rx="1.5" ry="1.41"/><ellipse class="cls-7" cx="278.84" cy="171.68" rx="1.5" ry="1.41"/><ellipse class="cls-7" cx="278.88" cy="179.26" rx="1.5" ry="1.41"/><ellipse class="cls-7" cx="278.91" cy="186.83" rx="1.5" ry="1.41"/><ellipse class="cls-7" cx="272.3" cy="156.92" rx="1.5" ry="1.41"/><ellipse class="cls-7" cx="272.34" cy="164.47" rx="1.5" ry="1.41"/><ellipse class="cls-7" cx="272.37" cy="172.01" rx="1.5" ry="1.41"/><ellipse class="cls-7" cx="272.41" cy="179.56" rx="1.5" ry="1.41"/><ellipse class="cls-7" cx="272.45" cy="187.11" rx="1.5" ry="1.41"/><ellipse class="cls-7" cx="265.83" cy="157.3" rx="1.5" ry="1.41"/><ellipse class="cls-7" cx="265.87" cy="164.82" rx="1.5" ry="1.41"/><ellipse class="cls-7" cx="265.91" cy="172.34" rx="1.5" ry="1.41"/><ellipse class="cls-7" cx="265.95" cy="179.87" rx="1.5" ry="1.41"/><ellipse class="cls-7" cx="265.99" cy="187.39" rx="1.5" ry="1.41"/></g><g id="Layer_7" data-name="Layer 7"><path class="cls-6" d="M166.12 53.82l2.22 77.59M178.2 56.37l1.61 76.1M190.28 58.92l1 74.6M202.37 61.47l.38 73.1M214.45 64.02v70.72M154.48 62.47l70.61 13.08M154.81 70.05c.09 0 70.11 12.2 70.11 12.2M155.15 77.62c.16 0 69.61 11.34 69.61 11.34M155.48 85.2c.25 0 69.11 10.46 69.11 10.46M155.81 92.78c.33 0 68.62 9.59 68.62 9.59M156.14 100.36c.42 0 68.12 8.72 68.12 8.72M156.48 107.94c.49 0 67.61 7.84 67.61 7.84M156.81 115.52c.58 0 67.12 7 67.12 7M157.14 123.1c.67 0 66.62 6.1 66.62 6.1M75.22 74.88c4 .22 2.44-18.62 9.09-17.29s7.76 10.2 12.42 11.3 5.76 34.59 13.52 35.48 14.63-35.7 19.51-35 5.32 4.21 7.76 4.65 9.31-1.33 13.08-.22 4.77 5.1 4.77 5.1"/><path d="M78.33 110.8c5.54.22.44-27.49 7.31-26.83s4.22 10.64 8.87 11.08 3.33-17.05 7.76-16.62 2.88 10.64 6.87 11.3 4.44-25.71 8-25.27 5.54 35.25 11.08 35.92 2.22-20.4 7.09-20 9.09-25.05 18.4-23.94" stroke="#95c0d1" fill="none" stroke-linecap="round" stroke-linejoin="round" stroke-width="3"/><path class="cls-9" d="M7.94 1.5l230.78 52.54v169.6H21.57L7.94 1.5z"/><path class="cls-10" d="M17.94 11.5L233.4 60.03l-1.33 143.61-200.5-3.61L17.94 11.5z"/><path class="cls-9" d="M7.94 1.5a17.36 17.36 0 00-6.4 14.63l13.38 207.51h6.66M99.06 224.3l-7.13 32.85a8.61 8.61 0 008.43 10.38h102.45l-49-7.91a16.28 16.28 0 01-13.64-17.36l1.47-18.62M474.5 1.5L243.71 54.04v169.6h217.15L474.5 1.5z"/><path class="cls-10" d="M464.5 11.5L249.03 60.03l1.33 143.61 200.5-3.61L464.5 11.5z"/><path class="cls-9" d="M474.5 1.5a17.39 17.39 0 016.4 14.63l-13.39 207.51h-6.65M383.38 224.3l7.13 32.85a8.61 8.61 0 01-8.43 10.38H279.63l49-7.91a16.28 16.28 0 0013.64-17.36l-1.48-18.62"/><path class="cls-11" d="M26.9 22.45l13.3 166.6 183.23 4.33 1.99-127.37L26.9 22.45zM455.54 22.45l-13.3 166.6-183.23 4.33-2-127.37 198.53-43.56zM71.79 32.76l10.97 155.96M154.26 52.05l2.66 77.15M78.44 124.54l144.99 11.64M361.1 44.07l-2.99 145.98M445.56 136.18l-186.22 14.96M448.89 100.93l-190.21 24.61"/><ellipse class="cls-12" cx="36.84" cy="36.4" rx="3.29" ry="3.42"/><path class="cls-5" d="M45.96 37.64l18.4 3.32"/><ellipse class="cls-7" cx="37.76" cy="47.4" rx="3.29" ry="3.42"/><path class="cls-5" d="M46.9 48.6l18.14 3.14"/><ellipse class="cls-12" cx="38.68" cy="58.39" rx="3.29" ry="3.42"/><path class="cls-13" d="M47.84 59.56l13.24 2.19"/><ellipse class="cls-7" cx="39.6" cy="69.39" rx="3.29" ry="3.42"/><path class="cls-5" d="M48.78 70.53l17.63 2.76"/><ellipse class="cls-7" cx="40.52" cy="80.39" rx="3.29" ry="3.42"/><path class="cls-5" d="M49.71 81.49l13.73 2.04"/><ellipse class="cls-7" cx="41.44" cy="91.39" rx="3.29" ry="3.42"/><path class="cls-5" d="M50.65 92.46l17.12 2.38"/><ellipse class="cls-7" cx="42.37" cy="102.29" rx="3.29" ry="3.42"/><path class="cls-13" d="M51.59 103.33l16.86 2.2"/><ellipse class="cls-7" cx="43.29" cy="113.18" rx="3.29" ry="3.42"/><path class="cls-5" d="M52.53 114.18l16.61 2.01"/><ellipse class="cls-7" cx="44.21" cy="124.07" rx="3.29" ry="3.42"/><path class="cls-5" d="M53.46 125.03l11.57 1.29"/><ellipse class="cls-12" cx="45.13" cy="134.96" rx="3.29" ry="3.42"/><path class="cls-5" d="M54.4 135.89l9.73.98"/><ellipse class="cls-7" cx="46.05" cy="145.84" rx="3.29" ry="3.42"/><path class="cls-13" d="M55.34 146.74l15.84 1.45"/><ellipse class="cls-7" cx="46.97" cy="156.73" rx="3.29" ry="3.42"/><path class="cls-5" d="M56.28 157.59l12.49 1.01"/><ellipse class="cls-7" cx="47.89" cy="167.57" rx="3.29" ry="3.42"/><path class="cls-5" d="M57.22 168.4l15.33 1.08"/><ellipse class="cls-7" cx="48.81" cy="178.5" rx="3.29" ry="3.42"/><path class="cls-13" d="M58.15 179.3l15.08.89"/><path class="cls-6" d="M115.13 117.89l32.59 2.66M129.1 111.46l17.29 1.11"/><path class="cls-7" d="M90.36 138.1l.35 4.48a1.28 1.28 0 001.19 1.17L211.48 152a1.15 1.15 0 001.22-1.14v-4.74a1.14 1.14 0 00-1.06-1.13l-119.9-8.28a1.28 1.28 0 00-1.38 1.39z"/><path class="cls-12" d="M160.73 141.5l-69-4.77a1.26 1.26 0 00-1.36 1.37l.35 4.48a1.28 1.28 0 001.19 1.17l68.74 4.75z"/><path class="cls-14" d="M124.14 139l-32.42-2.23a1.28 1.28 0 00-1.36 1.38l.35 4.48a1.28 1.28 0 001.19 1.17l32.36 2.2z"/><path class="cls-7" d="M91.36 150.8l.35 4.47a1.29 1.29 0 001.21 1.18l118.6 6.6a1.14 1.14 0 001.2-1.14v-4.73a1.13 1.13 0 00-1.07-1.13l-118.94-6.63a1.28 1.28 0 00-1.35 1.38z"/><path class="cls-12" d="M184.37 154.53l-91.66-5.11a1.28 1.28 0 00-1.35 1.38l.35 4.47a1.29 1.29 0 001.21 1.18l91.31 5.11z"/><path class="cls-14" d="M140.46 152.09l-47.75-2.67a1.28 1.28 0 00-1.35 1.38l.35 4.47a1.29 1.29 0 001.21 1.18l47.7 2.67z"/><path class="cls-7" d="M92.36 163.5l.35 4.46a1.29 1.29 0 001.23 1.18l117.62 5a1.14 1.14 0 001.19-1.14v-4.72a1.14 1.14 0 00-1.09-1.14l-118-5a1.29 1.29 0 00-1.3 1.36z"/><path class="cls-12" d="M202.52 166.71l-108.83-4.59a1.29 1.29 0 00-1.33 1.38l.35 4.46a1.29 1.29 0 001.23 1.18l108.62 4.6z"/><path class="cls-14" d="M136.3 163.93l-42.61-1.81a1.29 1.29 0 00-1.33 1.38l.35 4.46a1.29 1.29 0 001.23 1.18l42.42 1.86z"/><path class="cls-7" d="M93.37 176.2l.35 4.45a1.28 1.28 0 001.28 1.18l116.64 3.39a1.14 1.14 0 001.18-1.14v-4.72a1.14 1.14 0 00-1.1-1.14l-117-3.4a1.28 1.28 0 00-1.35 1.38z"/><path class="cls-12" d="M181.8 177.35l-87.12-2.53a1.28 1.28 0 00-1.31 1.38l.35 4.45a1.28 1.28 0 001.28 1.18l86.94 2.55z"/><path class="cls-14" d="M159.36 176.69l-64.68-1.87a1.28 1.28 0 00-1.31 1.38l.35 4.45a1.28 1.28 0 001.28 1.18l64.54 1.89z"/><path class="cls-5" d="M436.25 65.35c-1 19-12.8 30.92-30.09 32.75-15.8 1.67-29.1-8.22-29.1-24.11s13.14-29.92 29.6-32.09 30.6 4.28 29.59 23.45z"/></g><g id="Flats"><path fill="#bebebf" d="M97.73 286.82H34.54l2-16.29H436.58l2 16.29H97.73z"/><path class="cls-16" d="M322 331.31c1.92 4.73 3.87 9.38 5.14 12 3.33 7 20.62 12.31 23.94 11.31s8.32-1.33 11.31-11.31c2.62-8.73 1.93-23.31-6.31-37.07-9.94-10.77-41.08 6.15-34.08 25.07zM125.09 263.17a74.48 74.48 0 00-8.41 3.37c-9.64 4.65-13.3 17.29-13.3 23.61s5.65 17.62 12.3 17.29c5.38-.27 16.39-2.93 28-10.42 10.29-5.77.53-33.7-.8-34.59s-.89-6.87-16.18-7.53c-6 .33-8-1.67-8-1.67s-6.65-5-10.64-5.65-6 5.32-7.65 5.65-8.32 2-9.31 4.33-12 1.66-14.64 2.66-8.31 3.32-8.64 7.65a83.62 83.62 0 0113 1c-.34 4.33 6 12.64 10.64 12.64s12 8.65 12 8.65M307.56 75.66c-8.31-30.15-38.29-26.17-56.64-25.83-12 .22-26.92 9.06-30.7 22.49a311.78 311.78 0 00-9.67 36.52c-4 5.84-7.19 11.48-6.41 13 .35.7 2.31 1.83 4 2.59a104.07 104.07 0 00-.29 24.35 10.15 10.15 0 009.7 8.82 134.49 134.49 0 0015.24-.51c-.51 11.81-4 21.63-8.78 28.41l-4.74 5.84c-.12.33 7.42 13.64 9 14.74s24.5 5.1 25.61 5.44 33.14 1.88 33.14 1.88l2.77-18.62s-4.55-1.06-5-3.55c-1.23-7-3.58-23-2.11-36.3 0 0-.55-10.92 12.19-19.35s21-29.77 12.69-59.92z"/><path d="M335.83 77s-12-25.28-26.61-24.94c-10.64-16-31.59-29.6-39.9-22.62s-23.94 19-45.89-.33c-2.66 4-2.33 11.64-2.33 11.64-12.3.33-15.63-7.32-17.29-14.63-7 14.3-12 43.89 16 46.22 20.62 2 18.29 22 18.29 22-2 12-3.66 18-3.66 18l6.72-2.65.19.31c6-9.47 19.57-15.68 18.36 0-.85 11.07-5.24 14.64-9 15.87l.33.56c.84 4.55 3.26 15.74 5.67 9.84 0 0 6.65 18.79 12 19.29a30.21 30.21 0 011.67-9.31s17.12 13.13 23.94 14.63c.5-5.49.33-8 6.32-18.29 0 0 5.15 5.65 8.64 5.65-.16-5.65 3-12 10.31-26.94 12.31-9.31 15.3-27.93 14-35.24S333.5 77 335.83 77z" fill="#121c2f"/><path d="M224.43 185.06l-2 1c-14.63 0-26.6 11-42.23 13.3s-27.27 17.64-34.59 39.91c-7 5.65-20.28 19.28-20.28 19.28 1.33 20.29 17.62 45.23 36.91 47.22 3.66-9.64 5-12.63 9.64-20.61 4.29-7.35 8.28-9.34 8.89-9.61-1.18 21.89-11.73 86.77-19.88 118.79a180.5 180.5 0 00140.37 7.79c.27-12.89 1.2-30.23 4-42.82 1.49-6.73 3.32-17.7 5.32-30l4.66 1.38a35.08 35.08 0 007 .74c17.28 0 29.82-14.29 39.23-36.66-5-4.32-25.6-39.57-24.94-58.53s-35.25-38.57-51.21-44.56l3.16 3.33c.23 5.16-7.93 7.51-21.38 7.51a184.18 184.18 0 01-19.36-1.19c-12.3-1.33-27.93-10.64-23.27-16.3" fill="#94000a"/></g><g id="Lines"><path class="cls-9" d="M179.2 286.82h-6.87M346.8 270.53h89.78l2 16.29h-82.8M97.73 286.82H34.54l2-16.29h42.57"/><path class="cls-5" d="M356.12 306.28c8.24 13.76 8.93 28.34 6.31 37.07-3 10-8 10.31-11.31 11.31s-20.61-4.32-23.94-11.31c-1.27-2.66-3.22-7.31-5.14-12M143.64 297c-11.57 7.49-22.58 10.15-28 10.42-6.65.33-12.3-11-12.3-17.29s3.66-19 13.3-23.61a74.48 74.48 0 018.41-3.37"/><path class="cls-5" d="M126.66 254.9c-6 .33-8-1.67-8-1.67s-6.65-5-10.64-5.65-6 5.32-7.65 5.65-8.32 2-9.31 4.33-12 1.66-14.64 2.66-8.31 3.32-8.64 7.65a83.62 83.62 0 0113 1c-.34 4.33 6 12.64 10.64 12.64s12 8.65 12 8.65"/><path class="cls-19" d="M239.72 112.9c4.66-11 21.28-20.28 20-3s-11.3 16.29-14 16.63"/><path class="cls-5" d="M220.22 72.32c-7.65 23.29-15.2 54.86-12.42 76.5a10.15 10.15 0 009.7 8.82 134.49 134.49 0 0015.24-.51c-.51 11.81-4 21.63-8.78 28.41M241.72 136.84c-1.67 7.65-14.19 17.66-24.22 20.8"/><path class="cls-5" d="M210.18 108.9c-4.68 6.58-6.92 11.21-6 13 .47.94 2.11 1.73 3.73 2.3"/><path class="cls-20" d="M315.21 330.72c21 4.32 35.58-10.65 46.22-35.92-5-4.32-25.6-39.57-24.94-58.53s-35.25-38.57-51.21-44.56l3.16 3.33c.33 7.31-16.19 9-40.74 6.32-12.3-1.33-28-10.2-24.24-15.3"/><path class="cls-21" d="M324.85 257.72a1.48 1.48 0 00-1.16.56c-3.64 4.49-7.9 29.4-13.53 64.09-2.39 14.77-4.65 28.72-6.39 36.62-2.83 12.82-3.75 30.62-4 43.67 1-.35 2-.72 3-1.09.29-12.78 1.22-29.71 3.92-41.93 1.76-8 4-22 6.43-36.79 4.22-26.05 9.47-58.47 12.89-62.69a1.47 1.47 0 00.33-.93 1.51 1.51 0 00-.55-1.16 1.55 1.55 0 00-.95-.33M180.53 267a1.51 1.51 0 00-1.39 2.08c1.21 2.9-1.77 30.77-8.69 70.74-3.85 22.21-7.7 41-10.93 53.81l2.75 1.36c4.64-18.13 9.34-44.29 11.13-54.65 3.93-22.69 10.77-67 8.51-72.42a1.5 1.5 0 00-1.38-.92"/><path class="cls-20" d="M222.43 186.06c-14.63 0-26.6 11-42.23 13.3s-27.27 17.64-34.59 39.91c-7 5.65-20.28 19.28-20.28 19.28 1.33 20.29 17.62 45.23 36.91 47.23 3.66-9.65 5-12.64 9.64-20.62s9-9.65 9-9.65"/><path class="cls-5" d="M221.43 85.63c-1.49-.83-7.65-.83-8.15-.33"/><ellipse class="cls-4" cx="215.28" cy="98.27" rx="4.57" ry="1.81" transform="rotate(-75.86 215.27 98.269)"/><path class="cls-5" d="M285.39 195.93s-4.77-23-2.77-41"/><path class="cls-19" d="M251 126.34c.84 4.55 3.26 15.74 5.67 9.84 0 0 6.65 18.79 12 19.29a30.21 30.21 0 011.67-9.31s17.12 13.13 23.94 14.63c.5-5.49.33-8 6.32-18.29 0 0 5.15 5.65 8.64 5.65-.16-5.65 3-12 10.31-26.94 12.31-9.31 15.3-27.93 14-35.24s0-9 2.33-9c0 0-12-25.28-26.61-24.94-10.64-16-31.59-29.6-39.9-22.62s-23.94 19-45.89-.33c-2.66 4-2.33 11.64-2.33 11.64-12.3.33-15.63-7.32-17.29-14.63-7 14.3-12 43.89 16 46.22 20.62 2 18.29 22 18.29 22-2 12-3.66 18-3.66 18l6.72-2.65"/></g></svg>