<svg xmlns="http://www.w3.org/2000/svg" viewBox="0 0 486.44 437.62"><defs><style>.cls-1{fill:#d2ecf3}.cls-19,.cls-21,.cls-22,.cls-24,.cls-3,.cls-4,.cls-5,.cls-9{fill:none;stroke-linecap:round;stroke-linejoin:round}.cls-3{stroke:#95c0d1}.cls-19,.cls-21,.cls-22,.cls-24,.cls-3,.cls-4,.cls-5,.cls-9{stroke-width:3px}.cls-4{stroke:#121c2f}.cls-5{stroke:#bedde8}.cls-7{fill:#a9cedc}.cls-8{fill:#95b8c5}.cls-9{stroke:#a9cedc}.cls-10{fill:#95c0d1}.cls-13{fill:#efefef}.cls-15{fill:#630006}.cls-19{stroke:#4d6b76}.cls-20{fill:#18263e}.cls-21{stroke:#310003}.cls-22{stroke:#7d7d7f}.cls-23{fill:#7d7d7f}.cls-24{stroke:#18263e}.cls-25{fill:#310003}</style></defs><circle class="cls-1" cx="251.24" cy="218.81" r="218.81" id="Background"/><g id="Layer_7" data-name="Layer 7"><path opacity=".5" fill="#fff" d="M298.98 79.41l.19-.29V28.13H16.73v199.53h185.52l.25-.4v51.68h282.44V79.41H298.98z"/><path class="cls-3" d="M202.25 227.66H16.73V28.13h282.44v50.99"/><path class="cls-3" d="M201.8 189.97H49.32V51.63h217.26v27.6"/><path class="cls-5" d="M208 78.9c1.86-5.68 4.17-8.2 8.42-8.2 5 0 7.67 3.71 9.63 8.65"/><path class="cls-3" d="M51.25 104.39c12.86 0 24.83-35 37.24-35s27.94 59.85 35.47 59.85 8.43-17.07 17.07-17.07S151 96 157.22 96s8.42 46.11 16.4 46.11 10.65-21.72 21.73-21.72c3.9 0 5.53-5.72 7-13.69M228 79.35c5.59-8.92 11.55-19.29 18.37-19.29 12 0 11.08 12.41 19.51 12.41"/><path class="cls-5" d="M49.92 113.71c13.74 0 13.3 16 22.17 16s8.42-28.82 14.63-28.82 6.65 13.74 13.3 13.74S121.75 80 128.84 80s12 41.68 23.06 43c4.4.52 17-4.42 21.72-8.43 11.53-9.75 14.64-26.16 22.62-26.16a19.13 19.13 0 015.78.69"/><path stroke-width="3.04" stroke="#95c0d1" fill="none" stroke-linecap="round" stroke-linejoin="round" d="M222.45 101.58h109.07v159.23H222.45z"/><path class="cls-3" d="M353.7 101.58h109.07v90.37H353.7zM353.7 211.54h109.07v48.68H353.7z"/><path class="cls-1" d="M232.65 128.13h11.08v121.7h-11.08z"/><path class="cls-7" d="M232.65 149.39h11.08v100.44h-11.08z"/><path class="cls-8" d="M232.65 200.44h11.08v49.38h-11.08z"/><path class="cls-1" d="M251.72 121.84h11.08v127.99h-11.08z"/><path class="cls-7" d="M251.72 144.98h11.08v104.84h-11.08z"/><path class="cls-8" d="M251.72 180.66h11.08v69.17h-11.08z"/><path class="cls-1" d="M270.78 139.85h11.08v109.97h-11.08z"/><path class="cls-7" d="M270.78 163.28h11.08v86.55h-11.08z"/><path class="cls-8" d="M270.78 175.21h11.08v74.61h-11.08z"/><path class="cls-1" d="M289.85 125.5h11.08v124.32h-11.08z"/><path class="cls-7" d="M289.85 149.39h11.08v100.44h-11.08z"/><path class="cls-8" d="M289.85 180.66h11.08v69.17h-11.08z"/><path class="cls-1" d="M308.91 113.71h11.08v136.12h-11.08z"/><path class="cls-7" d="M308.91 138.79h11.08v111.04h-11.08z"/><path class="cls-8" d="M308.91 159.38h11.08v90.45h-11.08z"/><path class="cls-9" d="M365.67 115.48h85.13M365.67 131.33h85.13M365.67 147.18h85.13M365.67 163.03h85.13M365.67 178.88h85.13"/><path class="cls-3" d="M202.5 79.41h282.44v199.52H202.5z"/></g><g id="Flats"><path class="cls-10" d="M122.06 153.16a107.63 107.63 0 00-5.83-34.33s-3.33-19.62-39.91-13.3-35.38 31.78-31.92 45.89c4.66 19 13.39 26.53 13.39 26.53 5 11.52 4.91 27.87 4.12 35.1l-6.54.55.67 8s5.32 7 20.62 6.65 21.61-9.64 21-20.06c-.87-7.77 1-13.92 5.16-16.89l-1-1c4.22 2 8.34 3.15 11.55 3 5.09-.22 6.34-15 7.38-22.13 10.42 1.02 9.74-5.33 1.31-18.01z"/><path d="M359.36 317.16l2.29-.76a3.18 3.18 0 002-4.14l-28.25-74.52a3.18 3.18 0 00-3.8-1.94l-54.15 14.58a3.17 3.17 0 00-2.08 4.36l5.22 11.7 4.57 10.18 3.22 7.29 11.07 24.8 9.81 22a3.19 3.19 0 003.9 1.73l24.28-8z" fill="#26344e"/><path fill="#fff" d="M292.81 284.43l-13.3-30.42 52.54-13.97 27.41 72.25-3.97 1.24-21.06 7.16-22.17 6.97-9.81-22.11-9.64-21.12z"/><path class="cls-7" d="M403.86 233.18c.3-2.25.23-4.16-.54-5.06s-2.92-1.35-5.36-1.48c-4.86-.26-11.34.22-13.7-2.73-4.27-6.66-6.08-14.86-6.36-23.28-2.27-.34-4.65-1-4.95-2.32-.48-2.13.8-4.67 5.44-9.45 1.84-16.38 7.89-31.32 11.19-35 8.64-8.87 53.87-16.85 55.64 17.73s-6 38.58-6 38.58l-1.55 13.52-28.83 15.74-5-6.25M368.74 328.33l-3.79-6c-8.1-5.64-18.94-18.91-18.94-18.91s.17-16.3-.16-19-6.32-5.15-7.65-5.48a8.47 8.47 0 00-3.33.16l4 6.32c-2.33-3.66-9-11.47-9-11.47s-13-12.31-14.8-12.8-3.66.33-1.17 4.32 9.81 14.13 9.81 14.13l2.1 1.05c-2-.21-5.19 1.48-5.59 1.61s-6 3.33-6 3.33-1.67 3-.5 4.49c-1.66 1.66-1.66 5.48-1.5 6.65-.83 4.32 0 5.65 1.17 7s5.48 7.82 8.81 7.15c2.61-.52 2.86-1.35 2.85-1.68.6 4.74 6.14 8.16 7.46 8.16 20.12 25.94 28.1 35.25 28.1 35.25l10.31-3zM294.3 284.93c-5.21-.63-10-2-11.14 2s1.83 4.65 5.49 5.32 12.31 1.83 14.8.83 4.66-6.49-9.15-8.15zM297 293.74c-5.21-.62-9.14-1.33-10.3 2.66s3.82 4.49 7.48 5.16 9.48 1.33 12 .33 4.59-6.48-9.18-8.15zM301.79 302.72c2 1.67.74 6.81-6 5.66s-9.48-5-6.32-7M281 267.31c3.38 1.2 6.82 5.32 4.66 8.48s-6.82-.67-8.15-2-1.66-8.31 3.49-6.48z"/><path class="cls-4" d="M109.91 270.47c2.33-2.33 11-9 11-9"/><path class="cls-10" d="M228 205.62c7.32-2.77 26.61-13.41 26.61-13.41S267.42 174 271 171.59c1.72-1.18 21.06-12.19 25.27-13.52s6.66.22 2 4.65S280.73 174 280.73 174c3.54.44 5.32 1.77 5.09 4.21 3.11.45 4.66 2.44 4.44 4.21 5.1 1.33 5.32 6.88 5.32 6.88s.22 9.53-3.33 12.85c-1.26 1.19-7.76 2.89-9.09 2.22a5 5 0 01-2-2.44c-.44 4.66-11.31 6.21-14.19 5.77-9.75 7.53-25.27 17.29-25.27 17.29l-9.7-2.08-4-8z"/><path class="cls-13" d="M441.79 218.8c-8 4-52.54 20.19-52.54 20.19 2.77 4.87 3.54 21.83 3.54 21.83 13.75-11 43.68-24.49 53.32-23.83a59 59 0 00-3.33-16z"/><path class="cls-13" d="M442.78 233.44s-8.37.29-12.28.29a17.16 17.16 0 01-1.9-.06c-1.51 0-29.9 14.42-29.9 14.42l-2.44 10.08c-5.32 3.83-11.47 16.8-13.47 27.94S380.6 316 380.6 316s-2.48 9.74-3.05 9.74c-.06 0-.1-.13-.11-.42l-11.14-3.16c-4.63.49-5.81 9.14-5.82 17.7v.26a143.82 143.82 0 001.16 16.95l5.82 8.15 7.18 2.52-.19.31a12.72 12.72 0 001.3 1.49c-.26 1.71-2.62 17.67-1.86 30.49a219.53 219.53 0 0083.69-108.23c-.42-27.77-8.95-48.42-12.47-54.61l-2.33-3.77"/><path class="cls-15" d="M443.12 148.53c3.65-8.31-2.44-14.29-6-16.95s-10.42.77-20.28 1.33c-3.77-10.31-17.19-7.43-21.73-1.67-2.55-2.21-16.63-8.53-27.71.11s6.09 30.49 15.74 34.7l2-3.33c6.05 5.83 14.63 10.71 16.3 10.53-1.13 4.94 3.75 15.69 11.9 17.22a14.65 14.65 0 001-4.36c3.43-2.44 10.19-2.21 8.86 6.1a27 27 0 01-1.67 6l.23.29c.67 4.87 5.88 19.28 21.06 22.5s11.42-15.85 9.43-21.06 7.76-6.87 3.1-13.41c0 0 8.42.55 10.2-15.74s-10.24-20.59-22.43-22.26zM46.84 300.4a94.77 94.77 0 00-10.75-9s8-10 9.64-13l1.11 21.95M228 205.62l-20.28 6.65s-5.32 4.32-8.65 4.66h-.55a3 3 0 01-2.07-.7 2.16 2.16 0 00-1.39-.71 3.13 3.13 0 00-1.31.38c-2.77 1.33-2.66 5.65-2 7.32.16.4-.07.56-.55.56-1.5 0-5.42-1.48-7.77-1.56h-.23c-2.88 0-3.08 2.1-2.43 6-2.33-1-30.59-5.65-37.24-6.31-3.46-1.73-18.25-9.7-31.94-9.7h-1.12A53.26 53.26 0 0095.53 210a49.88 49.88 0 00-19.93 4.29c-5 2.14-8.58 4.29-10.73 4.29h-.19a6.61 6.61 0 01-4.63-2l.22-3.79a4.19 4.19 0 01.42-.24l-.41.15.08-1.48c-1.64.36-4.23 1.82-7 3.88l-1.3.45-1.27 1.59c-4.3 3.65-8.49 8.37-9.93 12.48-2.66 7.65-8.42 18.07-11.53 21.29-1.75 1.82-27.49 33.47-27.82 43.12C1.2 302.85 32.55 321 49 329.19c.73 6.5 1.64 12.61 2.77 18 20.85 25.2 49 44.87 81.27 58.57 4.93-.19 7.82-.24 7.82-.24s-3-8.65-3-22 3.66-60.85 3.66-80.81c0 0 6.32-11.3 3.66-39.24l-.25-.5c19.42 1.16 39.24 2.19 43.18 2.19h.63c2.66-.34 13.64-9.65 17-11s2.33-1 9-2.33 1.33-6.31 4-7 .67-.77 5-1.33 1.66-6.32 1.66-6.32a132.76 132.76 0 0016-10.31 24.38 24.38 0 00.52-4.88v.01c0-13.9-13.82-16.34-13.82-16.34"/><path d="M85.64 141.61C87 157.24 88 167.55 98.77 172.53c5.65-3.82 11.5-6.17 22-1.34a24.13 24.13 0 01-1.51 7.66l-13.47-2.66c-.16 4.49 6.82 6.82 8 6.65s4.49-1 4.49-1l-.83 8.65-4 2.83-6.93-.67L94.61 186 85 177.85l-3.49-7-.5-2c.66-10.31-2.16-25.11-2.16-25.11z" fill="#678f9e"/><path d="M125.54 111.51l3.1-2.21 2.44-5.33c-2.88 2.66-13.08 2.89-27.49-3.1s-28.82-4-37.24-3.1L69.89 92c-2.66 3.11-11.52 9.09-20.39 14.63l-4.43 2.89c-6.43 2.88-10.42 9.31-10.42 9.31L36.2 121c-1.33 5.77 1.33 37.69 7.76 47s12.63 10.42 12.63 10.42l2.66-2.21 7.54 1.33 1.11-6.65 5.1 1.55 1.17-6.81c-2.55-2.43-4.28-7.75-4.72-12.48-.66-7.09 3.33-10 8-8.2l1.89 4.43 2.75 3.62 2.21-8.65 6.21 1.78-6-13.08 4.21.22a11.57 11.57 0 00-5.1-6.43c1.55.44 19.51-1.11 29.26-3.33l4.22-2c6.18-.22 14-7.61 16.55-11.72-1.65 1.91-8.11 1.72-8.11 1.72z" fill="#4d6b76"/><path d="M134 109.3c-.08.14-.19.31-.29.47a1.46 1.46 0 00.29-.47z" fill="#121c2f"/></g><g id="Lines"><path class="cls-4" d="M299.45 308.71l9.81 22a3.19 3.19 0 003.9 1.73l24.28-8M285.16 276.62l3.22 7.29M359.36 317.16l2.29-.76a3.18 3.18 0 002-4.14l-28.25-74.52a3.18 3.18 0 00-3.8-1.94l-54.15 14.58a3.17 3.17 0 00-2.08 4.36l5.22 11.7"/><path class="cls-4" d="M302.45 305.55l9.81 22.11 22.17-6.97M355.49 313.53l3.97-1.24-27.41-72.25-52.54 13.97 13.3 30.42"/><path class="cls-19" d="M390.8 208.39c-2.44.11-1.78 2.11-3.33 2.44a78.36 78.36 0 01-8 .33"/><path class="cls-19" d="M403.86 233.18c.3-2.25.23-4.16-.54-5.06s-2.92-1.35-5.36-1.48c-4.86-.26-11.34.22-13.7-2.73-4.27-6.66-6.08-14.86-6.36-23.28-2.27-.34-4.65-1-4.95-2.32-.48-2.13.8-4.67 5.44-9.45a104.75 104.75 0 016.46-26.07"/><ellipse class="cls-20" cx="384.71" cy="183.13" rx="1.78" ry="3.34"/><path class="cls-19" d="M391 178c-3.33-3-6.32-4.1-9.2-3.77"/><path class="cls-21" d="M381 158c5.1 7.65 18.29 15.52 20.4 15.29-1.22 5.32 4.54 17.41 13.85 17.41"/><path class="cls-21" d="M414.3 186.11c3.43-2.44 10.19-2.21 8.86 6.1s-5.87 13.85-8.2 13"/><path class="cls-22" d="M437.57 220.47c-8 4-48.32 18.52-48.32 18.52 2.77 4.87 3.54 21.83 3.54 21.83 13.75-11 43.68-24.49 53.32-23.83a59 59 0 00-3.33-16"/><path class="cls-23" d="M375.77 367.9a1.49 1.49 0 00-1.47 1.26 184.55 184.55 0 00-2.07 25.29v.22c0 2.16.07 4.29.22 6.35l2.89-2c-.62-13.08 1.89-29.22 1.92-29.42a1.49 1.49 0 00-1.25-1.71 1 1 0 00-.24 0M445.12 235.71a1.5 1.5 0 00-1.29 2.24c4.74 8.34 12.71 30.1 12.27 58 1-2.67 2-5.38 2.87-8.1-1-24.63-8.13-43.6-12.53-51.34a1.53 1.53 0 00-1.3-.76"/><path class="cls-19" d="M365 322.3c-8.1-5.64-18.94-18.91-18.94-18.91s.17-16.3-.16-19-6.32-5.15-7.65-5.48a8.47 8.47 0 00-3.33.16"/><path class="cls-19" d="M338.87 285.43c-2.33-3.66-9-11.47-9-11.47s-13-12.31-14.8-12.8-3.66.33-1.17 4.32 9.81 14.13 9.81 14.13"/><path class="cls-19" d="M327.06 281.27c-1.33-1.82-6.32.84-6.82 1s-6 3.33-6 3.33-1.67 3-.5 4.49c-1.66 1.66-1.66 5.48-1.5 6.65-.83 4.32 0 5.65 1.17 7s5.48 7.82 8.81 7.15 2.82-1.83 2.82-1.83c.5 4.82 6.16 8.31 7.49 8.31 20.12 25.94 28.1 35.25 28.1 35.25M322.4 287.09c-1.49.17-8.64 3-8.64 3M321.07 293.25l-8.31 5.48"/><path class="cls-19" d="M324.9 308.38l-2.83-6.16h-2.66M294.3 284.93c-5.21-.63-10-2-11.14 2s1.83 4.65 5.49 5.32 12.31 1.83 14.8.83 4.66-6.49-9.15-8.15zM297 293.74c-5.21-.62-9.14-1.33-10.3 2.66s3.82 4.49 7.48 5.16 9.48 1.33 12 .33 4.59-6.48-9.18-8.15zM301.79 302.72c2 1.67.74 6.81-6 5.66s-9.48-5-6.32-7M281 267.31c3.38 1.2 6.82 5.32 4.66 8.48s-6.82-.67-8.15-2-1.66-8.31 3.49-6.48z"/><path class="cls-21" d="M381.51 165.22c-9.64-4.21-25.19-25.22-14.1-33.87s25.16-2.32 27.71-.11c4.54-5.76 18-8.64 21.73 1.67 9.86-.56 16.73-4 20.28-1.33s9.64 8.64 6 16.95c12.19 1.67 24.16 6 22.39 22.29s-10.2 15.74-10.2 15.74c4.66 6.54-5.1 8.2-3.1 13.41s5.78 24.27-9.44 21.03-20.39-17.63-21.06-22.5"/><path class="cls-22" d="M396.23 258.16c-5.32 3.83-11.47 16.8-13.47 27.94S380.6 316 380.6 316"/><path class="cls-22" d="M389.74 275c-2.82 6.65-9.81 45.22-10 45.89s-1.83 7.65-1.83 7.65M366.3 322.18l11.14 3.16c.17 7.31 6.15 45.55 6.15 45.55l-16.13-5.65-5.82-8.15s-4.64-33.92 4.66-34.91z"/><path class="cls-22" d="M374.45 368.07c2.82 3.82 9.14 7.15 12.47 7.48s23.28-29.76 26.77-42.9 14-38.57 11.47-45.22"/><path class="cls-19" d="M81.64 169.82c1.11 10.64 21.29 23.94 31.71 23.5 5.09-.22 6.34-15 7.38-22.13 10.44 1 9.76-5.35 1.33-18a107.63 107.63 0 00-5.83-34.33"/><path class="cls-24" d="M49.5 106.63c8.87-5.54 17.73-11.52 20.39-14.63M66.35 97.77c8.42-.89 22.83-2.88 37.24 3.1s24.61 5.76 27.49 3.1M128.64 109.3l-3.1 2.21s7.54.22 8.42-2.21c-2.21 4-10.42 12-16.84 12.19M45.07 109.52c-6.43 2.88-10.42 9.31-10.42 9.31M77.43 145c-4.65-1.78-8.64 1.11-8 8.2s4.21 15.52 9.09 13.52M112.9 123.48c-9.75 2.22-27.71 3.77-29.26 3.33a11.57 11.57 0 015.1 6.43l-4.21-.24 6 13.08-6.21-1.78-2.23 8.7"/><ellipse class="cls-20" cx="115.56" cy="147.65" rx="2.66" ry="4.1"/><path class="cls-19" d="M109.13 139.89c4.22-1.77 10.2-1.77 11.31-.67M108.25 173.81s-3.77 1.77-3.33 3.1M106.7 175.8c2.66.67 12 2.89 12 2.89M57.79 178c5 11.52 4.91 27.87 4.12 35.1M102.77 191.28c-4.2 3-6 9.12-5.16 16.89"/><path class="cls-21" d="M110.58 212.27c-26.16-7.65-40.57 6.65-45.9 6.32s-7-4.66-4-6M109.91 270.47c2.33-2.33 11-9 11-9"/><path class="cls-21" d="M60.36 211.27c-4.65 1-16.85 10.76-19.51 18.41S32.43 247.74 29.32 251c-1.75 1.82-27.49 33.47-27.82 43.12-.3 8.72 30.69 26.7 47.19 35"/><path class="cls-25" d="M145.17 262H145a1.5 1.5 0 00-1.35 1.64c2.57 27-3.42 38.26-3.48 38.36a1.59 1.59 0 00-.19.73c0 10.94-1.12 30.44-2.1 47.64-.8 14-1.56 27.15-1.56 33.17a80.44 80.44 0 002.5 20.5c-1.85.05-5 .15-9 .33 2.14.94 4.29 1.86 6.47 2.74 2.85-.09 4.48-.12 4.53-.12a1.53 1.53 0 001.21-.64 1.51 1.51 0 00.18-1.35 73.26 73.26 0 01-2.91-21.46c0-5.94.76-19.08 1.55-33 1-17.06 2.09-36.36 2.11-47.45 1.08-2.21 6.1-14.07 3.65-39.75a1.5 1.5 0 00-1.48-1.36M46.35 248a1.49 1.49 0 00-1.45 1.46c-.55 16.34-.68 65.91 4.83 95.19 1.34 1.68 2.72 3.34 4.12 5-6.65-27.71-6.53-82.72-6-100.07a1.5 1.5 0 00-1.4-1.58h-.1"/><path class="cls-21" d="M45.73 278.45c-1.66 3-9.64 13-9.64 13a94.77 94.77 0 0110.75 9"/><path class="cls-19" d="M228 205.62c7.32-2.77 26.61-13.41 26.61-13.41S267.42 174 271 171.59c1.72-1.18 21.06-12.19 25.27-13.52s6.66.22 2 4.65S280.73 174 280.73 174c3.54.44 5.32 1.77 5.09 4.21 3.11.45 4.66 2.44 4.44 4.21 5.1 1.33 5.32 6.88 5.32 6.88s.22 9.53-3.33 12.85c-1.26 1.19-7.76 2.89-9.09 2.22a5 5 0 01-2-2.44c-.44 4.66-11.31 6.21-14.19 5.77-9.75 7.53-25.27 17.29-25.27 17.29M288.71 198.42a9.31 9.31 0 01-2.66-2.44M288.26 192.65c-3.32 3.11-7.09 9.31-7.09 9.31"/><path class="cls-21" d="M28.44 294.63c4-.22 5.32-1.77 8-3.55M105.37 212.83c15.07-3.22 34.14 7.09 38.13 9.09 6.65.66 34.91 5.32 37.24 6.31-.66-4-.44-6.09 2.66-6s9 2.66 8.32 1-.78-6 2-7.32 2 1.33 5.32 1 8.65-4.66 8.65-4.66l20.31-6.63s17 3 13.3 21.28a132.76 132.76 0 01-16 10.31s2.66 5.77-1.66 6.32-2.33.67-5 1.33 2.66 5.65-4 7-5.65 1-9 2.33-14.3 10.64-17 11c-2 .25-43.59-2-67.76-3.71-7.42-.51-13.21-1-15.71-1.28"/><path class="cls-24" d="M36.2 121c-1.33 5.77 1.33 37.69 7.76 47s12.63 10.42 12.63 10.42l2.66-2.21 7.54 1.33 1.11-6.65 5.1 1.55"/></g></svg>