<svg id="Layer_1" data-name="Layer 1" xmlns="http://www.w3.org/2000/svg" viewBox="0 0 766.48 766.62"><defs><style>.cls-1{fill:#fff}.cls-2{fill:#bedadf}</style></defs><path class="cls-1" d="M383.48 766.62C171.34 766.63-.22 595.1 0 383.21S171.63 0 383.3 0s382.92 171.29 383.18 383.29c.25 211.65-171.26 383.32-383 383.33z"/><path class="cls-2" d="M383.3 0C171.63 0 .22 171.37 0 383.21s171.34 383.42 383.48 383.41c211.74 0 383.25-171.68 383-383.33C766.22 171.29 595 0 383.3 0zm-.51 748.43C181.34 748.26 17.85 584.65 18 383.42c.17-201.67 163.77-365.34 365.2-365.35s365.19 163.69 365.18 365.27C748.37 585.41 585 748.6 382.79 748.43z"/><path class="cls-1" d="M383.22 18.07c-201.43 0-365 163.68-365.2 365.35-.17 201.23 163.32 364.84 364.77 365 202.16.17 365.58-163 365.59-365.09.01-201.57-163.64-365.27-365.16-365.26zM523.5 685.18c-168.6 80-359.06 6.13-437.85-144.22 7.3 1.37 14.47 3.33 21.76 4 27.68 2.49 54.62.21 78.58-15.71 20.06-13.34 30.07-32.62 31.88-56.48 3.14-41.5-25-63.45-55.22-69.92-21.89-4.68-43.74-3.81-64.42 5.79-6.68 3.11-12.66 7.71-19.48 11.94 2.64-13.89 5.27-27.73 7.74-40.69 10 0 19.29-.53 28.54.09 48.46 3.22 83.13-18.16 106.67-59.4 2.21-3.87 4.49-5.19 8.88-5.15 24.64.23 49.28.11 73.93.11h5.87v-25.95h-14.47v-65h14.53v-27.76h-82.36c0 8.57-.1 16.85.15 25.12 0 .89 2.05 2.36 3.23 2.45 3.92.31 7.87.12 12 .12v64.79h-22.69c0 7.19-.24 14 .09 20.7.18 3.72-1.28 5.75-4.34 7.49-10 5.67-21 8.31-32.19 9.88-25.9 3.63-51.41 1.76-76.26-6.74a56.53 56.53 0 01-9.42-4.43c-4.09-2.31-5-2.1-5.87 2.43q-10.45 55-20.84 110.09c-.62 3.25-1.22 6.51-1.86 9.93 3 2.69 4.86 2.37 7-1.51 8.19-15 19.92-25.62 37.28-28.87 13.11-2.45 24.59 2.81 31.24 14.4 5.7 9.92 7.59 20.95 8.09 32.09.92 20.5 0 40.91-6.82 60.58-2.76 7.94-6.59 15.25-13.07 20.88-8.7 7.58-22.5 7.9-31.29.74-5.52-4.5-6.54-8.67-3.77-15.23 4.65-11.05 9-22.19 9.19-34.43S102 466 91.5 462.74c-11.61-3.57-22.9.4-29.74 10.45l-2 2.94c-36.47-110-8-293.82 161.74-386.77C386.09-.75 594.08 65 678.41 232.49s16.01 371.65-154.91 452.69z"/><path class="cls-2" d="M473.36 358.87c-7.1-11.86-19.87-12.24-26.43-.14a79 79 0 00-8.23 23.79c-6.24 36.18-5.74 72.57-.81 108.83a68.68 68.68 0 007.87 23.37c6 10.85 18.17 10.9 25.13.63a52.3 52.3 0 006.51-14.42c6.46-21.79 6.29-44.32 7.1-69.7-.6-10.86-.93-24.69-2.24-38.42-1.12-11.7-2.66-23.53-8.9-33.94z"/><path class="cls-2" d="M221.51 89.36C51.73 182.31 23.3 366.09 59.77 476.13l2-2.94c6.84-10.05 18.13-14 29.74-10.45C102 466 108.1 475 107.92 487.31s-4.54 23.38-9.19 34.43C96 528.3 97 532.47 102.5 537c8.79 7.16 22.59 6.84 31.29-.74 6.48-5.63 10.31-12.94 13.07-20.88 6.83-19.67 7.74-40.08 6.82-60.58-.5-11.14-2.39-22.17-8.09-32.09-6.65-11.59-18.13-16.85-31.24-14.4-17.35 3.22-29.09 13.88-37.28 28.84-2.13 3.88-3.94 4.2-7 1.51.64-3.42 1.24-6.68 1.86-9.93q10.41-55.05 20.84-110.09c.86-4.53 1.78-4.74 5.87-2.43a56.53 56.53 0 009.42 4.43c24.85 8.5 50.36 10.37 76.26 6.74 11.21-1.57 22.17-4.21 32.19-9.88 3.06-1.74 4.52-3.77 4.34-7.49-.33-6.74-.09-13.51-.09-20.7h22.74v-64.79c-4.17 0-8.12.19-12-.12-1.18-.09-3.2-1.56-3.23-2.45-.25-8.27-.15-16.55-.15-25.12h82.36v27.71h-14.57v65h14.47v25.93h-5.87c-24.65 0-49.29.12-73.93-.11-4.39 0-6.67 1.28-8.88 5.15C198.16 361.8 163.49 383.18 115 380c-9.25-.62-18.57-.09-28.54-.09-2.47 13-5.1 26.8-7.74 40.69 6.82-4.23 12.8-8.83 19.48-11.94 20.68-9.6 42.53-10.47 64.42-5.79 30.26 6.47 58.36 28.42 55.22 69.92-1.81 23.86-11.82 43.14-31.88 56.48-24 15.92-50.9 18.2-78.58 15.71-7.29-.65-14.46-2.61-21.76-4 78.82 150.33 269.28 224.15 437.88 144.2 170.92-81 239.3-285 154.91-452.69S386.09-.75 221.51 89.36zM566.22 287.8c7.86.48 14.41 7.57 14.07 15.23-.37 8.14-7.54 14.71-15.52 14.21s-14.42-7.44-14.06-15.17c.37-8.07 7.61-14.75 15.51-14.27zm-200.53 196c-12.17 24.69-31.84 39.93-59.76 42.18-25.85 2.08-52.48-9.88-67-40.11a98.9 98.9 0 01-9.43-44.45c0-24.56 4.66-45.85 18-64.56 23.68-33.15 68.08-40.44 99.26-16.13 15.23 11.88 23.57 28.13 27.29 46.75 5.27 26.3 3.6 52.09-8.36 76.36zm167.14-43.56a99.1 99.1 0 01-18.54 56.38c-24.82 34.09-71.76 39.68-102.44 12-13.06-11.77-20.29-27-23.67-44-5.23-26.31-3.36-52.07 8.69-76.28 11-22 28.31-36.66 53.15-40.91 29.38-5 57.15 8.81 71.4 35.27 7.76 14.52 11.81 32.22 11.41 57.58zm-36.77-122.82c-13.11-1-25.63-4.39-35.82-13.27-4-3.51-7.25-7.92-11.18-12.31v23.28h-63v-25.49h11.37c0-10.5.61-20.61-.21-30.61-.55-6.7-9.31-10.2-17.41-7.88-7 2-11.28 6.82-11.83 13.89-.61 7.9-.14 15.89-.14 24.35h12v25.88h-64.1v-25.69h10.81v-38.95h-10.8v-25.78h50.75v16c.79-.08 1.23 0 1.36-.16 13.42-15.86 30.85-17.76 49.54-13.53 13.61 3.09 21 13.1 21.17 27.16.16 11.47 0 23 0 34.83h9.45c-.82-4.87-2.22-9.84-2.39-14.86-.76-22.13 9.3-37.12 30.17-44.62 16.57-6 33.47-6.9 50.27-.85 15.47 5.56 24.94 18.21 25.58 34l-34.37 3.86c-.29-2.42-.52-4.53-.81-6.62-1.14-8.35-5.71-13-12.92-13.28-8.51-.28-14.69 3.82-15.62 12.1a112.37 112.37 0 000 24.8c.94 8.49 6.95 12.36 16.05 12.09 8.07-.24 12.39-4.39 14-14h34.62c-1.38 12-6.41 21.35-16.2 27.65-12.31 7.95-26.23 9.08-40.34 8.01zm182.32 65.39c7.76 14.41 11.81 32.11 11.41 57.47a99.1 99.1 0 01-18.54 56.38c-24.82 34.09-71.76 39.68-102.44 12-13.06-11.77-20.29-27-23.67-44-5.23-26.31-3.36-52.07 8.69-76.28 11-22 28.31-36.66 53.15-40.91 29.38-4.96 57.15 8.88 71.4 35.34z"/><path class="cls-1" d="M552.61 281.78H518c-1.62 9.59-5.94 13.74-14 14-9.1.27-15.11-3.6-16.05-12.09a112.37 112.37 0 010-24.8c.93-8.28 7.11-12.38 15.62-12.1 7.21.25 11.78 4.93 12.92 13.28.29 2.09.52 4.2.81 6.62l34.37-3.86c-.64-15.81-10.11-28.46-25.58-34-16.8-6-33.7-5.11-50.27.85-20.87 7.5-30.93 22.49-30.17 44.62.17 5 1.57 10 2.39 14.86h-9.44c0-11.88.13-23.36 0-34.83-.19-14.06-7.56-24.07-21.17-27.16-18.69-4.23-36.12-2.33-49.54 13.53-.13.17-.57.08-1.36.16v-16h-50.78v25.78h10.79v38.95h-10.81v25.69h64.1v-25.9h-12c0-8.46-.47-16.45.14-24.35.55-7.07 4.87-11.89 11.83-13.89 8.1-2.32 16.86 1.18 17.41 7.88.82 10 .21 20.11.21 30.61h-11.36v25.49h63v-23.28c3.93 4.39 7.16 8.8 11.18 12.31 10.19 8.88 22.71 12.28 35.82 13.27 14.11 1.07 28-.06 40.35-8 9.79-6.29 14.82-15.63 16.2-27.64zM346.79 360.77c-31.18-24.31-75.58-17-99.26 16.13-13.36 18.71-18 40-18 64.56a98.9 98.9 0 009.43 44.45c14.51 30.23 41.14 42.19 67 40.11 27.92-2.25 47.59-17.49 59.76-42.18 12-24.27 13.63-50.06 8.39-76.32-3.75-18.62-12.11-34.87-27.32-46.75zm-25.2 138.66a58.33 58.33 0 01-6.66 15.44c-6.83 10.88-19.81 11-25.59-.5A88.47 88.47 0 01281 487c-4-29.45-4-59.11-1-88.65 1.09-10.81 4.33-21.4 6.74-32.06a22.38 22.38 0 012.39-5.46c3.13-5.79 7.13-10.84 14.35-10.83 7.58 0 12 5.05 15 11.37 5.54 11.61 7 24.22 8 36.79 1 12.11 1.1 24.27 1.61 36.41-.19 21.85-.67 43.64-6.5 64.86zM553.83 388.45c-12.05 24.21-13.92 50-8.69 76.28 3.38 17 10.61 32.2 23.67 44 30.68 27.64 77.62 22.05 102.44-12a99.1 99.1 0 0018.54-56.38c.4-25.36-3.65-43.06-11.41-57.47-14.25-26.46-42-40.3-71.4-35.27-24.84 4.18-42.19 18.82-53.15 40.84zm76.49-29.58c6.24 10.41 7.77 22.24 8.9 33.94 1.31 13.73 1.64 27.56 2.24 38.42-.81 25.38-.64 47.91-7.1 69.7a52.3 52.3 0 01-6.51 14.42c-7 10.27-19.15 10.22-25.14-.63a69.11 69.11 0 01-7.87-23.37c-4.92-36.26-5.42-72.65.82-108.83a79.24 79.24 0 018.22-23.79c6.57-12.1 19.34-11.73 26.44.14zM564.77 317.24c8 .5 15.15-6.07 15.52-14.21.34-7.66-6.21-14.75-14.07-15.23s-15.14 6.18-15.51 14.27c-.36 7.73 6.07 14.67 14.06 15.17z"/><path class="cls-2" d="M318.55 361.38c-3-6.32-7.46-11.36-15-11.37-7.22 0-11.22 5-14.35 10.83a22.38 22.38 0 00-2.39 5.46c-2.41 10.66-5.65 21.25-6.74 32.06-3 29.54-3 59.2 1 88.65a88.47 88.47 0 008.32 27.36c5.78 11.47 18.76 11.38 25.59.5a58.33 58.33 0 006.66-15.44c5.83-21.22 6.31-43 6.57-64.85-.51-12.14-.65-24.3-1.61-36.41-1.04-12.57-2.51-25.17-8.05-36.79zM595.66 382.52c-6.24 36.18-5.74 72.57-.82 108.83a69.11 69.11 0 007.87 23.37c6 10.85 18.18 10.9 25.14.63a52.3 52.3 0 006.51-14.42c6.46-21.79 6.29-44.32 7.1-69.7-.6-10.86-.93-24.69-2.24-38.42-1.13-11.7-2.66-23.53-8.9-33.94-7.1-11.86-19.87-12.24-26.44-.14a79.24 79.24 0 00-8.22 23.79z"/><path class="cls-1" d="M450 347.54c-24.84 4.25-42.19 18.89-53.15 40.91-12.05 24.21-13.92 50-8.69 76.28 3.38 17 10.61 32.2 23.67 44 30.68 27.64 77.62 22.05 102.44-12a99.1 99.1 0 0018.54-56.38c.4-25.36-3.65-43.06-11.41-57.47-14.23-26.53-42-40.37-71.4-35.34zm27.4 153.39a52.3 52.3 0 01-6.51 14.42c-7 10.27-19.15 10.22-25.13-.63a68.68 68.68 0 01-7.87-23.37c-4.93-36.26-5.43-72.65.81-108.83a79 79 0 018.23-23.79c6.56-12.1 19.33-11.72 26.43.14 6.24 10.41 7.78 22.24 8.9 33.94 1.31 13.73 1.64 27.56 2.24 38.42-.81 25.38-.64 47.91-7.1 69.7z"/></svg>