<svg xmlns="http://www.w3.org/2000/svg" viewBox="0 0 458.58 509.97"><defs><style>.cls-2{fill:#d2ecf3}.cls-4{fill:#c6000d}.cls-5{fill:#465671}.cls-6{fill:#bebebf}.cls-9{fill:none;stroke:#4d6b76;stroke-linecap:round;stroke-linejoin:round;stroke-width:3px}</style><mask id="mask" x="0" y="0" width="449.38" height="547.82" maskUnits="userSpaceOnUse"><path d="M62.76 163.29c46-80 219.34-269.66 374.77-82.54C561.09 229.5 369.8 573 264.13 543c-92.16-26.09-68-119.09-133.32-118.6S-20.65 308.41 62.76 163.29z" fill="#fff" transform="translate(-28.31 2.96)"/></mask></defs><path class="cls-2" d="M62.76 163.29c46-80 219.34-269.66 374.77-82.54C561.09 229.5 426.38 375.42 320.72 345.5c-92.16-26.1-124.55 78.43-189.91 78.92S-20.65 308.41 62.76 163.29z" transform="translate(-28.31 2.96)" id="Background"/><g id="Flats"><g mask="url(#mask)"><g id="Red"><circle class="cls-4" cx="107.05" cy="76.8" r="6.68"/><circle class="cls-4" cx="181.54" cy="151.29" r="6.68"/><circle class="cls-4" cx="288.39" cy="151.29" r="6.68"/><circle class="cls-4" cx="318.39" cy="151.29" r="6.68"/><circle class="cls-4" cx="288.39" cy="31.29" r="6.68"/><circle class="cls-4" cx="228.39" cy="51.29" r="6.68"/><circle class="cls-4" cx="188.39" cy="81.29" r="6.68"/><circle class="cls-4" cx="208.39" cy="111.29" r="6.68"/><circle class="cls-4" cx="298.39" cy="211.29" r="6.68"/><circle class="cls-4" cx="338.39" cy="201.29" r="6.68"/><circle class="cls-4" cx="358.39" cy="151.29" r="6.68"/><circle class="cls-4" cx="218.39" cy="151.29" r="6.68"/><circle class="cls-4" cx="198.39" cy="181.29" r="6.68"/><circle class="cls-4" cx="168.39" cy="211.29" r="6.68"/><circle class="cls-4" cx="148.39" cy="204.29" r="6.68"/><circle class="cls-4" cx="118.39" cy="164.29" r="6.68"/><circle class="cls-4" cx="78.39" cy="114.29" r="6.68"/><circle class="cls-4" cx="293.46" cy="10.37" r="6.68"/><circle class="cls-4" cx="378.39" cy="64.29" r="6.68"/><circle class="cls-4" cx="356.39" cy="74.29" r="6.68"/><circle class="cls-4" cx="205.39" cy="383.03" r="6.68"/><circle class="cls-4" cx="205.39" cy="403.03" r="6.68"/><circle class="cls-4" cx="205.39" cy="423.03" r="6.68"/><circle class="cls-4" cx="205.39" cy="443.03" r="6.68"/><circle class="cls-4" cx="205.39" cy="463.03" r="6.68"/><circle class="cls-4" cx="205.39" cy="483.03" r="6.68"/><circle class="cls-4" cx="205.39" cy="503.03" r="6.68"/><circle class="cls-4" cx="333.84" cy="105.85" r="6.68"/><circle class="cls-4" cx="251.37" cy="105.85" r="6.68"/><circle class="cls-4" cx="251.37" cy="193.19" r="6.68"/><circle class="cls-4" cx="104.61" cy="193.19" r="6.68"/><circle class="cls-4" cx="155.64" cy="142.16" r="6.68"/></g><g id="Blues"><path class="cls-5" transform="rotate(-45 302.983 102.25)" d="M307.14 60.17h12.83V73h-12.83z"/><path class="cls-5" d="M228.83 73.14h12.83v12.83h-12.83zM188.83 33.14h12.83v12.83h-12.83zM158.83 53.14h12.83v12.83h-12.83zM128.83 83.14h12.83v12.83h-12.83z"/><path class="cls-5" transform="rotate(-45 172.98 132.25)" d="M177.14 90.17h12.83V103h-12.83z"/><path class="cls-5" d="M198.83 123.14h12.83v12.83h-12.83z"/><path class="cls-5" transform="rotate(-45 262.976 202.252)" d="M267.14 160.17h12.83V173h-12.83z"/><path class="cls-5" d="M168.83 163.14h12.83v12.83h-12.83zM118.83 183.14h12.83v12.83h-12.83z"/><path class="cls-5" transform="rotate(-45 212.975 243.243)" d="M217.14 201.17h12.83V214h-12.83z"/><path class="cls-5" d="M268.83 184.14h12.83v12.83h-12.83zM258.83 134.14h12.83v12.83h-12.83zM338.83 124.14h12.83v12.83h-12.83z"/><path class="cls-5" transform="rotate(-45 392.982 123.251)" d="M397.14 81.17h12.83V94h-12.83z"/><path class="cls-5" d="M328.83 14.14h12.83v12.83h-12.83zM308.83 84.14h12.83v12.83h-12.83zM128.83 124.14h12.83v12.83h-12.83z"/><path class="cls-5" transform="rotate(-45 112.978 163.243)" d="M117.14 121.17h12.83V134h-12.83z"/><path class="cls-5" transform="rotate(-45 268.16 41.765)" d="M272.33-.31h12.83v12.83h-12.83z"/><path class="cls-5" d="M131.69 39.06h12.83v12.83h-12.83zM308.83 184.14h12.83v12.83h-12.83zM243.83 377.14h12.83v12.83h-12.83zM243.83 397.14h12.83v12.83h-12.83zM243.83 417.14h12.83v12.83h-12.83zM243.83 437.14h12.83v12.83h-12.83zM243.83 457.14h12.83v12.83h-12.83zM243.83 477.14h12.83v12.83h-12.83zM243.83 497.14h12.83v12.83h-12.83z"/><path class="cls-5" transform="rotate(-45 307.55 146.399)" d="M311.72 104.33h12.83v12.83h-12.83z"/></g><g id="Rejects"><path class="cls-6" d="M152.02 170.66L136 165.94l12.09-11.51 3.93 16.23zM105.41 152.62l-14.66 7.99.4-16.7 14.26 8.71zM122.02 140.66L106 135.94l12.09-11.52 3.93 16.24zM115.41 102.62l-14.66 7.99.4-16.69 14.26 8.7zM73.84 177.18l-16.02-4.72 12.09-11.52 3.93 16.24zM135.41 59.62l-14.66 7.99.4-16.7 14.26 8.71zM152.02 77.66L136 72.94l12.09-11.52 3.93 16.24zM172.02 87.66L156 82.94l12.09-11.52 3.93 16.24zM192.02 117.66L176 112.94l12.09-11.52 3.93 16.24zM182.02 137.66L166 132.94l12.09-11.52 3.93 16.24zM162.02 127.66L146 122.94l12.09-11.52 3.93 16.24zM142.02 117.66L126 112.94l12.09-11.52 3.93 16.24zM164.41 185.62l-14.66 7.99.4-16.7 14.26 8.71zM131.02 213.66L115 208.94l12.09-11.51 3.93 16.23zM186.02 203.66L170 198.94l12.09-11.51 3.93 16.23zM209.41 155.62l-14.66 7.99.4-16.7 14.26 8.71zM229.41 175.62l-14.66 7.99.4-16.7 14.26 8.71zM226.02 203.66L210 198.94l12.09-11.51 3.93 16.23zM249.41 205.62l-14.66 7.99.4-16.7 14.26 8.71zM276.02 173.66L260 168.94l12.09-11.51 3.93 16.23zM301.02 193.66L285 188.94l12.09-11.51 3.93 16.23zM311.02 163.66L295 158.94l12.09-11.51 3.93 16.23zM324.41 125.62l-14.66 7.99.4-16.69 14.26 8.7zM280.02 123.66L264 118.94l12.09-11.52 3.93 16.24zM250.02 133.66L234 128.94l12.09-11.52 3.93 16.24zM243.41 105.62l-14.66 7.99.4-16.69 14.26 8.7zM220.02 93.66L204 88.94l12.09-11.52 3.93 16.24zM210.02 63.66L194 58.94l12.09-11.52 3.93 16.24zM183.41 35.62l-14.66 7.99.4-16.7 14.26 8.71zM416.93 126.02l-14.67 8 .41-16.7 14.26 8.7zM240.02 33.66L224 28.94l12.09-11.51 3.93 16.23zM263.41 45.62l-14.66 7.99.4-16.7 14.26 8.71zM260.02 83.66L244 78.94l12.09-11.52 3.93 16.24zM280.02 93.66L264 88.94l12.09-11.52 3.93 16.24zM310.02 60.66L294 55.94l12.09-11.52 3.93 16.24zM300.02 90.66L284 85.94l12.09-11.52 3.93 16.24zM340.02 90.66L324 85.94l12.09-11.52 3.93 16.24zM333.41 62.62l-14.66 7.99.4-16.7 14.26 8.71zM353.41 42.62l-14.66 7.99.4-16.7 14.26 8.71zM363.41 102.62l-14.66 7.99.4-16.69 14.26 8.7zM346.41 152.62l-14.66 7.99.4-16.7 14.26 8.71zM343.02 180.66L327 175.94l12.09-11.51 3.93 16.23zM367.41 172.62l-14.66 7.99.4-16.7 14.26 8.71zM374.02 130.66L358 125.94l12.09-11.52 3.93 16.24zM284.02 216.66L268 211.94l12.09-11.51 3.93 16.23zM332.64 208.26l-14.67 8 .41-16.7 14.26 8.7zM287.41 48.62l-14.66 7.99.4-16.7 14.26 8.71zM274.02 26.66L258 21.94l12.09-11.51 3.93 16.23z"/></g></g><path fill="#95b8c5" d="M92.9 211.23V306.02l14.45 12.51 51.64 44.68h26.35v9.41h38.58v-9.41h7.54v9.41h38.57v-9.41h29.32l51.64-44.68 11.49-9.94v-97.36H92.9z"/><path fill="#a9cedc" d="M91.5 259.78h271.35v29.26H91.5z"/><path class="cls-2" d="M91.5 245.81h271.35v8.96H91.5z"/></g><g id="Lines"><path class="cls-9" d="M92.9 211.23V306.02l14.45 12.51 51.64 44.68h140.36l51.64-44.68 11.49-9.94v-97.36H92.9zM223.92 363.7v8.92h-38.58v-8.92"/><path class="cls-9" d="M270.03 363.2v9.42h-38.57v-9.42"/></g></svg>