<svg xmlns="http://www.w3.org/2000/svg" viewBox="0 0 473.83 422.73"><defs><mask id="mask" x="205.41" y="109.75" width="214.16" height="148.98" maskUnits="userSpaceOnUse"><g filter="url(#luminosity-invert)"><path d="M219.35 155.5h214.16v148.98H219.35z" transform="translate(-13.94 -45.75)"/><path class="cls-1" d="M349.93 224.45s6.65-4.21 10.64-2.22 3.55 5.54 5.54 6.87 7.76 0 9.76 1.33 3.76 5.77 5.54 7.1 5.32.22 6.21 1.77 8.2 8.2 9.31 12.2-16.56 25.77-18 27.26c-3.33 3.55-11.31.23-8.2-4.21-4.94 5.18-13.75-.89-12.2-4.43-3.77 3.77-15.52-.89-13.3-7.1-4.21 3.55-13.08 1.33-11.08-8.86s15.78-29.71 15.78-29.71z" transform="translate(-13.94 -45.75)"/></g></mask><mask id="mask-2" x="229.42" y="127.59" width="80.75" height="55.19" maskUnits="userSpaceOnUse"><ellipse class="cls-1" cx="283.73" cy="200.94" rx="19.29" ry="46.45" transform="rotate(-59.82 237.013 190.181)"/></mask><clipPath id="clip-path" transform="translate(-13.94 -45.75)"><path fill="none" d="M146.51 178.14h278.57V363.6H146.51V178.14"/></clipPath><filter id="luminosity-invert" filterUnits="userSpaceOnUse" color-interpolation-filters="sRGB"><feColorMatrix values="-1 0 0 0 1 0 -1 0 0 1 0 0 -1 0 1 0 0 0 1 0"/></filter><style>.cls-1{fill:#fff}.cls-12,.cls-13,.cls-14,.cls-19,.cls-20,.cls-21{fill:none}.cls-6{fill:#bedde8}.cls-7{mask:url(#mask)}.cls-8{fill:#bebebf}.cls-9{fill:#efefef}.cls-11{fill:#310003}.cls-12{stroke:#bebebf}.cls-12,.cls-13,.cls-14,.cls-19,.cls-20,.cls-21{stroke-linecap:round;stroke-linejoin:round}.cls-12,.cls-13,.cls-14,.cls-19,.cls-20,.cls-21{stroke-width:3px}.cls-13{stroke:#310003}.cls-14{stroke:#4d6b76}.cls-15{fill:#34484f}.cls-19{stroke:#18263e}.cls-20{stroke:#9e9e9f}.cls-21{stroke:#fff}</style></defs><path d="M44.19 347.93h402.6c46.62-88.54 30.79-213.77-45.65-262.71C262.56-3.49 182.36 78.08 151.29 128 114 187.87.32 209.15 23.37 304c3.79 15.64 10.96 30.34 20.82 43.93z" transform="translate(-13.94 -45.75)" fill="#d2ecf3" id="Background"/><g id="Flats"><g clip-path="url(#clip-path)"><path d="M198.26 178.14h-.07a18.4 18.4 0 00-7.72 1.53c-8.14 3.65-31.25 15-39.57 15-5 17.46-7.81 38.08 3.33 45.89 2.24-.12 4.45-.18 6.58-.18a138.78 138.78 0 0121.52 1.62c2.82 5.15 4.15 14.13 4.15 14.13s9.81 37.58 10.31 45.23c.35 5.31 1.5 31.21 2.17 46.55H326a19.1 19.1 0 01.18-2c6.15-42.73 16.68-69.62 16.68-69.62l14.91-20.5 16-5s38.59 30.77 40 30.77c.66-.66 11.3-19.79 11.3-19.79L401.14 240l-2.14-2.8-12-5-8-8s-2-6.16-5.81-10.15-15.14-11.63-26.94-14.46a138.89 138.89 0 00-24.94-3.16l-38.58-6.15-61-7.48c-9.33-2.22-16.94-4.68-23.47-4.69" transform="translate(-13.94 -45.75)" fill="#630006"/></g><g id="Skin"><path class="cls-6" d="M321.33 170c10-21.28 20.28-50.88-13.3-77.48-17.63-10-44.23-11.64-67.84 18-7.65 13.63-9 16.29-9 16.29-1.66-4.32-2.66-6.65-5.65-5s-8 16.63-6.32 22.28 2.66 7.32 2.66 7.32c-2.33 14.63-6 40.57 15 55.2.67 6.65 1.33 12 11.31 7 3.27 1 5.2.74 8.65 2.49 4.62 2.35 10.91 6.58 16.62 5.82 10-1.33 10 0 15.3-3s17-10 24.94-18.29a33.64 33.64 0 012-11.31c7-6 12.3-10.31 12.3-13.63s-3.35-5.69-6.67-5.69zM438.38 281.2c-11.75-13.08-31.26-20.62-43-24.61l-.68.8c1.58-2.7 2.52-4.88 2.24-5.89-1.11-4-8.43-10.65-9.31-12.2s-4.44-.44-6.21-1.77-3.55-5.77-5.54-7.1-7.76 0-9.76-1.33-1.55-4.87-5.54-6.87-10.64 2.22-10.64 2.22-10.46 14.84-14.45 25.4l-.41-.57c-3.54.22-8.64 8.87-8.64 12.41s13.52 12.2 16.4 14.63 10.42-2 8-4.87l-.65-.93c3 1.27 6.62 1.39 8.41-.4-1.55 3.54 7.26 9.61 12.2 4.43-2.14 3.06 1 5.59 4.23 5.7l-.24.29s14.41 14.63 25.27 27 33 16.85 36.58 13.53 13.49-26.79 1.74-39.87zM88.55 215.58c-20.62 13.63-36.91 18-36.91 18-12.64 10.27-31.59 22.57-34.92 24.9s.33 4.65 5 2.66c2.64-1.13 8.7-3.23 13.75-5.07-4.77 4.75-11.22 10.94-12.25 11.72-1.33 1 0 3.49 4.82 2.16a40.26 40.26 0 0015.29-9c1.4-1.29 6.26-5 9.53-7.47-3.76 5.36-7.64 11.08-9.53 13-2.66 2.66 2.33 3.32 6.49 1 2.72-1.52 9.63-9.3 14.09-14.5a37.46 37.46 0 01.87 6.18c0 2.83 1.5 4 3.83 2.83s3-5.82 3-9.48c0 0-.48-.85 1.33-.33 9.31 2.66 27.6 14.3 28.93 15.3s7.65 1.66 3.33-4.66a142.23 142.23 0 00-9.31-12s-2.33-9.64-5.32-12 14.63-5 22.61-5 30.59-4.82 33.58-4.32c-2.32-16.13 2.5-31.43 2.5-31.43-15.98 1.72-40.09 3.93-60.71 17.51z" transform="translate(-13.94 -45.75)"/></g><g class="cls-7"><path class="cls-1" transform="rotate(30.18 405.608 179.464)" d="M324.32 220.67h6.87v15.08h-6.87z"/><path class="cls-8" transform="rotate(30.18 411.174 182.698)" d="M329.88 225.86h6.87v11.16h-6.87z"/><path class="cls-1" d="M386.54 232.34l-67.52-39.59 6.32-10.87 67.51 39.6-6.31 10.86z"/><path class="cls-1" d="M315.05 190.1a88 88 0 00-17.39-13.1c-22.54-13.11-46.11-14.64-52.63-3.42-.62 1.07-3.67 5.92-4.71 8.21-5.34 11.35 7.54 30.37 29.48 43.13 19.45 11.3 39.64 14 49 7.32l.52.32a14.78 14.78 0 001.69-2.29 12.25 12.25 0 001.41-1.93c.23-.41.43-.83.62-1.25 1.63-2.66 3.24-5.4 3.61-6 4.6-7.92-.42-19.97-11.6-30.99zm8.84 34.19c-9 7.47-29.81 5-49.85-6.68s-32.52-28.53-30.46-40c9-7.47 29.8-5 49.85 6.68s32.57 28.51 30.46 40z" transform="translate(-13.94 -45.75)"/></g><path class="cls-9" d="M220.6 232.84l-20.45 25.44-1 68.51-7.32 10.64 7.82-.33.16 23.61 110.91-.17.33-102.92-23.28-25.77-67.17.99z"/><path class="cls-9" d="M342.45 347.43s68.17-10.31 68.66-10 74.66 44.23 74.66 44.23L480.12 445l-87 21.45-49.84-63.15z" transform="translate(-13.94 -45.75)"/><path class="cls-9" d="M131.98 299.02l-71.17 39.41 2.66 35.08L95.4 389.3l35.58 19.13 57.03-64.02-1.83-24.77-54.2-20.62z"/><path class="cls-1" d="M188.01 319.3l-62.35 54.87-64.85-35.74 71.17-39.41 56.03 20.28zM82.15 372.01l20.56 27.77 19.35-10.48-39.91-17.29z"/><path class="cls-1" d="M211.11 373.88l-5.34 9.3 66.12-7.76-57.42-.88-2.29-.73a.64.64 0 00-1.07.07z" transform="translate(-13.94 -45.75)"/><path class="cls-1" d="M220.6 232.84l-20.45 25.44 110.9-.66-23.28-25.77-67.17.99z"/><path class="cls-1" d="M410.12 337.46l-66.51 10.64s50.71 57.36 51.21 57.36 90.95-23.77 90.95-23.77zM360.57 399.59s25.11 48.27 26.1 48.1S424 436.61 424 436.61s-30.31 2.11-30.48 1.61-32.95-38.63-32.95-38.63zM49.75 301.38l12.42 8.86 4.43-2L79.46 302l2.66 2-4.21 4.65-1.77 4.66 2.66 4.88L93.21 328l1.77 3.1a50.85 50.85 0 01-6 1.78c-.88 0-20.17-2.22-20.17-2.22l-3.33 1.11.45 7.09s-.22 4.44-4.44 4.21-8.42-1.1-10.64-3.32-3.54-4.66-4.88-6.21-3.1-2.88-5.54.22-10.86 4.88-14.85 4.66-2.66-.22-.89-6 1.11-10.19 4.88-12 16.85-2 19.07-2.21 2.66-1.34.22-3.33-6-3.1-6.43-6.43.45-9.07 7.32-7.07z" transform="translate(-13.94 -45.75)"/><path d="M274.11 152.84c12.12 6.6 28.82-15.3 33.92-15.74s11.08 12.42 5.1 27.05-.23 16-.23 16 10.87-11.75 13.53-21.5 8.2-22.4 3.1-35.92-9.09-25.49-25.71-32.37-32.59-4-45.45 3.33-27.27 30.59-29.93 40.57-3.77 8.65-3.77 8.65c4 1.77 9.31.66 12.86-7.32s16.63-22.61 23.72-20.17-4.66 27.89 12.86 37.42z" transform="translate(-13.94 -45.75)" fill="#a9cedc"/><path class="cls-8" d="M274 217.61c-16.9-9.82-29.88-26.61-32.31-38.52-.57 1-1.09 2-1.41 2.68-5.34 11.35 7.54 30.37 29.48 43.13 19.45 11.3 39.64 14 49 7.32l.52.32a14.78 14.78 0 001.69-2.29 12.25 12.25 0 001.41-1.93c.23-.41.43-.83.62-1.25l.71-1.17c-11.33 4.17-32.53 1.68-49.71-8.29z" transform="translate(-13.94 -45.75)"/><path class="cls-1" d="M140.46 379.55l35.69-33.25 9.09 10.19-44.78 23.06z"/></g><g id="Lines"><path class="cls-11" d="M342.83 274.82a1.52 1.52 0 00-1.37.9c-6.1 13.87-14.77 51.44-15.75 72.21h3c1-20.2 9.64-57.67 15.51-71a1.51 1.51 0 00-.77-2 1.67 1.67 0 00-.61-.13M181 233.59a1.45 1.45 0 00-.64.14 1.49 1.49 0 00-.72 2c3.53 7.6 12 47.87 14.54 60a74.53 74.53 0 011.5 12.45l1.32 39.75h3l-1.36-39.83a76.32 76.32 0 00-1.55-13c-3.25-15.69-11.19-53-14.76-60.69a1.51 1.51 0 00-1.36-.87" transform="translate(-13.94 -45.75)"/><path class="cls-12" d="M61.31 352.06l59.19 28.27M187.01 327.78l-15.63 14.97"/><path class="cls-12" d="M170.36 418.43c-1 .67-27.94 26.94-27.94 26.94l-13.3-6" transform="translate(-13.94 -45.75)"/><path class="cls-12" d="M199.65 302.84h109.74"/><path class="cls-12" d="M259.14 360.57h64.18" transform="translate(-13.94 -45.75)"/><path class="cls-12" d="M214.28 350.06h96.44M308.39 277.24h-38.24M255.18 276.57h-54.53M423.12 388.97l43.89-10.31"/><path class="cls-12" d="M402.47 421.09c1-.33 81.47-19.95 81.47-19.95" transform="translate(-13.94 -45.75)"/><path class="cls-12" d="M329.17 321.63l47.06 48.05M358.27 377.67l-28.6-26.28"/><path class="cls-13" d="M321.55 196.29c12.19 2.22 23.28.23 40.13 9.54s19.73 22.39 23.5 25 13.08 4.87 15.29 8.2 25.06 23.28 25.06 23.28l-3.77 5.1" transform="translate(-13.94 -45.75)"/><path class="cls-14" d="M149.52 198.07c-16 1.66-40.35 3.88-61 17.51s-36.91 18-36.91 18c-12.61 10.27-31.56 22.57-34.89 24.9s.33 4.65 5 2.66 19.95-7 21.61-8.31 20.29-3.33 29.6-.67 27.6 14.3 28.93 15.3 7.65 1.66 3.33-4.66a142.23 142.23 0 00-9.31-12s-2.33-9.64-5.32-12 14.63-5 22.61-5 33.58-4.32 33.58-4.32" transform="translate(-13.94 -45.75)"/><path class="cls-14" d="M35.51 256.65a157.49 157.49 0 01-12.3 11.14c-1.33 1 0 3.49 4.82 2.16a40.26 40.26 0 0015.29-9c2.17-2 12.64-9.81 12.64-9.81" transform="translate(-13.94 -45.75)"/><path class="cls-14" d="M51.8 254.32c-4.65 6.15-5.82 9.48-8.48 12.14s2.33 3.32 6.49 1 14.8-15.3 14.8-15.3M71.59 252.49c0 3.66-.66 8.32-3 9.48s-3.83 0-3.83-2.83a19 19 0 00-.83-5.32" transform="translate(-13.94 -45.75)"/><path class="cls-13" d="M220.68 182.55c-5.54-1.11-24.16-6.21-33.48-1.78s-31.48 14-36.13 13.53c-3.77 8.87-10.42 34.58 3.32 46.33 7.76-2.66 29.05 1.11 29.05 1.11" transform="translate(-13.94 -45.75)"/><path class="cls-14" d="M311 185.56a146.65 146.65 0 0013-21.19c19.95-39.24-4.88-67.4-20.84-73.82-29.92-12.06-57.64 4.21-71.83 35.47-13.33 29.37-18.84 62.59 6.05 80.72-2.31 9.57 4.86 12.68 11.64 6.31a41.6 41.6 0 006.13 1.77" transform="translate(-13.94 -45.75)"/><path class="cls-14" d="M231.57 124.55c-5.41-5.56-8.61-2.09-10.67 6.34-2.22 9.11-2.9 18.63 1.33 21.11M321.77 170c8.5 1.2 7.54 5.88 1.51 12.52a60.74 60.74 0 01-7.61 7.16" transform="translate(-13.94 -45.75)"/><ellipse class="cls-15" cx="232.83" cy="178.6" rx="5.05" ry="3.33" transform="rotate(-75.93 196.554 164.65)"/><path class="cls-14" d="M229.66 163.82c3-1.22 10-1 11.19 2.77" transform="translate(-13.94 -45.75)"/><g mask="url(#mask-2)"><ellipse class="cls-15" cx="279.48" cy="196.68" rx="9.64" ry="6.35" transform="rotate(-54.44 228.041 187.353)"/><path d="M282.4 138.25c-4.12-5.41-17.09-11.2-23.46-3.89" stroke-width="6" stroke="#4d6b76" stroke-linecap="round" stroke-linejoin="round" fill="none"/><path class="cls-14" d="M264.13 222c19.93 4.11 39.49-7.71 55.28-28.54" transform="translate(-13.94 -45.75)"/></g><g class="cls-7"><path d="M309.95 178.54c-9 7.47-29.81 5-49.85-6.68s-32.52-28.53-30.46-40" stroke="#26344e" stroke-width="3" stroke-linecap="round" stroke-linejoin="round" fill="none"/><path class="cls-19" d="M319.34 232.54c1.12-.93 6.61-10.26 7.33-11.5 4.58-7.87-.44-19.92-11.62-30.94a88 88 0 00-17.39-13.1c-22.54-13.11-46.11-14.64-52.63-3.42-.72 1.25-4.79 7.69-5.05 9.12" transform="translate(-13.94 -45.75)"/><path class="cls-19" d="M243.58 177.59a12.16 12.16 0 00-2.78 3.25c-6.53 11.22 6.46 30.95 29 44.06s46.11 14.64 52.64 3.42a12.39 12.39 0 001.45-4" transform="translate(-13.94 -45.75)"/><path class="cls-19" d="M323.89 224.29c2.06-11.49-10.41-28.37-30.46-40s-40.89-14.15-49.85-6.68" transform="translate(-13.94 -45.75)"/><path class="cls-19" transform="rotate(30.18 405.608 179.464)" d="M324.32 220.67h6.87v15.08h-6.87z"/><path class="cls-19" transform="rotate(30.18 411.174 182.698)" d="M329.88 225.86h6.87v11.16h-6.87z"/><path class="cls-19" d="M386.54 232.34l-67.52-39.59 6.32-10.87 67.51 39.6-6.31 10.86z"/></g><path class="cls-14" d="M349.93 224.45s6.65-4.21 10.64-2.22 3.55 5.54 5.54 6.87 7.76 0 9.76 1.33 3.76 5.77 5.54 7.1 5.32.22 6.21 1.77 8.2 8.2 9.31 12.2-16.56 25.77-18 27.26c-3.33 3.55-11.31.23-8.2-4.21-4.94 5.18-13.75-.89-12.2-4.43-3.77 3.77-15.52-.89-13.3-7.1-4.21 3.55-13.08 1.33-11.08-8.86s15.78-29.71 15.78-29.71zM356.36 242.41c-6 11.3-11.09 20.61-11.09 20.61" transform="translate(-13.94 -45.75)"/><path class="cls-14" d="M355.06 203.3l-10.42 21.06M366.36 212.17l-9.53 16.63"/><path class="cls-14" d="M335.07 249.28c-3.54.22-8.64 8.87-8.64 12.41s13.52 12.2 16.4 14.63 10.42-2 8-4.87" transform="translate(-13.94 -45.75)"/><path class="cls-20" d="M64.61 309.69c-2.54 1.85-13.3-8.31-16.63-8.65s-10.64 5.32-1.66 12-1 5.65-5 5.32-11.64.33-13 5-7.32 15-3.66 15.3S37.34 337 41.33 333s5.32 2 7.65 5.32 10.64 7 15.63 3.66-5-14 9-11.31 29.59 4 16.29-4.66-17.62-11.63-11-18 2-10.96-14.29 1.68z" transform="translate(-13.94 -45.75)"/><path class="cls-21" d="M37.7 247.97l1.66-18.62M47.01 253.96l1.66-30.26M57.32 230.35l-.66 18.62"/><path class="cls-20" d="M234.87 278.43c2 .33 68.17 0 68.17 0L325 303.7H213.59z" transform="translate(-13.94 -45.75)"/><path class="cls-20" d="M199.65 337.1v23.61h111.4V257.62M199.65 257.62v70.5"/><path class="cls-20" d="M257.51 330.78l-66.17 7.31 6.2-9.18 1.44-2.12M328.67 301.51l68.18-9.64 75.48 44.23-90.78 23.61-52.88-58.2z"/><path class="cls-20" d="M328.34 301.85l1 56.86 50.21 62.52 86.46-22.28 6.32-62.85M380.25 399.6l-.7 21.63M381.55 359.71l-1.05 32.24"/><path class="cls-20" d="M345.63 354.39l27.27 47.22 36.91-9.98"/><path class="cls-20" d="M146.74 344.61c1 0 54.54 20.95 54.54 20.95l-61.85 54.2-66.18-35.91z" transform="translate(-13.94 -45.75)"/><path class="cls-20" d="M181.6 351.61l6.08-6.87-.34-24.94M108.71 397.28l22.1 11.64 37.97-42.85M59.32 338.43l3.99 34.91 32.51 17.14"/><path class="cls-20" d="M81.93 373.01l21.28 26.6 18.08-9.36M141.79 379.62l43.56-22.57-8.31-10.31M125.49 374.01l5.32 34.91"/><path class="cls-14" d="M395.37 256.59c11.75 4 31.26 11.53 43 24.61s1.78 36.58-1.77 39.91-25.71-1.11-36.6-13.53-25.27-27-25.27-27" transform="translate(-13.94 -45.75)"/></g></svg>