<svg xmlns="http://www.w3.org/2000/svg" viewBox="0 0 393.06 478.9"><defs><style>.cls-1{fill:#fff}.cls-3{fill:#bedde8}.cls-6{fill:#26344e}.cls-9{fill:#95c0d1}.cls-13,.cls-14,.cls-15,.cls-16,.cls-17,.cls-18,.cls-21,.cls-22,.cls-24,.cls-26,.cls-27,.cls-28{fill:none;stroke-linecap:round;stroke-width:3px}.cls-13,.cls-24{stroke:#678f9e}.cls-13,.cls-14,.cls-15,.cls-16,.cls-17,.cls-18,.cls-21,.cls-22,.cls-26,.cls-27,.cls-28{stroke-linejoin:round}.cls-14{stroke:#26344e}.cls-15{stroke:#7d7d7f}.cls-16{stroke:#18263e}.cls-17{stroke:#121c2f}.cls-18{stroke:#bebebf}.cls-21{stroke:#916900}.cls-22{stroke:#465671}.cls-24{stroke-miterlimit:10}.cls-26{stroke:#131313}.cls-27{stroke:#5d5d5f}.cls-28{stroke:#310003}</style><mask id="mask" x="208.44" y="152.14" width="87.4" height="296.35" maskUnits="userSpaceOnUse"><path class="cls-1" d="M289 432.5c-3.29 0-6.65-2.66-8.8-3.68-13.45-84.42-60.08-244.22-67.38-269-.45-1.51 2 1.74 2.52 1.65 2.83-.5 3.88-.14 5.82-3.16 1.5-2.32 2.22-8.61 3.24-5.17 2.48 8.37 59.16 199.85 70.43 286 .37 2.84.7 5.57 1 8.17.37 3.57-.74-2-4.31-1.66-.28.01 6.27-5.5-2.52-13.15z" id="Tape_measure" data-name="Tape measure"/></mask></defs><circle cx="196.53" cy="261.41" r="196.53" fill="#d2ecf3" id="Background"/><g id="Flats"><g id="Client"><g id="Skin"><path class="cls-3" d="M312 126.29c5.57-6.06 6.71-18.6 5.43-32.64 2.49.09 5.7-.32 7.43-3.17 2.64-4.28-3.86-13.68-10.6-17.16a173.44 173.44 0 00-8.88-29.61C298.29 27.3 273 8 245.08 27.3s-33.58 19.29-21.94 50.55 17.35 38 17.35 38c1.3 7.3-.06 22.24-.06 22.24l4.65 12.63 24.28 6.28 14.74-2.77c1.18-6.51 7.81-20.13 13.48-25.55 6.28 1.14 11.64.67 14.42-2.39zM307 402.23h-.07c-8.87 0-21.93 9.71-21.95 19.6v.6a14.25 14.25 0 006.23 11.2 196.14 196.14 0 0030.13-20.45c-3.58-4.55-7.29-8.46-10.2-10a8.92 8.92 0 00-4.16-.95"/></g><path d="M314.69 18.54c.67-7.31-12.19-12.63-19.06-9.75-.44-9.53-12.42-8.87-22.17-2.88-.89-3.55-12.42-7.1-18.84 2.44-.67-2-10.2-5.77-19.51 6.43-7.1-4.88-20-6.65-20.4 15.07-4 2.88-2.44 7.76-2.44 7.76-5.1 3.55-7.76 14.41-1.77 17.07-4.66 6.65-4.88 23.5 1.77 25.05-.44 6.43 1.78 18.85 8.87 17.74-3.55 4.65 2.88 8.2 4.43 7.54-.66 5.54 7.54 20.39 18.63 7.53 7.76-11.08 5.54-13.74 5.54-13.74v-.08c-2.49-1.33-4.94-3.9-6.21-8.57-2.28-8.34.49-12.77 5.77-11.11v-.42c9.32 1.78 15.3-12.85 8.21-18.17 1.77-.89 4.87-5.33 2.44-10.65 3.54-.22 9.31-2.21 8.86-9.31 3.11 3.11 20.4 6.88 24.17.89 4.88 5.1 18 2 18.4-3.1 21.05-2.22 13.29-17.96 3.31-19.74z" fill="#465671"/><path class="cls-6" d="M335.31 247.11c-13.08-42.56-73.82-92.89-86-94.44s-20.22 1.92-26.15 8.87c-18.18 21.28-18 60.3-20.18 103.53s8.2 59.86 17.51 69.17A102.09 102.09 0 01223.8 346s1.62 18.23 1.85 34.47c4.47 5 11.28 11.79 10.79 16.29 4.62 1.64-2.13 3.41 2.36 4.5a157.42 157.42 0 0026.46 3.93h.35c-.78-1.74-1.24-2.86-1.24-2.86-4.88-1.55-3.1-4.44-3.1-9.31s-3.77-11.31-6.43-14.41-21.29-34.37-27.05-51.22c-3.55-8.2-9.31-16.18-9.75-31.25s-6.21-47.22-4.44-52.55-6.65-46.11-1.77-58.3 8.64-25.27 17.51-25.72c12.62-.63 47.67 6.43 46.34 52.1s-10.42 51.66-10.42 51.66l6.87 39.46s-4.43 7.09-2.66 8.42 5.32 2.44 7.76 6.21 20.39 35.25 20.84 37.46 1.11 22.84.44 25.06 14 20.17 14 20.17-1.06 1.24-2.85 3.16l1.92-.08a155.43 155.43 0 0016.89-3.52s19.92-109.99 6.84-152.56z"/><path class="cls-1" d="M230.45 153.56c.67-.45 5.1-15.74 5.1-15.74s26.16 10 36.58 13.08 22.61 5.54 22.61 5.54l-.44 7.31-1.55-4.43-10.64 16s-14.86-14.23-21.29-17.32-9.53-6-18.4-5.54a87.85 87.85 0 00-11.97 1.1z"/><path d="M296.74 183.71l-4.21-.45-10.65-8.64s10-15.08 13.31-16c-.23 5.76 6 8.86 6 8.86z" fill="#efefef"/><path class="cls-1" d="M229.34 159.54c12.62-.63 47.67 6.43 46.34 52.1s-10.42 51.66-10.42 51.66l6.87 39.46s-4.43 7.09-2.66 8.42 5.32 2.44 7.76 6.21 20.39 35.25 20.84 37.46 1.11 22.84.44 25.06 14 20.17 14 20.17-21.31 25.05-35.51 24.16c-6-5.76-12.64-21.94-12.64-21.94-4.88-1.55-3.1-4.44-3.1-9.31s-3.77-11.31-6.43-14.41-21.29-34.37-27.05-51.22c-3.55-8.2-9.31-16.18-9.75-31.25s-6.21-47.22-4.44-52.55-6.65-46.11-1.77-58.3 8.65-25.26 17.52-25.72z"/></g><g id="Tailor"><path d="M44.56 384.78s0 .4-.1 1.13A196.62 196.62 0 00144.69 451c-.32-23.32-2.7-55.94-2.7-55.94l-97.43-10.28" fill="#4a4a4c"/><path class="cls-3" d="M225 133.75c-2.72-2.05-12.4-15.72-14.59-17.27s-13.23 4-24.22 6.26l-12.63 3.66-4.33 21.95L179.9 153c11 2 16.3-.06 17.08.11s11.37 4.75 15.9 6.95 9-1.32 9.11-4.56a1.83 1.83 0 00-.18-.81l1.46-1.45c1.85-5.14 4.48-17.44 1.73-19.49z"/><path class="cls-9" d="M175.75 140c4.44-22.61 1.65-45.94-1.22-57.36-7.59-30.06-55.81-32.72-72.11-29.06s-25.6 22.62-20.61 48.55 7.2 43 7.2 43A120.83 120.83 0 0183.69 158s-2.22 6.65.44 17 19 17 20 17.62 20 2 23.61-5.43c2.43-9.09 9.09-10 15.74-8.31l-.09-.09c5.86 2.26 10.66 2.87 12.61 1A65.48 65.48 0 00171.19 156a12.21 12.21 0 006.05-1.84c3.09-2.16 1.89-6.66-1.49-14.16zM292.3 445.64s3.33-2 1.33-8.32c-12.63-13-29.26-11.3-29.26-11.3s-17.05-15.92-28-27.82l-18.6 25.15c4.13 3.63 14 12.69 20.69 22 1 8 18 27.93 21.62 30.59a7.21 7.21 0 0010.64-2s8.31 2.33 12.63-3c4.66.33 8-1 9-7 0 0 7-.33 9.31-3s1.28-8.32-9.36-15.3z"/><path d="M179.9 25.2c-3.32 15.63-9.47 18.9-20 17.4s-58.69-15.69-71.83 6.76c-15.46 4-23.88 22.43-10.86 52.1 13.14 29.93 8.87 44.23 8.87 44.23l13.8-3.83 2.66-4.15.12-1.27c-3.18-.48-7.66-3.91-7.27-15.69.43-13 8.28-10.33 13-6.27l.32-.55c.17 1.83 1.66 8 4.32 9.14 9.81-8.48 5.16-23.94 2-36.74 70.69 10.81 91.81-18.24 64.87-61.13z" fill="#630006"/><path class="cls-1" d="M68.28 172.4l11.2-17.07s43.39 34.58 68 40.9c2.16 16.13-3 22.45-3 22.45s-28.87-31.87-76.2-46.28z"/><path d="M154.89 370.18c-1.41 11.74-3.14 24.45-5.25 38.21-23.61 3.33-73.16.67-107.41-19.28 3.66-15.3 9.31-46.56 9.31-46.56l.34-12c-6-5-6.32-15.3-8.32-35.92s-15.29-31.25-5-65.17S61.63 174.73 69.5 175a64.07 64.07 0 019 1c19.29 5.32 54.87 22 67.84 39.9 6.75 7.59 10.33 20.45 13 30.93.24 4.82 1.73 16 2 30.93-1.06 36.24-2.54 72.17-6.45 92.42z" fill="#121c2f"/><path class="cls-1" d="M219.81 373.48a33.72 33.72 0 01-2.81 3.34l-.18-.68s-22.95-23.28-24.28-26.61-.66-8-.66-8l-7-4.65s-.66-7-1.33-9.65-25.6-54.2-28.26-62.51c-9-33.26-45.61-53-66.18-55.21-12.3-1.33-25.94 4.66-24.94 24.28s-7.32 26.94 4 42.9 27.93 25.6 27.93 25.6l1.29.79c2.07 4.81 3.74 8.88 4.7 11.52 4 11 31.59 48.88 38.24 50.21s14 1 17.63 8.31 23.27 30.6 29.26 33.59a51.85 51.85 0 007.73 3.12l2.14-.45c.69 6 1.1 11 1.1 11l15.3 6.31s21.95-26.27 23.61-29.59-17.29-23.62-17.29-23.62z"/></g></g><g id="Lines"><g id="Client-2" data-name="Client"><path d="M284.7 420.23h-.05a1.5 1.5 0 00-1.43 1.57 15.49 15.49 0 006.93 12.46c1-.54 2-1.09 3-1.65-3.61-2.16-6.65-5.54-6.89-10.95a1.49 1.49 0 00-1.52-1.43m26.18-19.29a1.5 1.5 0 00-.75 2.8c2.8 1.62 6.55 5.68 10.17 10.34.78-.63 1.56-1.27 2.33-1.92-3.81-4.88-7.82-9.17-11-11a1.53 1.53 0 00-.75-.2" fill="#678f9e"/><path class="cls-13" d="M297.07 129.06c-6 3.55-11.64 17.85-13 25.16M240.49 115.8c1.3 7.3-.06 22.24-.06 22.24"/><path class="cls-14" d="M252.18 80.4c-7.1-4.44-11.31 0-8.65 9.75s10.42 10.42 13.08 9.53"/><path class="cls-15" d="M282.33 174.51s7.09-12.53 13.74-17.85c-24.83-4-60.52-19.07-60.52-19.07a113.83 113.83 0 01-5.76 17.52"/><path class="cls-16" d="M225.64 379.78c-.27-16.06-1.84-33.79-1.84-33.79a102.09 102.09 0 00-3.33-11.75c-9.31-9.31-19.73-25.94-17.51-69.17s2-82.25 20.18-103.53c5.93-6.95 14-10.42 26.15-8.87s72.94 51.88 86 94.44-6.87 152.53-6.87 152.53a155.43 155.43 0 01-16.89 3.52"/><path class="cls-17" d="M265.26 405.18a158.84 158.84 0 01-25-3.6"/><path class="cls-16" d="M229.34 159.54c12.62-.63 47.67 6.43 46.34 52.1s-10.42 51.66-10.42 51.66l6.87 39.46s-4.43 7.09-2.66 8.42 5.32 2.44 7.76 6.21 20.39 35.25 20.84 37.46 1.11 22.84.44 25.06 14 20.17 14 20.17-21.31 25.05-35.51 24.16c-6-5.76-12.64-21.94-12.64-21.94-4.88-1.55-3.1-4.44-3.1-9.31s-3.77-11.31-6.43-14.41-21.29-34.37-27.05-51.22c-3.55-8.2-9.31-16.18-9.75-31.25s-6.21-47.22-4.44-52.55-6.65-46.11-1.77-58.3 8.65-25.26 17.52-25.72z"/><path class="cls-18" d="M296.74 388.55c-4.33 4-14.26 12-22.23 16.09"/><path class="cls-15" d="M295.96 157.1l-4.54 21.51 9.53-11.97-3.77 16.85M300.73 166.41a24.39 24.39 0 01-4.66-2.1"/><path class="cls-13" d="M258.16 104.56c2 10.87 43.9 32.59 53.87 21.73 5.57-6.06 6.71-18.6 5.43-32.64 2.49.09 5.7-.32 7.43-3.17 2.61-4.28-3.89-13.68-10.63-17.16a173.44 173.44 0 00-8.88-29.61"/><ellipse class="cls-6" cx="303.05" cy="71.39" rx="3.21" ry="4.43" transform="rotate(-10.47 303.217 71.42)"/><path class="cls-14" d="M293.3 61.11c2.33-1.66 7.65-5.32 10.2-5"/><path class="cls-13" d="M317 103.34c-9.75.67-21.28 2.55-22.72-.88M295.63 100.13c-2.22.11-4.21 3.21-4.55 4.32"/><path class="cls-14" d="M249.29 78.62c9.32 1.78 15.3-12.85 8.21-18.17 1.77-.89 4.87-5.33 2.44-10.65 3.54-.22 9.31-2.21 8.86-9.31 3.11 3.11 20.4 6.88 24.17.89 4.88 5.1 18 2 18.4-3.1 21.06-2.22 13.3-18 3.32-19.74.67-7.31-12.19-12.63-19.06-9.75-.44-9.53-12.42-8.87-22.17-2.88-.89-3.55-12.42-7.1-18.84 2.44-.67-2-10.2-5.77-19.51 6.43-7.1-4.88-20-6.65-20.4 15.07-4 2.88-2.44 7.76-2.44 7.76-5.1 3.55-7.76 14.41-1.77 17.07-4.66 6.65-4.88 23.5 1.77 25.05-.44 6.43 1.78 18.85 8.87 17.74-3.55 4.65 2.88 8.2 4.43 7.54-.66 5.54 7.54 20.39 18.63 7.53 7.76-11.08 5.54-13.74 5.54-13.74"/></g><g id="Tape_Measure-2" data-name="Tape Measure"><path d="M289 432.5c-3.29 0-6.65-2.66-8.8-3.68-13.45-84.42-60.08-244.22-67.38-269-.45-1.51 2 1.74 2.52 1.65 2.83-.5 3.88-.14 5.82-3.16 1.5-2.32 2.22-8.61 3.24-5.17 2.48 8.37 59.16 199.85 70.43 286 .37 2.84.7 5.57 1 8.17.37 3.57-.74-2-4.31-1.66-.28.01 6.27-5.5-2.52-13.15z" fill="#f5bf33" id="Tape_measure-3" data-name="Tape measure"/><g mask="url(#mask)"><path class="cls-21" d="M209.94 168.37l11.42-3.06M212.5 177.32l11.46-3.05M215.11 186.51l11.51-3.05M217.76 195.91l11.55-3.03M220.44 205.52l11.6-3.02M223.16 215.32l11.64-3.01M225.89 225.29l11.7-2.99M228.64 235.42l11.75-2.98M231.4 245.69l11.8-2.95M234.17 256.09l11.84-2.94M236.93 266.6l11.89-2.91M239.68 277.21l11.94-2.89M242.41 287.89l11.99-2.86M245.12 298.64l12.04-2.82M247.8 309.44l12.09-2.79M250.44 320.28l12.15-2.76M253.04 331.13l12.2-2.72M255.59 341.99l12.25-2.68M258.08 352.83l12.31-2.63M260.51 363.65l12.36-2.58M262.87 374.42l12.42-2.52M265.16 385.13l12.47-2.46M267.36 395.76l12.52-2.39M269.47 406.31l12.58-2.32M271.49 416.75l12.64-2.24M273.4 427.06l12.7-2.15"/></g></g><g id="Tailor-2" data-name="Tailor"><path class="cls-22" d="M236.34 398.2c11 11.9 28 27.82 28 27.82s16.63-1.66 29.26 11.3c2 6.32-1.33 8.32-1.33 8.32 10.64 7 11.64 12.64 9.31 15.3s-9.31 3-9.31 3c-1 6-4.32 7.31-9 7-4.32 5.32-12.63 3-12.63 3a7.21 7.21 0 01-10.64 2c-3.66-2.66-20.62-22.61-21.62-30.59-6.69-9.27-16.56-18.33-20.69-22"/><path d="M143 408.22h-.07a1.5 1.5 0 00-1.43 1.56c.25 5.23.78 11.36 1.35 17.85.72 8.19 1.45 16.56 1.6 23.33 1 .27 2 .54 3 .79-.11-7.06-.87-15.81-1.62-24.38-.57-6.46-1.1-12.56-1.34-17.73a1.51 1.51 0 00-1.5-1.43" fill="#383839"/><path class="cls-22" d="M159.29 119.25c-.83 2.33-16.46-3-18.29-.5M173.09 118.42c2 .16 5.15 2.16 5.15 2.16"/><path class="cls-24" d="M187.22 122.74c11-2.22 21-7.81 23.22-6.26s11.87 15.22 14.56 17.27.09 14.35-1.76 19.49M212.18 132.76c-1.6.26-13.41 6.58-13.41 6.58"/><path class="cls-24" d="M207.69 135.4c1.83 1.17 7.92 5.6 7.92 5.6l.2 8.61"/><path class="cls-24" d="M200 139.43c2.52 2.67 9.87 8.37 11 8.77s11.11 4.06 11 7.3-4.57 6.75-9.11 4.56-15.13-6.78-15.9-6.95-6.1 1.89-17.08-.11"/><path class="cls-22" d="M107.63 140.25c-6 18.63 41 46.56 48.33 39.47A65.48 65.48 0 00171.19 156a12.21 12.21 0 006.05-1.84c3.09-2.19 1.89-6.67-1.49-14.18 4.44-22.61 1.65-45.94-1.22-57.36M177.24 154.17c-4 2.82-12.13 2.16-12.8.16M167.27 164.48c-1.17 2-18.46.66-22.61-1.83M146 159.82c-2.83.33-5.16 3.82-5.16 3.82"/><ellipse cx="151.77" cy="132.77" rx="5.03" ry="3.65" transform="rotate(-85.15 151.768 132.771)" fill="#18263e"/><path class="cls-26" d="M136.18 122.74l30.59.17s-2.16 16.13-9.48 18.79c-10.09 3.66-21.28-.84-21.78-5.32s.67-13.64.67-13.64zM186.56 118.42l-14.93 3.82s-.78 13.76 4.45 16.63c5.65 3.1 8.7-2.83 9.48-6.71.87-4.36 1-13.74 1-13.74zM166.27 127.06c2.16-.66 5.32-1 5.49 0"/><path class="cls-22" d="M89 145.13A120.83 120.83 0 0183.69 158M143.44 178.83c-6.65-1.66-13.31-.78-15.74 8.31"/><path class="cls-27" d="M80.14 176.78c-2.62-.95-9.11-3.54-11.86-4.38l11.2-17.07s43.39 34.58 68 40.9c1.26 9.35.05 15.41-1.19 18.84"/><path class="cls-17" d="M161.28 277.71c-.26-15-1.75-26.11-2-30.93-2.64-10.48-6.45-23.14-13-30.93-12-14.3-38.91-30.92-60.69-36.58-5.55-1.44-13-4.23-16.13-4.32-7.87-.22-20.62 20.62-30.93 54.54s3 44.56 5 65.17 2.33 30.93 8.32 35.92l-.34 12s-5.65 31.26-9.31 46.56c34.25 19.95 83.8 22.61 107.41 19.28 2.11-13.76 3.84-26.47 5.25-38.21"/><path class="cls-27" d="M216.82 376.14s-22.95-23.28-24.28-26.61-.66-8-.66-8l-7-4.65s-.66-7-1.33-9.65-25.6-54.2-28.26-62.51c-9-33.26-45.61-53-66.18-55.21-12.3-1.33-25.94 4.66-24.94 24.28s-7.32 26.94 4 42.9 27.93 25.6 27.93 25.6"/><path class="cls-27" d="M75.82 256.09c6 12 22.28 47.55 26.27 58.53s31.59 48.88 38.24 50.21 14 1 17.63 8.31 23.27 30.6 29.26 33.59a51.85 51.85 0 007.73 3.12M219.81 373.48c-4.32 6-16 16-26.27 16 2.66 7 4.65 30.93 4.65 30.93l15.3 6.31s21.95-26.27 23.61-29.59-17.29-23.65-17.29-23.65z"/><path class="cls-18" d="M109.07 282c10 12.63 42.57 54.2 68.17 54.2"/><path class="cls-28" d="M102.59 137.71l-2.66 4.15-13.8 3.83s4.27-14.3-8.87-44.23c-13-29.67-4.6-48.11 10.86-52.1 13.14-22.45 61.36-8.26 71.88-6.76s16.63-1.77 20-17.4c26.94 42.89 5.82 71.94-64.84 61.13 3.16 12.8 7.81 28.26-2 36.74-2.66-1.16-4.15-7.31-4.32-9.14"/><path class="cls-26" d="M106.25 112.27c11.14 4.32 29.09 10.91 29.09 10.91"/><path class="cls-28" d="M109.16 115.51c-3.91-6.49-13.28-8.07-13.72 5.24s5.32 16 8.42 15.74"/></g></g></svg>