<svg xmlns="http://www.w3.org/2000/svg" viewBox="0 0 416.01 449.67"><defs><style>.cls-1{fill:#fff}.cls-2{fill:#d2ecf3}.cls-3{fill:#5d5d5f}.cls-7{fill:#383839}.cls-8{fill:#efefef}.cls-11,.cls-12,.cls-15,.cls-16{fill:none;stroke-linecap:round;stroke-linejoin:round;stroke-width:3px}.cls-11{stroke:#5d5d5f}.cls-12{stroke:#383839}.cls-13{fill:#bebebf}.cls-14{fill:#bedde8}.cls-15{stroke:#bebebf}.cls-16{stroke:#7d7d7f}</style><mask id="mask" x="119.05" y="127.77" width="180.9" height="165.12" maskUnits="userSpaceOnUse"><path class="cls-1" d="M183.32 138.1L162 258.81l66.51 14.3c-.33-9 2-18.62 4.66-20.28s6.31-1.33 13 .66 46.63 14 73.2 29.78c5.28-27.45 23.57-111.92 23.57-111.92z" transform="translate(-42.99 -10.33)"/></mask></defs><circle class="cls-2" cx="208" cy="241.67" r="208" id="Background"/><g id="Flats"><path class="cls-3" d="M299.6 346.6l-3.54-28.82s-20-10.2-47-24.38c-23.86-12.52-22.53-26.76-17.32-38.47a6 6 0 016.93-3.36c50.73 13.1 79.1 29.29 94.14 40.81l49.52-225.61A19 19 0 00367.64 44L214.28 12.23a19 19 0 00-22.58 15.35l-59.3 341.3a19 19 0 0014.36 21.75L278 421.83c-16-42.01 2.61-58.26 21.6-75.23z" transform="translate(-42.99 -10.33)"/><path class="cls-1" d="M298.35 347.73l1-3.05-3.31-26.9s-20-10.2-47-24.38c-23.86-12.52-22.53-26.76-17.32-38.47a6 6 0 016.93-3.36c38.41 9.92 64 21.61 80.7 31.7l47.11-215.94a12.6 12.6 0 00-9.76-15l-18.26-3.76a5.92 5.92 0 00-6.9 4.16l-.19.65a6.22 6.22 0 01-7.22 4.36L242.64 41a6.22 6.22 0 01-4.86-7.25 5.93 5.93 0 00-4.64-6.92l-17-3.51a12.59 12.59 0 00-15 10.19l-57.78 333.22a12.6 12.6 0 009.64 14.44l121 28c-7.83-32.02 7.83-46.68 24.35-61.44z" transform="translate(-42.99 -10.33)"/><ellipse class="cls-2" cx="195.53" cy="194.61" rx="3.33" ry="8.48"/><g mask="url(#mask)"><path d="M183.32 138.1c0 1-21.28 120.71-21.28 120.71l154 33.92 26.93-121.38z" transform="translate(-42.99 -10.33)" fill="#a9cedc"/><path class="cls-2" d="M283.44 208.53a2 2 0 00-1.74.39c1.22-17.32-7.05-32.38-20.22-35.14s-26.73 7.62-32.61 23.88a1.82 1.82 0 00-1.27-.89c-1.82-.21-3.73 3.39-4.27 8s.52 8.6 2.34 8.81a.87.87 0 00.23 0c-.28 16.25 7.82 30 20.35 32.63s25.47-6.68 31.75-21.66c1.73.44 4.3-2.61 5.8-7s1.37-8.42-.36-9.02z" transform="translate(-42.99 -10.33)"/><rect x="190.12" y="250.42" width="100.93" height="45.56" rx="14.38" transform="rotate(11.87 268.694 61.181)" fill="#678f9e"/><path class="cls-2" d="M235.16 238.65h21.28v13a6.45 6.45 0 01-6.45 6.45h-8.38a6.45 6.45 0 01-6.45-6.45v-13z" transform="rotate(11.87 273.943 36.376)"/><path class="cls-7" d="M242.72 170.68c5.4-4.64 21.27-7.42 31 3.11s13.55 5.06 13.55 5.06c-.72 4.26-2.26 8.35-3.64 9.25 7.35 2.23 4.13 7.84 4.13 7.84S280 211.48 279.07 216c.32-9.62-1.48-22.06-1.48-22.06-9.3.6-35.41-4.55-40.33-7.79-7.07 12.61-9.63 20.74-9.63 20.74a187.39 187.39 0 001-20.7c.66-5.76 2.99-24.13 14.09-15.51z" transform="translate(-42.99 -10.33)"/></g><path class="cls-8" d="M344.27 241.52l-11.46 50.86c-15-11.52-43.41-27.71-94.14-40.81a5.94 5.94 0 00-6.93 3.36c-5.21 11.71-6.54 25.95 17.32 38.47 27 14.18 47 24.38 47 24.38l3.54 28.82c-19 17-37.61 33.22-21.63 75.23l-112.72-26c-9.81 6-12.17 11.6-9.75 16.85 1.94 4.2 8.35 7.93 16.66 7.93a30.41 30.41 0 0010-1.73c11.57-4 23.51-9.06 30-9.06a8.26 8.26 0 011.94.2c5.76 1.33 28.38 12 31.92 15.07 1.29 10.28 7.49 23.7 17.75 34.54a207 207 0 00118.48-46.2l-14.3-21.15q-1.51-7.2-3.05-14.14l.39-.27-1.1-76.56a40.9 40.9 0 00-2.5-12.75l-17.35-47M150.41 236.67c-14 0-20.21 8.21-21.07 16.65-.84 8.26 4.77 17.63 19.29 19l6.1-34.91a6.9 6.9 0 00-2.78-.72h-1.54M144.67 289.6a42.41 42.41 0 00-6.9.69c-13.85 2.23-22.62 7.54-22.62 19.95 0 11.81 7 15.81 15 15.81a32 32 0 009.59-1.62l6.1-34.8h-1.19" transform="translate(-42.99 -10.33)"/></g><g id="Lines"><path stroke="#4a4a4c" fill="none" stroke-linecap="round" stroke-linejoin="round" stroke-width="3" d="M221.14 25.46l39.9 7.98"/><path d="M207.36 56l-.17.82a4.47 4.47 0 003.52 5.3l52.84 10.28a4.47 4.47 0 005.21-3.38 4.47 4.47 0 00-3.43-5.38l-52.68-11.08a4.47 4.47 0 00-5.29 3.44z" transform="translate(-42.99 -10.33)" fill="#7d7d7f"/><path class="cls-11" d="M365.22 377.86l-1.1-76.56a40.9 40.9 0 00-2.5-12.75l-17.35-47M154.73 237.42a6.9 6.9 0 00-2.78-.72c-15.08-.62-21.72 7.87-22.61 16.62-.84 8.26 4.77 17.63 19.29 19M145.86 289.63a37.69 37.69 0 00-8.09.66c-13.85 2.23-22.62 7.54-22.62 19.95 0 16.43 13.53 17.74 24.61 14.19M165.25 395.82c-9.81 6-12.17 11.6-9.75 16.85 2.66 5.76 13.75 10.64 26.6 6.2s26.16-10.19 31.9-8.87 28.38 12 31.92 15.07" transform="translate(-42.99 -10.33)"/><path class="cls-12" d="M277.75 421.61l-131-31a19 19 0 01-14.36-21.75l59.3-341.3a19 19 0 0122.58-15.35L367.64 44a19 19 0 0114.69 22.75l-50.14 224.87" transform="translate(-42.99 -10.33)"/><circle class="cls-13" cx="303.94" cy="73.57" r="7.32"/><circle class="cls-13" cx="281.66" cy="68.25" r="7.32"/><circle class="cls-13" cx="130.37" cy="262.46" r="4.83"/><circle class="cls-13" cx="146.73" cy="266.51" r="4.83"/><circle class="cls-14" cx="163.94" cy="91.63" r="11.31"/><path class="cls-15" d="M314.03 98.4l-162.2-33.43"/><path class="cls-16" d="M274.28 111.15l-88.91-18.36"/><path class="cls-15" d="M200.93 105.13l-17.89-3.7"/><circle class="cls-14" cx="126.7" cy="310.44" r="11.31"/><path class="cls-16" d="M237.03 329.96l-88.91-18.36"/><path class="cls-15" d="M163.69 323.94l-17.9-3.7"/><path class="cls-16" d="M290.68 141.54l-136.44-28.43"/><path class="cls-15" d="M152.96 282.46l-30.01-6.62M194.48 291.63l-29.62-6.54M233.79 300.32l-25.29-5.59"/><circle class="cls-13" cx="114.99" cy="354.53" r="4.83"/><circle class="cls-13" cx="131.29" cy="358.82" r="4.83"/><path class="cls-15" d="M254 316.6l-140.27-31.23"/><path class="cls-16" d="M205.43 348.27l-88.02-19.76M203.82 357.37l-88.5-20.02"/><path class="cls-12" d="M319.11 282.75l47.35-215.42a12.6 12.6 0 00-9.76-15l-18.26-3.76a5.92 5.92 0 00-6.9 4.16l-.19.65a6.22 6.22 0 01-7.22 4.36L242.64 41a6.22 6.22 0 01-4.86-7.25 5.93 5.93 0 00-4.64-6.92l-17-3.51a12.59 12.59 0 00-15 10.19l-57.78 333.22a12.6 12.6 0 009.64 14.44l120.23 27.28" transform="translate(-42.99 -10.33)"/><path class="cls-12" d="M367.88 392.27c-9.75-46.11-19.95-85.13-19.95-85.13s-20.13-32.56-109.26-55.57a6 6 0 00-6.93 3.36c-5.21 11.71-6.54 25.95 17.32 38.47 27 14.18 47 24.38 47 24.38l3.54 28.82c-20.84 18.62-41.23 36.36-16 88.24" transform="translate(-42.99 -10.33)"/><path class="cls-3" d="M246 423.58h-.19a1.51 1.51 0 00-1.32 1.48v.18c1.22 9.72 7.13 23.25 17.32 34.45 1.28-.06 2.57-.14 3.85-.23-10.75-11-17-24.82-18.19-34.59a1.5 1.5 0 00-1.48-1.32" transform="translate(-42.99 -10.33)"/><path class="cls-7" d="M367.88 390.77a1.46 1.46 0 00-.84.26 1.5 1.5 0 00-.4 2.08L381 414.36c.79-.62 1.57-1.26 2.34-1.9l-14.22-21a1.51 1.51 0 00-1.25-.66" transform="translate(-42.99 -10.33)"/></g></svg>