<svg xmlns="http://www.w3.org/2000/svg" viewBox="0 0 520.86 454.39"><defs><clipPath id="clip-path"><path class="cls-1" d="M14.35 37.18h506.51v398.44H14.35V37.18"/></clipPath><clipPath id="clip-path-2"><path class="cls-1" d="M14.35 37.18h506.51v398.43H14.35V37.18"/></clipPath><style>.cls-1,.cls-11,.cls-21,.cls-22,.cls-23,.cls-24,.cls-25,.cls-26,.cls-27,.cls-28,.cls-29,.cls-32{fill:none}.cls-5{fill:#fff}.cls-6{fill:#a9cedc}.cls-7{fill:#4d6b76}.cls-8{fill:#d2ecf3}.cls-9{fill:#465671}.cls-11,.cls-21,.cls-22,.cls-23,.cls-24,.cls-25,.cls-26,.cls-27,.cls-28,.cls-29,.cls-32{stroke-linecap:round;stroke-linejoin:round;stroke-width:3px}.cls-11{stroke:#18263e}.cls-12{fill:#4a4a4c}.cls-17{fill:#95b8c5}.cls-18{fill:#26344e}.cls-21{stroke:#678f9e}.cls-22{stroke:#383839}.cls-23{stroke:#26344e}.cls-24{stroke:#310003}.cls-25{stroke:#a9cedc}.cls-26{stroke:#465671}.cls-27{stroke:#34484f}.cls-28{stroke:#4d6b76}.cls-29{stroke:#5d5d5f}.cls-32{stroke:#4a4a4c}</style></defs><g clip-path="url(#clip-path)" id="Background"><path d="M174 37.18c-70.33 0-122 29.59-144.39 73.63-10.46 19.19-15.24 41.24-15.26 64.43v.21c0 42.08 15.75 88 42 128.26a352 352 0 0065 74.69l14.36-9.6 19.49-13.65s122.71-59.74 124-59.74 7.1.11 7.1.11l72.05 18.17 34.06 8.6 31.54 8c32.2-16.37 67.25-26.72 86.2-46.27 7-6.79 10.6-15.69 10.61-26.34v-.15c0-23-16.81-54-53.05-89.38-51.2-50.2-144.25-109.83-240.9-125.77a285.89 285.89 0 00-52.81-5.2" fill="#bedde8"/></g><g id="Flats"><path class="cls-5" d="M345.81 380.59v4.42l-1.35 1.07 56.86 24.27s26.69-22.53 27.6-23.27 3.16-4.83-.08-6.41l-61.77-3.24z"/><path class="cls-6" d="M204.37 283.43L217 268.8l9.76-49.44-18.18-2.88-7.58 9.31c-.17 9 1.49 50.55 1.49 50.55z"/><path class="cls-7" d="M303.41 92c-8.65-7.32-18.12-30.43-15.46-48.06s-10.64-32.75-14.3-35.41a16 16 0 00-19.79 1.16c-7.31-6.32-11.3-9.64-19.12-7.48s-33.92 18.29-37.58 44.73c-3.23 23.36 5.48 37.11 7.55 40C201.6 97.82 195 110.7 180.7 122c4.66 0 13-3 13-3-10.64 16.79-12.3 38.07 6.32 46.72 16.57 6.37 34.31 1.27 48.94-1.39s31.37-45.83 31.37-45.83c16.63-3.16 15.3-26.27 13.13-32.59z"/><path class="cls-6" d="M218.94 118.37a72.34 72.34 0 008.65-4.48c2.49-2 3.82-12.3 3.16-22.94l2.88-15 20-3.11L261 86.29c-2.33 13-.83 18 1 23.78.77 2.45 4.83 4.54 9.53 6.2 5.54 3.33-4.65 27.05-4.65 27.05s-33.48 24.17-33.7 23.5-19.95-28.15-18.85-36.58 4.61-11.87 4.61-11.87z"/><path class="cls-6" d="M272.88 53.78c.06-.82.1-1.63.1-2.4 0-25.78-13.63-36.09-28.93-36.09s-28.43 8.15-28.43 38.58v1.58c-3.56 1.87-4.25 6.93-2.24 11.89a8.39 8.39 0 006.82 5.54c6.34 14.33 17.76 27.43 25 27.54s17.37-14.35 23.22-29.22a8.4 8.4 0 006.7-5.53c2.04-4.96 1.34-10.04-2.24-11.89z"/><path class="cls-8" d="M416.18 252.55a11 11 0 00-8.85-12c-.92-.17-16.79.33-17.69 6.67-.07 1.21-.14 2.34-.2 3.39-.38 6-.62 9.28-.62 9.28-10.87 33.48-18 49.66-18 49.66l1.05-1 9-2.33 19.46-14.86c1.1-1.77 14.18-26.16 14.18-26.16l2.13-13.31zM429.11 163.44l-5.65-5.82-2.5-5.15-4.49-2.16A89.61 89.61 0 01407 146h-.34c-7.31-7.81-2.49-34.91-36.08-36.74s-41.07 12.47-39.9 18.79a163.83 163.83 0 004.69 16.84 88.72 88.72 0 0017.7 27.65c1 7.82 2.22 9.23 3.55 9.71s3.23-.74 4.33-2.75a53.58 53.58 0 0015.5 8.14 6.58 6.58 0 007.93-3.3c.7-1.42 1.38-2.85 2-4.29 5.3-.47 14.51 2.91 14.94 3.2l-1.83 7.48s7.15 4.32 7.65 4.16 24.11-12.14 24.11-15-1.81-14.62-2.14-16.45z"/><path class="cls-9" d="M217.89 262.82c-12.47 9-57.94 57-65.46 86a5.47 5.47 0 005.62 6.81 88.42 88.42 0 0037.23-10.56c18.84-10 86-38.07 94.83-54.92a35 35 0 003.32-12c-.61-10.92-.38-22.89-29.65-25.55s-45.89 10.22-45.89 10.22z"/><path class="cls-7" d="M277.75 32.92l-14.19-17.51-10.42.22L235.41 13l-20.18 10-9.59 33.59c27.61-.7 42.34-20.89 46.49-31l.07.07c9.48 2.83 20.28 15.13 20.78 28.6l5.88-1.11z"/><path d="M247.88 125.37a4.36 4.36 0 01-6.49.49" stroke-linecap="round" stroke-linejoin="round" stroke-width="3" stroke="#95b8c5" fill="none"/><path class="cls-5" d="M237.92 82.31l-1.35-.51a7.71 7.71 0 001.35.51zM253.2 81.64c-2.43.3-10.36 2.11-15.28.67l2.64 1s.17 3.16 4.32 3.16 10.98-5.17 8.32-4.83zM142.63 375c.31-3.15-7.22-6.47-16.81-7.41s-17.63.85-17.94 4a2.64 2.64 0 00.77 1.94l-.07.05v10.18l.58 29.93c-.23 2.27 4.74 3.75 11.65 4.42s12.7-.61 12.92-2.88L135 409l4.33-20.28 2.58-12.35a2.36 2.36 0 00.72-1.37z"/><path class="cls-12" d="M138.28 377.19a39.05 39.05 0 00-13.08-3.33c-6-.58-11.38-.1-14.65 1.11v.1c3 1.82 8.16 3.34 14.16 3.92 5.82.58 11 .14 14.34-1z"/><path class="cls-11" d="M471.4 241.2c-3-15.94-8.51-29.2-12-37.35-1.16-10.31-6.65-23.45-8.81-25.44"/><path class="cls-12" d="M371.42 358.14l57.52 22.29-27.6 23.27-56.86-24.27 26.94-21.29z"/><path d="M403.17 113.89c4-9.31-4.49-15.79-11-16-1-6.15-12.8-11-19.46-9.14-3.15-6.32-9-5-12-1.33-12.8-.84-19.12 6.65-19.62 14.13-.16-.5-6.48-2-9.64.17s-4.82 6.48-4.49 14.63c-3 0-7.32 3.65-9.31 8.64s7 22.45 12 22.28S340.16 142 340.32 136c8.15.33 14.8.33 15.63-11.31 3.33 4.49 10.14 12.8 19.62 12.8 5-.5 1.66-7.15 1.66-7.15l2.65 2.88c2.75-5.28 8.49-1.89 11 3.11 1.87 3.75 1.68 7.58.65 9.51l1.34 1.46c3.16 2.33 8.15 2.16 8.15 2.16a65.21 65.21 0 005.65-3.49c.67-.66-.33-3-1.82-14.8 3.98-4.17 1.81-14.95-1.68-17.28z" fill="#5d5d5f"/><path class="cls-8" d="M473.5 274.68a170.1 170.1 0 00-3.07-32.93l-5.9-.33-29.36 11.77c2.68 5.74 4.58 9.68 4.58 9.68-26.1 19.29-58.86 43.4-58.86 43.4-7.31 2.33-26.27 8.64-27.93 9.64S335 333.37 331.68 337s1 6.65 5.48 3 17-11.31 17-11.31l.52.28a68.59 68.59 0 001.51 10.57 3.34 3.34 0 004.78 2.32l.78-.48a14.78 14.78 0 00.6 2.19c.61 1.56 4.17 1.08 4.47.62l.84-1.2c.38 1.12.9 1.92 1.63 2.13 2.77.77 9.71 0 10.94-1.24s4.93-6.82 3.39-8.21l-.86-1.15c6.74-2.59 11.44-7.55 8.31-16.47-.07.02 32.93-7.96 82.43-43.37z"/><path class="cls-6" d="M335 253.7c-1.85-4.47-6.32-15-8.15-17.1-5.48-9-16-8-16-8s-1.49-4.82-1-16.13c0 0 .67-11.31-5.09-12.86s-19.07 11.75-19.07 11.75l-.22-.44c0 .56 6.47 18.95 8.49 24.69-2.29 3.6-1.77 8.32-1.06 15.1a20.48 20.48 0 00-1.45 7.65s-5.15 7.54-8.64 9.87-2.33 6.7 2 4.21 7.35-4.27 10-7.43c-1.33 6.32-6.79 9.31-9.12 12.64s-.11 4.71 1.88 4.05 6.54-4 7.65-5.16c2-2.16 5.41-7.95 6.9-10.78l.34-1.83c.33 3.49-.75 14.44-1.25 20.26s5 6.48 5.82 2 3.77-24.66 5.26-25.32 4.55 15 5.05 18.7 6.32 3.74 6.15-.91-3.49-23.1-3.49-23.1l-1.33-9.15-.32-1c.49 0 1-.08 1.48-.14 0 0 1.33 1.33 6.82 4.65 1.85 4.59 4.68 5.8 6.7 6a1.59 1.59 0 001.65-2.22z"/><path d="M312.72 201.52c-2.16-2.5-4.32-7.82-.66-9.65s-.5-4.82-3.16-8.14-5.32-17.79-6.65-23.45 1.49-7.31-.17-21.78-11.14-17.5-14.47-18.12a124.56 124.56 0 01-16.07-4.11l.11.62c2.66 6.31-22.11 28.26-30.59 30.42-15.13-11-25.27-25.93-21.45-28.93h-.67c-5.68 2.69-12.28 5.77-14.13 7.33-3.16 2.66-8.48 13.13-4.65 25.77.49 9.64 0 35.08-.34 36.75s3.33 5.65 4.16 9-.83 5.16-3 5.82-6 5.16-4 9.15 2.66 13.47 2.16 14.46c5.82-2.82 22.11-.33 25.44 3l1 .91a3.55 3.55 0 01-.49 1.75c-2.16 2.82 2.49 6.15 2.32 6.65s-5.48 3.66-6.65 4.32 1.83 3.33 2.17 4.82-11.14 11.31-8.82 17.13c6.82-6.15 54.87-22.28 74.16-4 3.16 0 .5-5.82.33-6.82s.5-2.83.17-4.65a9.66 9.66 0 00-2.7-2.69c-.53-3.31-1.65-9.65-2.62-11.11-1.33-2-1.83-13-.5-21.12l.14-.22c1.15 1.25 2.52 2.66 3.85 4.38-.67-5.66 4-9 9-10.65s12.28-2.77 14.29 5.54c0 0 1.17-4.87 3-5.37s1.65-4.53-.51-7.01z" fill="#efefef"/><path fill="#bebebf" d="M179.23 452.89l-10-27.24H325.86l-10 27.24H179.23z"/><path d="M315.86 452.89H179.23l-9.61-86.55a3.19 3.19 0 013.17-3.54h149.5a3.19 3.19 0 013.17 3.54z" fill="#dfdfdf"/><circle class="cls-5" cx="247.38" cy="408.03" r="7.65"/><path class="cls-17" d="M137 394.83s4.66-4.54 2.66-6.31c-2.88-.78-7.2 2-7.2 2l-14-.44s-10.75-4.1-10-7.43l.23-7.22-2-.15c-3.49-.33-8.48 3.16-14.63 4.82 0 0-16.46-5.15-21.45-6.82s-18-16.29-30.09-22.94l-19.07-.83-10 8-2.21 11.8c0 4.49 43.62 22.12 75.71 31.1a36.79 36.79 0 004.32.77s15.07 11.09 22.94 14.08c3.07 1.16 11.51.29 13.2.11a13.52 13.52 0 007-3s1-3.11-.22-3.33l-.25-.22a15.36 15.36 0 002.91-1.11c3.21-1.77 5-4.87 1.22-5.65a10.6 10.6 0 002.55-2c2.23-2.34 1.01-6-1.62-5.23z"/><path class="cls-18" d="M116.52 283.16l-2.33-6c1.56.4 3.93 1 5 1.46 1.5-3.33-2.33-21.29-2.33-21.29l-11.62-6.29v-.44l-3.47-1.45-.86-.46.06.13-34.16-14.21-6.32.33L53 250.9a23.53 23.53 0 013 1.56l-1.66.27c-1.5.17-29.43 14.46-30.76 15.63s-1.83 4.15-1.83 5.49-8.48 37.9-11.64 45-5.16 20.79-3.66 24l5.1 1.06-7.43 1.76S-3.36 370.45 7 372.78c2.68-6.91 12.35-20.48 25-23.07-4.25 2 9.7 0 9.7 0l26.61 23.5 23.28 7.32 16.4-6 .78-4.77.8-.34a28.16 28.16 0 0112.42-2.22l1.41.07c3.93-71.14.44-65.33-6.88-84.11zm-13.16-28.54l-.18-.2.07-.06z"/><path class="cls-17" d="M97.23 151.14c-18.78 2.33-29.09 14.8-31.92 25.44-4 15.11 2 23.11 5.49 28.76 2.7 4.38-1.88 26.13-4.7 36.86 8.69 8.87 31.59 20.34 31.59 20.34 0-9.24 1.8-20.1 8.69-21.78l.15-.16a8.55 8.55 0 001.35.66c3.52 1.22 15-1.54 22.71-19.5a4.26 4.26 0 001.89-.79c1.19-.86 1.17-3.18.64-6.13.74-2.41 1.42-5 2-7.84 8.41-39.41-18.58-58.25-37.89-55.86z"/><g clip-path="url(#clip-path-2)"><path d="M420.64 148.6a44.23 44.23 0 00-6.55.49l2.05 1.88c2.32 8.93-9.51 37.75-12.42 37.75h-.05c-2.83-.33-2.77-5.81-2.77-5.81l-5.65-.78c-3.11 11.53-6.88 10.2-4 32.14-.55 13.79-1.15 25.09-1.62 33l.51-.07c4.61 3.07 18.79 4.89 25.09 4.89a15.08 15.08 0 002.29-.13l.66-.11 1.64-21.06q3.9 3.75 8.5 7.51c2.41 5.38 4.84 10.64 6.84 14.9l1.12-.36h-.69l1.36-.22 14.4-4.65 17.16-5.55-.28-.58s.07.15.3.59L470 242l-1.37.57c1.19 2.37 2.81 5.66 2.92 6.19.17.83 2 25.94 2 25.94l-3.55 3.19a217.31 217.31 0 0114.54 24.29c10.07-5.34 18.95-11.18 25.75-18.19 22-21.44 10.71-64-42.44-115.87-.1-.11-.21-.21-.32-.31-21.55-16.6-38-19.21-46.85-19.21" fill="#630006"/></g></g><g id="Lines"><path class="cls-21" d="M390.59 247.52c-.5 8.45-1.77 12.41-1.77 12.41-10.87 33.48-18 49.66-18 49.66"/><path class="cls-22" d="M135 409l-1.2 6.2c-.22 2.27-6 3.56-12.92 2.88s-11.82-1.93-11.6-4.2"/><path class="cls-11" d="M100.89 248.74l16 8.64s3.83 18 2.33 21.29c-1.66-.67-6.48-1.83-6.48-1.83"/><path class="cls-23" d="M66.81 234.61l-6.32.33"/><path class="cls-24" d="M395.25 182.12c-3.11 11.53-6.88 10.2-4 32.14-.54 13.48-1.13 24.59-1.59 32.47"/><path class="cls-21" d="M407 146a40.44 40.44 0 017.48 5.49"/><path class="cls-25" d="M155.26 355.15l-19.49 13.65M392.51 322.29l87.98 22.22M286.4 295.52l72.05 18.17"/><path class="cls-23" d="M308.56 211.38c-.49 11.31 2.33 17.24 2.33 17.24s10.48-1 16 8c1.83 2.08 6.3 12.63 8.15 17.1a1.59 1.59 0 01-1.61 2.21c-2-.21-4.85-1.42-6.7-6-5.49-3.32-6.82-4.65-6.82-4.65a29.35 29.35 0 01-12-1"/><path class="cls-23" d="M318.71 246.41l1.33 9.15s3.32 18.45 3.49 23.11-5.65 4.57-6.15.91-3.55-19.37-5.05-18.7-4.43 20.84-5.26 25.32-6.32 3.83-5.82-2 1.58-16.77 1.25-20.26M288.17 215.6c0 .66 5.1 17.18 5.1 17.18M201 225.79c-.17 9 1.49 50.55 1.49 50.55"/><path class="cls-26" d="M260.68 51.71a30.89 30.89 0 00-8.15-.83M235.9 51.21c-2 0-8.64 2.66-8.64 2.66"/><path class="cls-23" d="M220.77 262.15c-12.47 9-60.82 57.69-68.34 86.66a5.47 5.47 0 005.62 6.81 88.42 88.42 0 0037.23-10.56c18.84-10 86-38.07 94.83-54.92a35 35 0 003.32-12M215.65 55.45c-3.56 1.87-4.25 6.93-2.24 11.89a8.39 8.39 0 006.82 5.54c6.34 14.33 17.76 27.43 25 27.54s17.37-14.35 23.22-29.22a8.4 8.4 0 006.7-5.53c2-5 1.32-10-2.26-11.89M272.93 53.26a28.05 28.05 0 01-1.52 8.9M216.7 62.58a31.67 31.67 0 01-1-7.1M253.36 21.11c-.33 6.32-15 34.59-47.72 35.42M252.2 25.6c9.48 2.83 20.28 15.13 20.78 28.6"/><path class="cls-23" d="M253.86 9.64c-7.31-6.32-11.3-9.64-19.12-7.48s-33.92 18.29-37.58 44.73 7.32 39.4 7.32 39.4"/><path class="cls-23" d="M207.47 66.84c-.16 10.47-1.66 35.25-26.77 55.2 4.66 0 13-3 13-3-10.64 16.79-12.3 38.07 6.32 46.72M253.86 9.64a16 16 0 0119.79-1.16c3.66 2.66 17 17.79 14.3 35.41s6.81 40.74 15.46 48.11M293.43 86c2.17 6.32 3.5 29.43-13.13 32.59M261 86.29c-2.33 13-.83 18 1 23.78.83 2.66 5.56 4.9 10.76 6.62"/><path class="cls-27" d="M284 149.14c-3.5 5.32-4 9.15-3.5 16.13.41 5.67 2 19.35-10.69 21.95M208.64 149c2.16 9.86-2.39 21.94-.72 28.26a12.86 12.86 0 0016.35 9.15M216 187.05c3.66 8.48 2.16 15.8 4.32 18.79s7 23.61 4.83 26.44 2.49 6.15 2.32 6.65-5.48 3.66-6.65 4.32 1.83 3.33 2.17 4.82-11.14 11.31-8.82 17.13c6.82-6.15 54.87-22.28 74.16-4 3.16 0 .5-5.82.33-6.82s.5-2.83.17-4.65c-.2-1.08-9.6-9.21-20.56-10.42M283 214.82c-1.33 8.15-.83 19.12.5 21.12s2.5 10.14 2.5 10.14"/><path class="cls-23" d="M230.75 91c.66 10.64-.67 21-3.16 22.94-1.05.84-4.69 2.59-8.79 4.54"/><path class="cls-27" d="M300.92 191.54c-2.66-1.33-14.8-.5-18 2.83s.17 5.48 2.16 6.48-2.49 3-4.49 6.82S283 213.82 287 219c-.67-5.66 4-9 9-10.65s12.28-2.77 14.29 5.54c0 0 1.17-4.87 3-5.37s1.66-4.49-.5-7-4.32-7.82-.66-9.65-.5-4.82-3.16-8.14-5.32-17.79-6.65-23.45 1.49-7.31-.17-21.78-11.21-17.5-14.54-18.12a131.18 131.18 0 01-14.84-3.69l-1-.3c2.66 6.32-22.2 28.76-30.68 30.92-15.13-11-25.27-25.93-21.45-28.93l-.81.05c-5.64 2.68-12.16 5.73-14 7.27-3.16 2.66-8.48 13.13-4.65 25.77.49 9.64 0 35.08-.34 36.75s3.33 5.65 4.16 9-.83 5.16-3 5.82-6 5.16-4 9.15 2.66 13.47 2.16 14.46c5.82-2.82 22.11-.33 25.44 3"/><path class="cls-23" d="M302.16 265.78c-1.49 2.83-4.9 8.62-6.9 10.78-1.11 1.2-5.65 4.49-7.65 5.16s-4.21-.73-1.88-4.05 7.79-6.32 9.12-12.64c-2.66 3.16-5.68 4.94-10 7.43s-5.48-1.88-2-4.21 8.64-9.87 8.64-9.87a20.48 20.48 0 011.45-7.65c-1-9.64-1.67-15.13 5.65-19.12"/><path class="cls-27" d="M283.07 191.87c.44-3.54-3.1-10.86-3.1-10.86M282.18 189.21c-3.77 7.32-11.08 28.38-26.6 38.8M241.17 240.42c-6 4.22-18.84 9.09-18.84 9.09M250 185.56c-6.15-.17-11-.17-12.81.33"/><ellipse class="cls-18" cx="256.07" cy="62.84" rx="2.38" ry="3.65"/><ellipse class="cls-18" cx="234.29" cy="62.84" rx="2.38" ry="3.65"/><path class="cls-23" d="M248.71 74.32c-1 1.83-5.16 2.49-6 1.83M237.07 80.47a9.8 9.8 0 00-3.33 2.33M236.57 81.8c4.65 2.33 14 .17 16.63-.16s-4.16 4.82-8.32 4.82-4.32-3.16-4.32-3.16"/><path class="cls-28" d="M97.69 262.54c0-9.24 1.8-20.1 8.69-21.78M83.93 215.48c.17 8.32 19.62 24.28 23.95 25.78 3.52 1.22 15-1.54 22.71-19.5a4.26 4.26 0 001.89-.79c1.19-.86 1.17-3.18.64-6.13.74-2.41 1.42-5 2-7.84 8.39-39.41-18.6-58.25-37.91-55.86-18.78 2.33-29.09 14.8-31.92 25.44-4 15.11 2 23.11 5.49 28.76 2.7 4.38-1.88 26.13-4.7 36.86"/><path class="cls-28" d="M129.66 199.69c1.16 7.81 5.82 19.12 2.82 21.28s-6.31-.5-6.31-.5M127.16 227.12c-7.81.67-14.13-1-15.63-2.66M112.86 221.8a10.73 10.73 0 00-5.48 3.33"/><path class="cls-26" d="M125.17 197.86c1-.67 3.32-.67 4.15.5M82.1 193.7l17.63 2"/><ellipse class="cls-18" cx="115.19" cy="200.44" rx="2.49" ry="3.57"/><path class="cls-28" d="M106.55 194c5.32-2 11.3-3.5 14.13-2.17M130.66 192a51.37 51.37 0 017 .67"/><path class="cls-11" d="M60.49 234.94L53 250.9c5.65 2.16 35.91 23.94 41.9 33.42 2.32-10.14 6.32-18.62 8.64-18.95-17.29-7.82-42.06-23.12-42.89-29.77M116.19 258.05c-1.83 3.82-6.32 21.12-4.66 37.74-6-13.63-9.14-17.79-9.14-17.79M103.55 265.37L102.06 278M115 278.67c7.31 18.79 12.3 17.46 8.31 88.62M54.34 252.73c-1.5.17-29.43 14.46-30.76 15.63s-1.83 4.15-1.83 5.49-8.48 37.9-11.64 45-5.16 20.79-3.66 24M60 290.47c-.17 14-7.32 30.43-9.64 37.91s-7.15 10.31-7.15 10.31M69.8 319.57l-13.63-5.32M54 317.91l14.47 14.96"/><path class="cls-28" d="M9.28 369.28c0 4.49 43.62 22.12 75.71 31.1a36.79 36.79 0 004.32.77s15.07 11.09 22.94 14.08c3.07 1.16 11.51.29 13.2.11a13.52 13.52 0 007-3s1-3.11-.22-3.33M37.21 349.05c12 7.54 28.43 22.56 33.42 24.22s21.45 6.82 21.45 6.82c6.15-1.66 11.14-5.15 14.63-4.82l2 .15M108.63 383.75l-.05-10.18"/><path class="cls-22" d="M141.9 376.34l-2.38 11.62"/><ellipse class="cls-22" cx="125.26" cy="373.29" rx="5.74" ry="17.46" transform="rotate(-84.4 125.252 373.281)"/><path class="cls-28" d="M108.49 382.64c-.78 3.33 10 7.43 10 7.43l14 .44s4.32-2.77 7.2-2c2 1.77-.22 5.65-5.76 7.64s-9.2 1.22-13.86 1.67"/><path class="cls-28" d="M137 394.83c2.66-.77 3.88 2.89 1.67 5.21a15.35 15.35 0 01-5.77 3.22c-1.44.46-5.08 1.37-6.59 1.23l-7.49-.46M117.46 410.24c1.89.11 7.66 0 8.54-.11 2.11-.33 6.81-1.3 8.87-2.44 3.21-1.77 5-4.87 1.22-5.65"/><path class="cls-29" d="M179.23 452.89l-10-27.24h6.65M319.21 425.65h6.65l-10 27.24"/><path class="cls-29" d="M315.86 452.89H179.23l-9.61-86.55a3.19 3.19 0 013.17-3.54h149.5a3.19 3.19 0 013.17 3.54z"/><path class="cls-21" d="M335.33 145.32a87.37 87.37 0 0017.74 27.2c1 7.82 2.22 9.23 3.55 9.71s3.49-.58 5.07-2.24a48.34 48.34 0 0014.76 7.63 6.58 6.58 0 007.93-3.3c6.92-13.92 10.93-26.77 6.9-32.43"/><ellipse class="cls-9" cx="355.54" cy="160.53" rx="2.38" ry="3.65" transform="rotate(-44.22 355.537 160.529)"/><path class="cls-21" d="M355.45 150c-3.16 0-9.14 4.66-9.14 4.66M376.57 174.25c-.67 2.66-7.48 10.14-7.48 10.14M386.38 180.4c4.32-2.16 14.49 2.46 15 2.83"/><path class="cls-22" d="M392.86 147.31c3.16 2.33 8.15 2.16 8.15 2.16a65.21 65.21 0 005.65-3.49c.67-.66-.33-3-1.82-14.79 4-4.16 1.82-15-1.67-17.3 4-9.31-4.49-15.79-11-16-1-6.15-12.8-11-19.46-9.14-3.15-6.32-9-5-12-1.33-12.8-.84-19.12 6.65-19.62 14.13-.16-.5-6.48-2-9.64.17s-4.82 6.48-4.49 14.63c-3 0-7.32 3.65-9.31 8.64s7 22.45 12 22.28S340.16 142 340.32 136c8.15.33 14.8.33 15.63-11.31 3.33 4.49 10.14 12.8 19.62 12.8 5-.5 1.66-7.15 1.66-7.15M392.86 92.44a9 9 0 01-.66 5.49"/><path class="cls-24" d="M415.64 148.81c5.49 7.81-9.14 40.24-12 39.9s-2.66-3.32-2.66-3.32"/><path class="cls-21" d="M436.93 253.28c1.77 5.32 2.82 9.59 2.82 9.59-26.1 19.29-58.86 43.4-58.86 43.4-7.31 2.33-26.27 8.64-27.93 9.64S335 333.37 331.68 337s1 6.65 5.48 3 17-11.31 17-11.31"/><path class="cls-24" d="M418.3 213.82c2.69 8.63 11.51 27.92 17 39.57"/><path class="cls-21" d="M354.3 324.23s.62 11.15 1.85 15.33a3.34 3.34 0 004.78 2.32M360.62 326.55c.31 1.7 0 12.7 1.69 17 .61 1.56 4.17 1.08 4.47.62M366.78 332c-.15 3.1-.3 12.39 2.47 13.17s9.71 0 10.94-1.24 4.93-6.82 3.39-8.21"/><path class="cls-24" d="M396.13 193c.67 8.87 7.1 24.83 30.38 43.23"/><path class="cls-21" d="M416.09 252.84l-1.56 12.41s-13.08 24.39-14.18 26.16"/><path class="cls-24" d="M419.85 232l-1.66 19.84"/><path d="M420.58 147.11a43.84 43.84 0 00-5.14.29 1.51 1.51 0 00-1.33 1.48v.17a1.51 1.51 0 001.5 1.32h.17a41 41 0 014.82-.27c12.33 0 33 5.08 59.24 30.37q-5.62-6.09-12-12.36-3.84-3.76-8-7.61c-16.66-10.77-30.09-13.4-39.23-13.4" fill="#310003"/><path d="M470 276.39a1.43 1.43 0 00-.88.29 1.49 1.49 0 00-.33 2.09 217.16 217.16 0 0114.43 24.11c.89-.46 1.77-.93 2.65-1.41a217.75 217.75 0 00-14.7-24.47 1.48 1.48 0 00-1.21-.62" fill="#18263e"/><path class="cls-24" d="M390.15 247.19c5.32 3.54 23.39 5.43 27.38 4.76"/><path class="cls-32" d="M371.42 358.14l57.52 22.29-27.6 23.27-56.86-24.27 26.94-21.29z"/><path class="cls-32" d="M428.86 380.67c3.24 1.58 1 5.66.08 6.41s-27.6 23.27-27.6 23.27l-56.86-24.27 1.35-1.07v-4.42"/><path class="cls-22" d="M349.8 374.02l58.61 23.53v7.73"/><path class="cls-32" d="M424.51 349.05h14c2.88 0 7.76 2 2 1.78h-46.82"/><path class="cls-22" d="M379.4 134.34c2.49-6.81 8.81-3.32 11.47 2s1.16 10.81-1 10.81"/><path class="cls-21" d="M375.41 339.85l-2.17-3.15c10.65-1.17 22.28-5.82 17.79-18.63 0 0 32.93-8 82.47-43.39.14-11.23-2.27-21.64-4.21-32"/><path class="cls-24" d="M471.4 241.2c-3-15.94-8.51-29.2-12-37.35-1.16-10.31-6.65-23.45-8.81-25.44M470 242c-8.87 3.77-28.38 11.08-34.36 10.86"/><path class="cls-26" d="M123 193.81l-21 .77a2.53 2.53 0 00-2.32 3.34l2.48 7.45a4 4 0 003.88 2.72l11.23-.31a5.66 5.66 0 005.2-3.85l2.5-7.51a2 2 0 00-1.97-2.61z"/><path class="cls-28" d="M82.94 195.7c-2.83-2.66-7.15-3.66-7.49 4s3.33 12.47 7.49 11.8"/><path class="cls-26" d="M131.61 193.67l10.39-1.39a1 1 0 011.14 1.3L140.35 204a3.17 3.17 0 01-2.88 2.35l-6.05.36-2.15-9.71a2.77 2.77 0 012.34-3.33z"/><path class="cls-11" d="M44.53 340.35a11.36 11.36 0 00-8.15-2.35l-32.26 7.67S-3.36 370.45 7 372.78c3.49-9 19.07-29.6 37.36-22.28-2.22-3.16.17-10.15.17-10.15z"/></g></svg>