<svg id="Lines" xmlns="http://www.w3.org/2000/svg" viewBox="0 0 449.63 394.99"><defs><style>.cls-14,.cls-2,.cls-7{fill:none}.cls-2{stroke:#95c0d1}.cls-14,.cls-2,.cls-7{stroke-linecap:round}.cls-14,.cls-2,.cls-7{stroke-linejoin:round}.cls-2,.cls-7{stroke-width:3px}.cls-7{stroke:#26344e}.cls-12{fill:#95c0d1}.cls-14{stroke:#fff;stroke-width:10px;opacity:0.5}</style></defs><path fill="#fff" d="M446.22 331.64L12.14 310.02 1.5 20.05l444.72-7.65v319.24z"/><path class="cls-2" d="M446.22 331.64L12.14 310.02 1.5 20.05l444.72-7.65v319.24zM22.78 47.98l402.16-7.65M23.96 73.99l400.98-4.39M25.15 100.01l399.79-1.15M26.33 126.02l398.61 2.1M27.51 152.03l397.43 5.36M28.69 178.04l396.25 8.61M29.88 204.05l395.06 11.86M31.06 230.07l393.88 15.11M32.24 256.08l392.7 18.36M33.42 282.09l391.52 21.62"/><path stroke="#26344e" fill="#678f9e" stroke-width="3" stroke-linejoin="round" stroke-linecap="round" d="M282.119 245.819l18.342-18.342 133.092 133.091-18.342 18.343z"/><path stroke="#d2ecf3" stroke-width="3" stroke-linejoin="round" stroke-linecap="round" fill="none" d="M301.43 236.23l20.69 20.69"/><path stroke="#95b8c5" stroke-width="3" stroke-linejoin="round" stroke-linecap="round" fill="none" d="M289.2 248.46l20.7 20.69"/><circle cx="197.47" cy="142.83" r="141.33" fill="#465671"/><circle class="cls-7" cx="197.47" cy="142.83" r="141.33"/><path fill="#465671" stroke="#26344e" stroke-width="3" stroke-linejoin="round" stroke-linecap="round" d="M304.216 274.516l24.925-24.925L440.13 360.578l-24.926 24.926z"/><path fill="#26344e" stroke="#26344e" stroke-width="3" stroke-linejoin="round" stroke-linecap="round" d="M419.92 390.202l24.926-24.925 3.296 3.295-24.926 24.926z"/><path stroke="#6e7b95" stroke-width="3" stroke-linejoin="round" stroke-linecap="round" fill="none" d="M442.56 367.56l3.29 3.29"/><circle cx="197.47" cy="142.83" r="126.43" fill="#efefef"/><path class="cls-12" d="M169.38 123.07a39.37 39.37 0 1127.84-11.53 39.26 39.26 0 01-27.84 11.53M197.47 16.4A126.65 126.65 0 0091.92 73.19l1.2.43a77.53 77.53 0 000 20.19L81.18 98l4.66 17.38 12.44-2.3a76.14 76.14 0 0010.1 17.45l-.31.32-7.92 9.33 12.73 12.72 9.48-8.07.16-.16A76.61 76.61 0 00140 154.8l-.11.4-2.19 12 17.39 4.66 4.18-11.73.06-.22a77.23 77.23 0 0020.15 0l.12.43 4.12 11.52 17.39-4.66-2.28-12.2-.05-.19a76.4 76.4 0 0017.45-10.11l.31.32 9.33 7.91 12.73-12.73-8.07-9.49-.16-.16a76.14 76.14 0 0010.1-17.45l.41.11 12 2.19 4.7-17.4-11.74-4.18-.21-.06a77.3 77.3 0 000-20.16l.43-.11 11.52-4.13L252.92 52l-12.25 2.24-.2.06a76.41 76.41 0 00-10.12-17.48l8.25-9.62-5.78-5.78Q227 19.72 221 18.61l-4.8 4.09a78.34 78.34 0 00-8.89-5.91q-4.93-.39-9.87-.39"/><path class="cls-12" d="M264.82 35.8l-6.22 10.77 10.4 7.18a75.89 75.89 0 00-5.2 19.51l-12.64 1v18l12.64 1a76.39 76.39 0 005.2 19.49l-10.44 7.13 9 15.59L279 130a77.6 77.6 0 0014.29 14.28l-5.48 11.42 15.58 9 7.18-10.43a74.94 74.94 0 0012.43 3.95 127.19 127.19 0 00-1.53-40.31 39.43 39.43 0 01-19.17-45.79 127.46 127.46 0 00-37.48-36.32M178.67 163.69h-18l-1 13.63v.09a121.62 121.62 0 00-27.19 5.38l-6.16-12.27-16.63 6.89 4.3 13v.05a121 121 0 00-23 15.42L85 200.73a126.32 126.32 0 0022.33 30.79 91.67 91.67 0 01144 25.7A125.67 125.67 0 00277 241.16 121.38 121.38 0 00262.51 220l9-10.4-12.73-12.72-10.35 8.93-.06.06a120.6 120.6 0 00-23-15.43l4.33-13-16.7-6.92-6.15 12.21v.05a122.64 122.64 0 00-27.19-5.38l-1-13.71"/><path class="cls-12" d="M169.67 233.49a65 65 0 00-41.64 15A126.68 126.68 0 00226.1 266a65.32 65.32 0 00-56.43-32.5"/><path stroke="#6e7b95" stroke-width="3" stroke-linejoin="round" fill="none" d="M307.55 273.38l108.79 108.79"/><circle class="cls-7" cx="197.47" cy="142.83" r="126.43"/><path class="cls-14" d="M205.12 31.77A111.35 111.35 0 01305.28 115M161.94 248.36A111.48 111.48 0 0188.35 165"/></svg>