<svg xmlns="http://www.w3.org/2000/svg" viewBox="0 0 472.87 430.96"><defs><style>.cls-1{fill:#d2ecf3}.cls-2{fill:#fff;opacity:0.54}.cls-3{fill:#bedde8}.cls-10,.cls-11,.cls-14,.cls-19,.cls-20,.cls-21,.cls-4,.cls-6,.cls-8{fill:none}.cls-4{stroke:#d2ecf3}.cls-10,.cls-11,.cls-14,.cls-19,.cls-20,.cls-21,.cls-4,.cls-6,.cls-8{stroke-linecap:round;stroke-linejoin:round}.cls-4,.cls-6,.cls-8{stroke-width:7px}.cls-14,.cls-6{stroke:#bedde8}.cls-10,.cls-8{stroke:#a9cedc}.cls-10,.cls-11,.cls-14,.cls-19,.cls-20,.cls-21{stroke-width:3px}.cls-11{stroke:#fff}.cls-18{fill:#dfdfdf}.cls-19{stroke:#7d7d7f}.cls-20{stroke:#310003}.cls-21{stroke:#121c2f}.cls-22{fill:#121c2f}</style></defs><path class="cls-1" d="M161.61 24.11c115-58.45 311.26 103.76 311.26 194.21s-94.44 55.86-155 99.09-111.7 136.35-210.13 108.41S-26.61 336 20.62 222.31 80.47 65.35 161.61 24.11z" id="Background"/><g id="Flats_-_Screen" data-name="Flats - Screen"><path class="cls-2" d="M251.18 39.19L457.8 25.44l-1.33 203.52-203.96-21.28-1.33-168.49zM25.49 8.59l151.2-7.09 2.22 324.12-148.1-35.47L25.49 8.59z"/><path class="cls-3" d="M70.25 128.2l9.64 17.04-.08 9.15 5.65-1.58 5.4-4.66-.16-9.64-20.45-10.31zM51.21 140.67l19-12.47.33-14.8-13.8 3.33-8 5.57L46 127v5.41l.58 5.4-.41 8 5.4 5.41-.33-10.56"/><path class="cls-4" d="M118.16 70l.89 36.58M129.69 45.84l.89 60.74M141.66 64.24l.89 42.34"/><path stroke-width="7.08" stroke-linecap="round" stroke-linejoin="round" stroke="#d2ecf3" fill="none" d="M152.3 51.6l.89 56.31"/><path class="cls-6" d="M118.46 82.42l.59 24.16M129.99 66.46l.59 40.12M141.83 72.44l.72 34.14"/><path stroke="#bedde8" stroke-width="7.08" stroke-linecap="round" stroke-linejoin="round" fill="none" d="M152.48 63.14l.71 44.77"/><path class="cls-8" d="M118.84 97.92l.21 8.66M130.3 87.52l.28 19.06M142.18 89.06l.37 17.52"/><path stroke="#a9cedc" stroke-width="7.08" stroke-linecap="round" stroke-linejoin="round" fill="none" d="M152.73 78.87l.46 29.04"/><path class="cls-10" d="M45.89 165.33l37.91 1.78M89.56 167.33l5.32.22M46.11 172.87l37.47 2.22M89.78 175.53l6.21.44M115.94 135.62l11.98.23M115.94 145.38l11.98.44M116.61 154.69l11.75.44"/><path class="cls-1" d="M41.11 186.82l.6 48.96 99.4 14.57-6.43-56.09-93.57-7.44M41.54 247.81l.36 29.48 90.45 22.17s-1.77-36.36-2.88-36.8-87.93-14.85-87.93-14.85"/><path class="cls-10" d="M109.84 200.03l2.45.22M87.24 197.99l17.62 1.59M66.72 196.14l15.85 1.43M48.33 194.48l13.52 1.22"/><path class="cls-11" d="M109.81 208.99l2.45.24M87.23 206.75l17.61 1.74M66.73 204.73l15.84 1.56M48.36 202.91l13.51 1.33M109.78 217.95l2.45.26M87.22 215.52l17.59 1.89M66.74 213.31l15.83 1.7M48.39 211.33l13.49 1.45M109.75 226.9l2.45.29M87.22 224.28l17.57 2.05M66.76 221.89l15.8 1.84M48.42 219.75l13.48 1.58M109.73 235.86l2.44.31M87.21 233.04l17.56 2.2M66.77 230.47l15.79 1.99M48.45 228.18l13.47 1.69"/></g><g id="Lines_-_Screen" data-name="Lines - Screen"><g id="Screens"><path class="cls-10" d="M25.49 8.59l151.2-7.09 2.22 324.12-148.1-35.47L25.49 8.59zM251.18 39.19L457.8 25.44l-1.33 203.52-203.96-21.28-1.33-168.49z"/><path class="cls-10" d="M160.73 19.68L108.15 22l1.76 95.27c16.29.47 40 1.18 51.89 1.54zM96.2 22.5L38.79 25l.89 71.87 58.02.38-1.5-74.75zM163.23 250.54l-.6-54.91c-9.92-.78-110.35-8.7-121.85-9.58l.6 48.95zM163.4 266.84l-50.88-7.94-11.6-1.81-59.39-9.28.37 29.48 59.71 14.11 11.56 2.73 50.66 11.98-.43-39.27z"/><path d="M45 68.89c2.66-19.06 3.11-22.61 6.65-22.16S57 74.22 61 74.66 66.73 56 70.72 56s3.1 6.2 7.09 6.2 6.65-28.82 12-28.82" stroke-width="3" stroke-linecap="round" stroke-linejoin="round" stroke="#d2ecf3" fill="none"/><path class="cls-10" d="M44.56 78.65c5.32.44 12.41-17.29 16.85-17.29s6.2 17.29 10.64 17.73 4.43-14.63 8.87-14.63 5.32-9.31 8.86-8.87"/></g><ellipse class="cls-10" cx="69.94" cy="130.19" rx="24.5" ry="16.07"/><path class="cls-10" d="M93.77 126.37c1.24 1.92.67 11.6.67 13.82 0 8.88-11 16.08-24.5 16.08s-24.5-7.2-24.5-16.08c0-2.46-.4-11.69.78-14M439.2 125.46l1.3-83.61-98.3 4.95 1.39 77.13 95.61 1.53z"/><path stroke-width="3" stroke="#a9cedc" stroke-linecap="round" stroke-linejoin="round" fill="#d2ecf3" d="M344.33 164.93l94.18 4.78.51-33.16-95.24-2.01.55 30.39z"/><path class="cls-10" d="M326.5 47.59l-62.02 3.13.87 71.95 60.54.97.61-76.05zM345.03 203.72l92.81 8.39.5-32.03-93.83-5.09.52 28.73z"/><path class="cls-14" d="M267.14 139.39l6.65.23M281.11 139.84l42.34 1.11M267.07 152.62l6.64.36M281.01 153.35l42.29 1.97M267 165.85l6.63.49M280.92 166.86l42.23 2.83M266.92 179.08l6.62.62M280.83 180.37l42.17 3.7M266.85 192.3l6.61.77M280.74 193.88l42.11 4.56"/><ellipse class="cls-14" cx="294.19" cy="68.89" rx="16.31" ry="14.43" transform="rotate(-2.64 294.329 68.874)"/><path class="cls-14" d="M285.54 57.15l8.65 11.74-13.75 7.76M310.15 70.67l-15.96-1.78 11.64 9.98M300.17 55.82l-5.98 13.07"/><ellipse class="cls-14" cx="294.63" cy="102.82" rx="16.31" ry="14.43" transform="rotate(-2.64 294.846 102.972)"/><path class="cls-14" d="M299.06 116.34l-4.43-13.52 12.86-8.43M282.21 94.83l12.42 7.99-3.11 13.74M280.66 109.24l13.97-6.42M349.83 192.71c9.31-8 10.64 2.33 20.29 3.66s12-7.32 23.27-8.65 10 7 16.3 7.65 16.63-9 23.28-9"/><path class="cls-10" d="M349.5 195.7c6.32.34 20.61 4.15 27.6 4.33 13.3.33 13.63-18.6 22.94-18 19.29 1.33 19.29 15.63 31.6 16.63"/><path class="cls-14" d="M349.5 54.04l.33 9.31 12.42-.22-.34-9.31-12.41.22zM368.45 53.6l36.47-1.22M369.23 58.48l47.6-.96M369.23 63.13l28.93-.33M349.5 71l.33 9.32 12.42-.08-.34-9.31-12.41.07zM368.45 70.78l36.47-.79M369.23 75.67l60.96-.51M369.23 80.32l22.67.01M349.5 87.69l.33 9.31 12.42.07-.34-9.32-12.41-.06zM368.45 87.68l36.47-.37M369.23 92.58l53.93.18M369.23 97.24l28.93.34M349.5 104.51l.33 9.32 12.42.21-.34-9.32-12.41-.21zM368.45 104.73l26.61.04M369.23 109.63l45.95.69M369.23 114.29l16.5.38"/></g><g id="Flats"><path d="M294.54 187c-.57 0-1.15 0-1.74.07-.5 5.48-5.15 16.62-5.15 16.62l-37.58 11.48-14 5.82-30.43 6.32-27.26-.84-17.13-2s-9-.33-9.48-.33-9.64 1.66-10.31 2-10.3.5-10.3.5l-6.49-5.82c-10.64 0-12.3 1-19.29 8.15S67.34 269 55.53 284.16C43.94 299 34.27 309.87 34.24 314a1 1 0 000 .18c.33 4 6.82 9.32 8.65 11.14s6.65 9.48 6.65 9.48 6.82 14.2 10.65 14.54c6.65-4.16 23.44-22.12 23.77-25.94a135.8 135.8 0 01-15.79-10.81c16.79-14 45.06-36.74 45.06-36.74s11.47 22.28 15 29.93S142 350.17 142 350.17l.17 2 1.33 2.17.17 4.82-5.49 8-10.81 19.45-7.37 23.75-1.37 18.11A123.15 123.15 0 00143 431c37.82 0 68.13-18.62 95.52-42-5.25-8.42-12.53-19.86-13.89-22.16a50.76 50.76 0 00-6-7.65s-.66-15.47 2.66-27.6 8.65-31.43 12.81-39.41 7.31-21.61 7-28.43c35.74-20.66 71.82-40.75 71.82-40.75l2-6.48 9.48-7.82-13.63-15.79s-7.08-5.91-16.23-5.91" fill="#26344e"/><path id="hair" d="M171.92 94.94c-8.15-1.16-30.26-3.16-43.23 35.42-1.5 13 1.83 32.09 1.66 36.75s-1.83 6-6.65 9.31c-3.87 2.67-4.15 7-.33 10s1.5 4.33-.33 6.49-9.15 4.65-10.48 8.31.08 4 6 8.65c2.33 1.83.16 3.49 1.49 8.64s4.83 8.15 11.15 8.15 14.29-2.83 22.44-3 25.11 5.82 46.06 3.82 41.57-6 48.88-11.47 7.65-6.32 5.32-9.81-8.64-3.49-9-5.49.67-4.65 4.16-8 7.65-2.66 4.32-7.48-7.31-7.15-9.81-9.48-.33-3.49 3-6.32 6.48-5.82-1.17-13.13-9-9.15-10.47-19-4-25.6-20.79-38.41-32.41-9.27-42.22-3.95z" fill="#630006"/><g id="skin"><path class="cls-18" d="M297.73 185.73l28.16-55.2 7.54-22.39 14.18-18.85 3.55-.44.89 2.44-8.43 18.62 2.44.89 2.66 3.76 7.54 3.55 1.99 5.32-1.55 11.31-7.31 3.77-3.99-1.55-7.1 4.43-19.29 59.41-13.52-11.52-7.76-3.55zM80.92 327.61L70.5 340.25l-3.77 5.32S92.67 364.86 94 365.3s21.06 12.41 21.06 12.41l5.1 6.88s2.21 2 2.88 1.77 4.21-.89 4.65-1.55 8.43-14.81 8.43-14.81l7.76-12.86-.39-2.77-3.16-1-8 8.2-4.21 1.55-5.1-.44z"/></g></g><g id="Lines"><path class="cls-19" d="M297.51 186.5l29-57.08c2.55-9.42 6.21-16.85 6.76-19.62s12.42-19.07 14.08-20.73 6.87-1.22 3.77 4.21-7.87 17.29-7.87 17.29a8.29 8.29 0 013 .34c.89.44 1.89 3.21 2.66 3.43s6.32 3.44 7.76 4.21 1 4.33.78 6.21c-.16 1.32-.31 5.58-.39 8a3.38 3.38 0 01-1.53 2.7l-4.16 2.7a4.11 4.11 0 01-4.47 0l-1.53-1"/><path class="cls-19" d="M352.05 131.52l-2.66-2.32a34.08 34.08 0 01-3.11 5.32c-1.55 2-2.55 4.54-6.65 6.43l-20.06 60.63"/><path class="cls-20" d="M171.92 94.94c-16-4-30.92 7.65-39.57 25.28-12.58 25.63 3.32 48.05-4.16 53s-9.81 8.48-4.82 12.63-.33 7.65-6 11-10 7.15-.83 12.14-3.49 13.46 12.64 17.45 10.31-6.31 35.08-1.82 54.71 3.49 73.16-3.83 21.95-12.47 12-17.62-1.83-8.82 2.33-13.14-.83-9-7-13.47.5-4.49 4.65-9.81-2.82-8.48-10.64-17 2.5-15.63-14-39.57S186.61 88 171.92 94.94z"/><path class="cls-19" d="M67 345.35c21.14 16.15 41 28.82 47.44 32.25 4.66 4.66 6.15 8.32 8.32 8.82s4.82-1.33 4.82-1.33"/><path class="cls-21" d="M110.4 270.64c6.81 11.49 29.65 54.32 31.48 81.36"/><path class="cls-22" d="M139.62 362.45a1.5 1.5 0 00-1.33.81c-.88 1.68-1.93 3.42-3.16 5.44-1.37 2.26-2.93 4.83-4.55 7.86-4.17 7.8-12.36 23.11-13.26 51.63 1 .21 2 .42 3 .6.81-28.15 8.85-43.18 12.93-50.81 1.58-3 3.12-5.49 4.47-7.73 1.25-2.06 2.33-3.84 3.25-5.61a1.5 1.5 0 00-.64-2 1.56 1.56 0 00-.69-.17M218.81 357.37a1.5 1.5 0 00-1.13 2.49c5.91 6.77 13.54 17.74 20.44 29.45l2.31-2c-6.82-11.54-14.4-22.47-20.49-29.44a1.53 1.53 0 00-1.13-.51"/><path class="cls-21" d="M247.78 216.14c21.42-6 39.75-12 39.75-12l1.7-3.19a24.59 24.59 0 002.34-6.33l1.74-7.85c8.4 0 19.1 4.13 30.87 21.74l-6 5.55a17.53 17.53 0 00-4.32 6.29 6.64 6.64 0 01-2.92 3.35l-69.74 39.62s-.44 15.52-5.54 25.5-18.62 47-16.85 70.05M230.45 269.86c5-3.32 15.3-9.31 15.3-9.31M215 358.32c-16.13 7.64-51.55 8.81-70.67-.67M219.81 366.63c-26.94 4.32-62.52-1.66-72-7.32"/><path class="cls-19" d="M130.52 362.31l4.99-7.98 4.49-.5"/><path class="cls-19" d="M81.8 327.17c14.28 13 35.7 30.32 43.45 36.25 2.94-.28 3.77 1.88 9.76-4.11 3.64-3.63 5.31-5.67 6.4-6.42"/><path class="cls-21" d="M141.41 352.89a1.2 1.2 0 011.75.11c1.49 1.33 2 3.82-2.5 9a45.81 45.81 0 00-7.15 12.47M119.73 220.83a29.58 29.58 0 00-7.67 1.81c-4.06 1.56-61.92 63.1-76.57 89.52a6.55 6.55 0 001.32 8c1.9 1.76 3.85 3.48 5.9 5.26a27 27 0 016.31 8c3.68 7.1 9.24 18.36 12.39 15.71 4.21-3.55 19.51-19.07 22.39-26.16l-11.11-6.3a9.39 9.39 0 01-1.63-1.18c-1.63-1.49-3-2.72-3-2.72l45-37.08"/><path class="cls-20" d="M152.3 158.46c3.11 16-2.66 15.52-5.76 19.07s4.87 7.53 1.33 14.18-20.87 7.1-16.87 12.86 24.39 5.77 20.39 9.31M218.37 149.59c5.76 9.76 26.16 16.41 15.51 25.27s5.77 8-2.21 18.63 11.53 9.75-5.77 17.73M201.52 163.34c-8 12 19.51-3.11 6.65 20.84s16.85 16.4-.89 26.16M186 126.09c6.65 24.39 7.09 43.9-5.32 56.76s-7.1 11.08 3.55 12.85 4 10.2-5.77 15.52"/></g></svg>