<svg id="Layer_1" data-name="Layer 1" xmlns="http://www.w3.org/2000/svg" viewBox="0 0 512 512">
  <defs>
    <style>
      .cls-2{fill:#678f9e}
    </style>
  </defs>
  <g id="Form">
    <path d="M400 32v384H112V32h288m9.28-16H102.72A6.72 6.72 0 0096 22.72v402.56a6.72 6.72 0 006.72 6.72h306.56a6.72 6.72 0 006.72-6.72V22.72a6.72 6.72 0 00-6.72-6.72z" fill="#a9cedc"/>
    <rect class="cls-2" x="272" y="176" width="96" height="48" rx="4"/>
    <rect class="cls-2" x="144" y="176" width="96" height="48" rx="4"/>
    <rect class="cls-2" x="144" y="96" width="224" height="48" rx="4"/>
    <rect class="cls-2" x="144" y="256" width="224" height="48" rx="4"/>
    <rect x="160" y="336" width="192" height="48" rx="24" fill="#94000a"/>
    <g id="vgkxl3">
      <path fill="#fff" d="M372.58 443.11l-12.14 36.43-48.5-117.51 117.22 48.74-36.46 12.17 47.87 47.75-20.35 19.75-47.64-47.33z"/>
      <path d="M323.62 373.74l87.49 36.38L381 420.18l50.57 50.45-11.28 10.94-50.49-50.14-10 30-36.19-87.69m-23.36-23.41l11.66 28.24 36.19 87.69 13 31.4 10.74-32.23 3.55-10.64 36 35.76 8.81 8.76 8.92-8.65 11.28-11 9.23-8.95-9.1-9.09-36.07-36 10.7-3.57 32.08-10.71-31.23-13-87.5-36.37-28.21-11.73z" fill="#26344e"/>
    </g>
  </g>
</svg>
