<svg id="Layer_1" data-name="Layer 1" xmlns="http://www.w3.org/2000/svg" viewBox="0 0 512 512">
  <defs>
    <style>
      .cls-2{fill:#18263e}.cls-4{fill:#678f9e}
    </style>
  </defs>
  <path d="M256 34.29l161.54 59.54c.18 1.14.38 2.41.61 3.82C421.7 119.74 430 171.45 430 256c0 34-8.28 67-24.6 98.12-13.51 25.77-32.59 50.45-56.71 73.38a392.45 392.45 0 01-92.72 65 392.45 392.45 0 01-92.72-65c-24.12-22.93-43.2-47.61-56.71-73.38C90.25 323 82 290 82 256c0-84.19 8.32-136.06 11.87-158.21.23-1.47.44-2.78.63-4L256 34.29m0-18.86a5.1 5.1 0 00-2.36.57L80 80a4.21 4.21 0 00-2.36 3.69C77.64 91.32 64 147.66 64 256c0 160.89 168.4 246 190 255.43a5.1 5.1 0 004.1 0C279.6 502 448 416.89 448 256c0-108.67-13.64-164.75-13.64-172.31A4.21 4.21 0 00432 80L258.36 16a5.1 5.1 0 00-2.36-.57z" fill="#a9cedc"/>
  <path class="cls-2" d="M112 153.47l70.73 169.13.09.22.1.22a.31.31 0 010 .38c-.12.18-.18.18-.33.18H41.44c-.15 0-.21 0-.33-.18a.31.31 0 010-.38l.1-.22.09-.22L112 153.47m0-41.47L26.51 316.43a16.4 16.4 0 0014.93 23.17h141.12a16.4 16.4 0 0014.93-23.17L112 112z"/>
  <path class="cls-2" d="M16 320c6.72 27.14 47.14 48 96 48s89.28-20.86 96-48zM400 153.47l70.73 169.13.09.22.1.22a.31.31 0 010 .38c-.12.18-.18.18-.33.18H329.44c-.15 0-.21 0-.33-.18a.31.31 0 010-.38l.1-.22.09-.22L400 153.47m0-41.47l-85.49 204.43a16.4 16.4 0 0014.93 23.17h141.12a16.4 16.4 0 0014.93-23.17L400 112z"/>
  <path class="cls-2" d="M304 320c6.72 27.14 47.14 48 96 48s89.28-20.86 96-48zM208 448h96a32 32 0 0132 32H176a32 32 0 0132-32z"/>
  <path fill="none" stroke="#18263e" stroke-linecap="round" stroke-miterlimit="10" stroke-width="16" d="M112 112h288"/>
  <path class="cls-2" d="M288 432h-64l16-320h32l16 320z"/>
  <circle class="cls-2" cx="256" cy="112" r="16"/>
  <circle class="cls-4" cx="112" cy="112" r="16"/>
  <circle class="cls-4" cx="400" cy="112" r="16"/>
</svg>
